<svg width="290" height="236" viewBox="0 0 290 236" fill="none" xmlns="http://www.w3.org/2000/svg">
<path d="M0 0H290V40H0V0Z" fill="#11376B"/>
<path d="M46.5802 15.44L46.5602 14C46.5602 13.38 46.6002 12.6 46.6802 11.98H43.8402C43.9402 12.68 44.0002 13.42 44.0402 14C44.0602 14.44 44.0802 14.92 44.1002 15.44H37.4802C36.8002 15.44 35.8402 15.38 35.2602 15.3V17.96C35.9602 17.92 36.8202 17.88 37.5402 17.88H43.0002C41.3802 20.16 38.0802 22.98 34.2002 24.82L36.0402 26.9C39.2002 25.22 42.4402 22.44 44.2002 20.14C44.2402 22.2 44.2402 24.2 44.2402 25.54C44.2402 26.12 44.0402 26.38 43.5402 26.38C42.8602 26.38 41.7802 26.3 40.8802 26.14L41.1002 28.74C42.2402 28.82 43.3602 28.86 44.5802 28.86C46.1002 28.86 46.8402 28.12 46.8202 26.84C46.7802 24.14 46.7002 20.8 46.6402 17.88H49.2202C49.7602 17.88 50.5202 17.92 51.1602 17.94V15.28C50.6802 15.36 49.7402 15.44 49.0802 15.44H46.5802Z" fill="white"/>
<path d="M58.2202 12.8L56.3402 14.8C57.8002 15.82 60.3002 18 61.3402 19.12L63.3802 17.02C62.2202 15.82 59.6202 13.74 58.2202 12.8ZM55.7202 26.12L57.4002 28.76C60.2202 28.28 62.8002 27.16 64.8202 25.94C68.0402 24 70.7002 21.24 72.2202 18.54L70.6602 15.72C69.4002 18.42 66.7802 21.48 63.3802 23.5C61.4402 24.66 58.8402 25.68 55.7202 26.12Z" fill="white"/>
<path d="M90.1002 17.36C89.8202 17.48 89.2802 17.56 88.6402 17.56H78.7402C78.1202 17.56 77.2602 17.52 76.4202 17.44V20.04C77.2602 19.96 78.2602 19.94 78.7402 19.94H88.4002C88.0402 21.06 87.4202 22.3 86.3402 23.4C84.8202 24.96 82.4202 26.28 79.4002 26.9L81.4002 29.16C83.9602 28.44 86.5202 27.08 88.5402 24.84C90.0402 23.18 90.9002 21.24 91.5002 19.3C91.5802 19.08 91.7402 18.72 91.8802 18.46L90.1002 17.36ZM78.2602 15.24C78.8402 15.2 79.7002 15.18 80.3402 15.18H88.0002C88.7202 15.18 89.6602 15.2 90.2002 15.24V12.66C89.6402 12.74 88.6602 12.76 88.0402 12.76H80.3402C79.6602 12.76 78.8202 12.74 78.2602 12.66V15.24Z" fill="white"/>
<path d="M106.6 18.08C108.58 16.8 110.38 15.3 111.9 13.78L109.76 11.84C108.64 13.32 106.56 15.1 104.54 16.36C102.3 17.74 98.9402 19.22 95.4402 19.98L96.8802 22.42C99.2002 21.78 101.7 20.74 103.76 19.7V26.26C103.76 27.14 103.7 28.4 103.62 28.88H106.78C106.64 28.38 106.6 27.14 106.6 26.26V18.08Z" fill="white"/>
<path d="M119.42 12.8L117.54 14.8C119 15.82 121.5 18 122.54 19.12L124.58 17.02C123.42 15.82 120.82 13.74 119.42 12.8ZM116.92 26.12L118.6 28.76C121.42 28.28 124 27.16 126.02 25.94C129.24 24 131.9 21.24 133.42 18.54L131.86 15.72C130.6 18.42 127.98 21.48 124.58 23.5C122.64 24.66 120.04 25.68 116.92 26.12Z" fill="white"/>
<path d="M138.62 16.32H151.38V19.08H153.72V14.22H151.06C151.62 13.52 152.2 12.74 152.74 11.96L150.16 11.18C149.78 12.12 149.1 13.28 148.44 14.22H145.42L146.38 13.84C146.12 13.04 145.46 11.82 144.82 10.96L142.72 11.72C143.2 12.48 143.7 13.44 143.98 14.22H140.84L141.56 13.88C141.24 13.1 140.44 12.04 139.74 11.26L137.72 12.16C138.2 12.78 138.74 13.56 139.1 14.22H136.38V19.08H138.62V16.32ZM153.92 22.32H146.4C148.02 21.38 149.58 20.12 150.7 18.9L149.2 17.74L148.68 17.86H139.7V19.92H146.48C146 20.32 145.46 20.7 144.94 21.02H143.8V22.32H136.12V24.52H143.8V27.12C143.8 27.4 143.7 27.48 143.28 27.48C142.88 27.5 141.4 27.5 140.12 27.44C140.48 28.08 140.94 29.08 141.1 29.76C142.8 29.76 144.04 29.72 144.98 29.38C145.96 29.04 146.22 28.42 146.22 27.18V24.52H153.92V22.32Z" fill="white"/>
<path d="M161.34 16.42C159.42 17.08 157.46 17.76 156.16 18.16L156.98 20.1C158.4 19.52 160.1 18.82 161.7 18.12L161.34 16.42ZM169.76 24.32H161.2V23.16H169.76V24.32ZM161.2 27.26V26.1H169.76V27.26H161.2ZM164.54 19.6C164.66 19.34 164.7 19 164.7 18.56V11.94H156.68V13.78H158.2L157.2 14.98C158.1 15.46 159.22 16.24 159.74 16.8L160.92 15.28C160.44 14.82 159.52 14.22 158.7 13.78H162.56V18.54C162.56 18.74 162.48 18.82 162.26 18.82C162.04 18.82 161.26 18.82 160.58 18.8C160.82 19.26 161.1 19.96 161.18 20.48C162.4 20.48 163.28 20.48 163.9 20.22L163.96 20.2C163.84 20.56 163.7 20.98 163.54 21.36H158.84V29.78H161.2V29.06H169.76V29.78H172.24V21.36H165.9C166.16 20.92 166.44 20.42 166.68 19.9L164.54 19.6ZM173.74 11.94H165.78V13.78H167.08L166.14 14.96C166.98 15.42 168.08 16.14 168.64 16.7C167.34 17.14 166.12 17.52 165.2 17.8L166 19.58C167.48 19.04 169.32 18.36 171.04 17.7L170.68 16C170.06 16.22 169.44 16.42 168.84 16.64L169.92 15.2C169.44 14.78 168.52 14.2 167.7 13.78H171.52V18.48C171.52 18.7 171.44 18.76 171.18 18.78C170.94 18.78 170.06 18.78 169.3 18.74C169.56 19.24 169.84 19.98 169.94 20.54C171.24 20.56 172.2 20.54 172.86 20.24C173.54 19.94 173.74 19.46 173.74 18.5V11.94Z" fill="white"/>
<path d="M181.26 24.4C180.52 24.4 179.72 23.42 179.72 21.42C179.72 19.24 181.46 16.36 184.74 15.68C184.5 17.32 184.14 19.02 183.68 20.48C182.88 23.16 182.08 24.4 181.26 24.4ZM186.7 28.82C191.7 28.06 194.26 25.1 194.26 20.94C194.26 16.62 191.16 13.2 186.26 13.2C181.12 13.2 177.14 17.12 177.14 21.68C177.14 25.02 179 27.44 181.18 27.44C183.34 27.44 185.06 25 186.24 21C186.8 19.14 187.14 17.3 187.42 15.62C190.08 16.08 191.56 18.12 191.56 20.86C191.56 23.74 189.6 25.56 187.06 26.16C186.54 26.28 185.98 26.38 185.22 26.48L186.7 28.82Z" fill="white"/>
<path d="M199.38 29.5C200.42 27.56 201.46 25.26 202.36 23.12L200.48 21.7C199.46 24.04 198.18 26.56 197.28 28.1L199.38 29.5ZM201.64 18.4C200.84 17.76 199.24 17.02 198.02 16.64L196.76 18.44C198 18.94 199.58 19.76 200.32 20.4L201.64 18.4ZM197.72 12.94C198.92 13.52 200.4 14.52 201.08 15.22L202.56 13.34C201.8 12.64 200.3 11.76 199.12 11.22L197.72 12.94ZM207.34 14.76H210.02V16.24H207.34V14.76ZM215.48 18.32V16.24H212.32V14.76H214.92V12.7H212.32V11.08H210.02V12.7H207.34V11.08H205.12V12.7H202.56V14.76H205.12V16.24H201.94V18.32H207.5V19.52H202.54V29.72H204.64V21.58H207.78V24.76H206.88V22.4H205.46V27.64H206.88V26.48H210.5V27.14H211.88V22.4H210.5V24.76H209.52V21.58H212.82V27.44C212.82 27.66 212.74 27.74 212.48 27.76C212.22 27.76 211.36 27.76 210.62 27.72C210.88 28.28 211.12 29.12 211.16 29.7C212.52 29.7 213.48 29.68 214.16 29.36C214.84 29.04 215.04 28.5 215.04 27.46V19.52H209.78V18.32H215.48Z" fill="white"/>
<path d="M222.16 14.18H231.32V16.92H222.16V14.18ZM227.98 23.84H234.5V21.64H227.98V19.18H233.86V11.9H219.78V19.18H225.52V26.26C224.3 25.62 223.28 24.62 222.64 23.04C222.84 22.24 223 21.44 223.12 20.66L220.64 20.38C220.36 23.1 219.48 26.36 217.32 28.06C217.82 28.42 218.64 29.2 219 29.68C220.22 28.68 221.08 27.3 221.74 25.76C223.82 28.82 226.92 29.54 230.94 29.54H235.18C235.3 28.88 235.68 27.78 236 27.24C234.9 27.26 231.94 27.28 231.08 27.26C230 27.26 228.94 27.2 227.98 27.04V23.84Z" fill="white"/>
<path d="M241.54 14.98H255.96V12.86H248.86V11.08H246.38V12.86H239.26V18.46C239.26 21.38 239.14 25.54 237.48 28.38C238.02 28.62 239.02 29.28 239.42 29.68C241.24 26.6 241.54 21.7 241.54 18.46V14.98ZM250.62 18.54V19.86H246.98V18.54H250.62ZM252.98 21.66V18.54H255.86V16.66H252.98V15.34H250.62V16.66H246.98V15.34H244.74V16.66H242.04V18.54H244.74V21.66H252.98ZM251.36 24.32C250.7 24.96 249.88 25.52 248.96 25.96C248.02 25.5 247.22 24.96 246.62 24.32H251.36ZM253.38 22.36L252.96 22.46H242.18V24.32H245.16L244.22 24.66C244.86 25.52 245.64 26.26 246.52 26.88C244.94 27.34 243.18 27.62 241.34 27.78C241.7 28.28 242.12 29.18 242.3 29.78C244.68 29.48 246.92 29 248.88 28.22C250.62 29 252.66 29.52 254.96 29.8C255.26 29.18 255.88 28.26 256.36 27.76C254.56 27.6 252.9 27.32 251.44 26.9C252.88 25.94 254.06 24.7 254.86 23.1L253.38 22.36Z" fill="white"/>
<path d="M18 216H273V217H18V216Z" fill="#121212"/>
<path d="M32 96H132V216H32V96Z" fill="#C4C4C4"/>
<path d="M67.2277 82.52C67.1317 83.312 66.9877 84.032 66.7957 84.68C66.5677 84.008 66.3997 83.276 66.2677 82.52H67.2277ZM62.6677 83.72H62.3197C62.4517 83.576 62.5717 83.432 62.7037 83.276H63.9037C63.7477 83.528 63.5797 83.768 63.4117 83.984L62.9797 83.636L62.6677 83.72ZM61.5877 81.188H62.2357C62.1037 81.392 61.9597 81.596 61.8157 81.788H61.5877V81.188ZM69.6997 82.52V80.912H66.6637C66.8197 80.288 66.9517 79.652 67.0597 79.004L65.2957 78.728C65.1037 80.12 64.7677 81.464 64.2637 82.568V81.788H63.7597C64.1917 81.08 64.5757 80.312 64.8997 79.496L63.2917 79.04C63.0877 79.58 62.8597 80.096 62.5837 80.588V79.736H61.5877V78.74H59.9797V79.736H58.7437V81.188H59.9797V81.788H58.3717V83.276H60.4717C60.3037 83.432 60.1237 83.576 59.9437 83.72H59.3797V84.128C58.9717 84.404 58.5397 84.656 58.0957 84.872C58.4317 85.184 59.0197 85.856 59.2477 86.204C59.8357 85.868 60.3997 85.484 60.9277 85.052H61.5037C61.3597 85.208 61.2157 85.352 61.0717 85.484H60.5677V86.348C59.7037 86.396 58.9117 86.444 58.2517 86.48L58.4197 88.016L60.5677 87.86V88.52C60.5677 88.652 60.5197 88.688 60.3637 88.688C60.2197 88.688 59.6917 88.688 59.2957 88.676C59.4997 89.084 59.7157 89.708 59.7757 90.152C60.5317 90.152 61.1197 90.128 61.5997 89.9C62.0797 89.672 62.1997 89.276 62.1997 88.568V87.728C62.8717 87.68 63.5557 87.632 64.2157 87.572V86.096C63.5557 86.144 62.8717 86.192 62.1997 86.24V86.132C62.7757 85.64 63.3637 85.04 63.8197 84.476C64.1677 84.764 64.5277 85.112 64.7077 85.328C64.8517 85.148 64.9837 84.968 65.1037 84.764C65.2957 85.472 65.5237 86.144 65.7877 86.756C65.1997 87.548 64.4077 88.16 63.3397 88.604C63.6637 88.976 64.1677 89.792 64.3357 90.2C65.3077 89.72 66.0997 89.132 66.7357 88.412C67.2517 89.108 67.8637 89.696 68.6317 90.152C68.8957 89.672 69.4477 88.976 69.8437 88.628C69.0037 88.196 68.3437 87.572 67.8157 86.816C68.4157 85.628 68.7877 84.212 69.0157 82.52H69.6997Z" fill="#333333"/>
<path d="M77.6557 83.156L77.0677 83.54C77.1997 83.648 77.3317 83.756 77.4637 83.876L75.0397 83.912C75.1837 83.672 75.3397 83.42 75.4837 83.156H77.6557ZM79.5877 81.02V81.68H72.3637V81.02H79.5877ZM76.8637 88.292V87.692H80.4877V86.204H76.8637V85.364C77.5597 85.34 78.2677 85.316 78.9757 85.292C79.1917 85.52 79.3717 85.736 79.5037 85.928L80.8717 85.004C80.4397 84.464 79.6477 83.756 78.9037 83.156H79.9597V82.124H81.3757V79.448H76.8637V78.752H75.0637V79.448H70.6597V82.124H72.0637V83.156H73.5277C73.4317 83.408 73.3237 83.684 73.2037 83.936C72.5917 83.936 72.0277 83.948 71.5237 83.948L71.5837 85.496C72.5677 85.472 73.7677 85.448 75.0637 85.412V86.204H71.7277V87.692H75.0637V88.292H70.6837V89.816H81.3877V88.292H76.8637Z" fill="#333333"/>
<path d="M84.3397 82.124H91.6117V83.684H93.3277V80.6H91.8757C92.1757 80.216 92.4757 79.796 92.7757 79.364L90.8677 78.824C90.6637 79.364 90.3157 80.036 89.9557 80.6H88.2997L88.9597 80.348C88.8037 79.868 88.4077 79.172 88.0357 78.668L86.4877 79.244C86.7397 79.652 87.0037 80.168 87.1717 80.6H85.5877L86.0557 80.384C85.8637 79.928 85.3957 79.304 84.9877 78.848L83.4997 79.508C83.7517 79.832 84.0277 80.24 84.2317 80.6H82.7077V83.684H84.3397V82.124ZM93.4237 85.544H89.2957C90.1117 84.98 90.8677 84.284 91.4557 83.624L90.3637 82.784L89.9917 82.868H84.8317V84.368H88.4557C88.2757 84.524 88.0717 84.68 87.8677 84.824H87.1117V85.544H82.6117V87.14H87.1117V88.28C87.1117 88.448 87.0397 88.496 86.7997 88.496C86.5597 88.496 85.6117 88.496 84.9397 88.46C85.2037 88.916 85.5277 89.66 85.6357 90.152C86.6197 90.152 87.4237 90.128 88.0597 89.888C88.7077 89.636 88.8997 89.192 88.8997 88.34V87.14H93.4237V85.544Z" fill="#333333"/>
<path d="M102.424 86.756H97.6717V86.336H102.424V86.756ZM97.6717 88.46V88.04H102.424V88.46H97.6717ZM97.6597 83.204L97.4077 81.968L96.4117 82.304L97.2157 81.26C96.9757 81.044 96.5557 80.78 96.1597 80.564H98.0917V83.204C98.0917 83.324 98.0437 83.372 97.9117 83.372C97.8157 83.372 97.5517 83.372 97.2877 83.372L97.6597 83.204ZM99.5197 84.02C99.6277 83.828 99.6637 83.576 99.6637 83.216V79.232H94.6717V80.564H95.4877L94.8757 81.32C95.3677 81.596 96.0157 82.016 96.3277 82.328C95.5717 82.58 94.8517 82.808 94.3237 82.952L94.9237 84.368C95.5717 84.104 96.3157 83.792 97.0477 83.468C97.2037 83.804 97.3717 84.236 97.4197 84.572C98.0437 84.572 98.5597 84.572 98.9557 84.44C98.8957 84.632 98.8357 84.836 98.7637 85.04H95.9437V90.164H97.6717V89.756H102.424V90.164H104.248V85.04H100.504C100.66 84.776 100.816 84.488 100.96 84.2L99.5197 84.02ZM103.096 81.716C102.784 81.824 102.484 81.92 102.172 82.028L102.784 81.224C102.544 81.02 102.148 80.78 101.752 80.564H103.528V83.144C103.528 83.276 103.468 83.312 103.324 83.324C103.204 83.324 102.784 83.324 102.424 83.312C102.736 83.192 103.048 83.072 103.36 82.952L103.096 81.716ZM105.148 79.232H100.228V80.564H100.96L100.372 81.296C100.804 81.536 101.368 81.884 101.728 82.172C101.02 82.412 100.36 82.616 99.8437 82.76L100.408 84.044C100.972 83.84 101.62 83.6 102.28 83.36C102.46 83.72 102.628 84.224 102.7 84.596C103.48 84.608 104.092 84.596 104.548 84.392C105.004 84.176 105.148 83.84 105.148 83.156V79.232Z" fill="#333333"/>
<path d="M71.9922 159.592H64.5762V156.568L71.5122 146.008H75.4482V156.568H77.6322V159.592H75.4482V163H71.9922V159.592ZM71.9922 150.712H71.9442L68.1762 156.568H71.9922V150.712Z" fill="#333333"/>
<path d="M79.5473 160.936C79.5473 160.632 79.6033 160.344 79.7153 160.072C79.8273 159.8 79.9793 159.568 80.1713 159.376C80.3793 159.168 80.6193 159.008 80.8913 158.896C81.1633 158.784 81.4513 158.728 81.7553 158.728C82.0593 158.728 82.3473 158.784 82.6193 158.896C82.8913 159.008 83.1233 159.168 83.3153 159.376C83.5233 159.568 83.6833 159.8 83.7953 160.072C83.9073 160.344 83.9633 160.632 83.9633 160.936C83.9633 161.24 83.9073 161.528 83.7953 161.8C83.6833 162.072 83.5233 162.312 83.3153 162.52C83.1233 162.712 82.8913 162.864 82.6193 162.976C82.3473 163.088 82.0593 163.144 81.7553 163.144C81.4513 163.144 81.1633 163.088 80.8913 162.976C80.6193 162.864 80.3793 162.712 80.1713 162.52C79.9793 162.312 79.8273 162.072 79.7153 161.8C79.6033 161.528 79.5473 161.24 79.5473 160.936Z" fill="#333333"/>
<path d="M86.4809 159.184L93.0809 153.256C93.4169 152.952 93.7529 152.608 94.0889 152.224C94.4249 151.84 94.5929 151.392 94.5929 150.88C94.5929 150.304 94.3849 149.856 93.9689 149.536C93.5529 149.2 93.0649 149.032 92.5049 149.032C91.8329 149.032 91.3049 149.24 90.9209 149.656C90.5529 150.072 90.3449 150.584 90.2969 151.192L86.6969 150.928C86.7449 150.048 86.9289 149.288 87.2489 148.648C87.5689 147.992 87.9929 147.448 88.5209 147.016C89.0489 146.584 89.6649 146.264 90.3689 146.056C91.0889 145.832 91.8649 145.72 92.6969 145.72C93.4649 145.72 94.1849 145.832 94.8569 146.056C95.5289 146.264 96.1129 146.584 96.6089 147.016C97.1049 147.432 97.4889 147.96 97.7609 148.6C98.0489 149.24 98.1929 149.984 98.1929 150.832C98.1929 151.376 98.1369 151.872 98.0249 152.32C97.9129 152.752 97.7529 153.152 97.5449 153.52C97.3529 153.872 97.1209 154.2 96.8489 154.504C96.5769 154.808 96.2809 155.104 95.9609 155.392L90.8009 159.832H98.3369V163H86.4809V159.184Z" fill="#333333"/>
<path d="M58.8467 231.456L63.2467 227.504C63.4707 227.301 63.6947 227.072 63.9187 226.816C64.1427 226.56 64.2547 226.261 64.2547 225.92C64.2547 225.536 64.116 225.237 63.8387 225.024C63.5613 224.8 63.236 224.688 62.8627 224.688C62.4147 224.688 62.0627 224.827 61.8067 225.104C61.5613 225.381 61.4227 225.723 61.3907 226.128L58.9907 225.952C59.0227 225.365 59.1453 224.859 59.3587 224.432C59.572 223.995 59.8547 223.632 60.2067 223.344C60.5587 223.056 60.9693 222.843 61.4387 222.704C61.9187 222.555 62.436 222.48 62.9907 222.48C63.5027 222.48 63.9827 222.555 64.4307 222.704C64.8787 222.843 65.268 223.056 65.5987 223.344C65.9293 223.621 66.1853 223.973 66.3667 224.4C66.5587 224.827 66.6547 225.323 66.6547 225.888C66.6547 226.251 66.6173 226.581 66.5427 226.88C66.468 227.168 66.3613 227.435 66.2227 227.68C66.0947 227.915 65.94 228.133 65.7587 228.336C65.5773 228.539 65.38 228.736 65.1667 228.928L61.7267 231.888H66.7507V234H58.8467V231.456Z" fill="#121212"/>
<path d="M68.0594 228.336C68.0594 227.664 68.1181 226.981 68.2354 226.288C68.3634 225.595 68.5821 224.965 68.8914 224.4C69.2114 223.835 69.6434 223.376 70.1874 223.024C70.7314 222.661 71.4248 222.48 72.2674 222.48C73.1101 222.48 73.8034 222.661 74.3474 223.024C74.8914 223.376 75.3181 223.835 75.6274 224.4C75.9474 224.965 76.1661 225.595 76.2834 226.288C76.4114 226.981 76.4754 227.664 76.4754 228.336C76.4754 229.008 76.4114 229.691 76.2834 230.384C76.1661 231.077 75.9474 231.707 75.6274 232.272C75.3181 232.837 74.8914 233.301 74.3474 233.664C73.8034 234.016 73.1101 234.192 72.2674 234.192C71.4248 234.192 70.7314 234.016 70.1874 233.664C69.6434 233.301 69.2114 232.837 68.8914 232.272C68.5821 231.707 68.3634 231.077 68.2354 230.384C68.1181 229.691 68.0594 229.008 68.0594 228.336ZM70.4594 228.336C70.4594 228.635 70.4701 228.992 70.4914 229.408C70.5234 229.824 70.5981 230.224 70.7154 230.608C70.8328 230.992 71.0088 231.317 71.2434 231.584C71.4888 231.851 71.8301 231.984 72.2674 231.984C72.6941 231.984 73.0301 231.851 73.2754 231.584C73.5208 231.317 73.7021 230.992 73.8194 230.608C73.9368 230.224 74.0061 229.824 74.0274 229.408C74.0594 228.992 74.0754 228.635 74.0754 228.336C74.0754 228.037 74.0594 227.68 74.0274 227.264C74.0061 226.848 73.9368 226.448 73.8194 226.064C73.7021 225.68 73.5208 225.355 73.2754 225.088C73.0301 224.821 72.6941 224.688 72.2674 224.688C71.8301 224.688 71.4888 224.821 71.2434 225.088C71.0088 225.355 70.8328 225.68 70.7154 226.064C70.5981 226.448 70.5234 226.848 70.4914 227.264C70.4701 227.68 70.4594 228.037 70.4594 228.336Z" fill="#121212"/>
<path d="M81.6082 225.36L79.3362 227.36L77.9762 225.792L81.6722 222.672H83.9122V234H81.6082V225.36Z" fill="#121212"/>
<path d="M91.3489 229.952C91.2209 229.984 91.0929 230.011 90.9649 230.032C90.8369 230.053 90.7036 230.064 90.5649 230.064C90.0316 230.064 89.5463 229.968 89.1089 229.776C88.6716 229.584 88.2983 229.323 87.9889 228.992C87.6796 228.661 87.4396 228.272 87.2689 227.824C87.0983 227.365 87.0129 226.88 87.0129 226.368C87.0129 225.781 87.1196 225.253 87.3329 224.784C87.5569 224.304 87.8556 223.893 88.2289 223.552C88.6129 223.211 89.0609 222.949 89.5729 222.768C90.0849 222.576 90.6396 222.48 91.2369 222.48C91.8236 222.48 92.3729 222.576 92.8849 222.768C93.4076 222.949 93.8556 223.211 94.2289 223.552C94.6129 223.893 94.9116 224.304 95.1249 224.784C95.3489 225.253 95.4609 225.781 95.4609 226.368C95.4609 226.773 95.4236 227.147 95.3489 227.488C95.2743 227.819 95.1729 228.133 95.0449 228.432C94.9276 228.731 94.7836 229.019 94.6129 229.296C94.4529 229.563 94.2823 229.84 94.1009 230.128L91.6209 234H88.6929L91.3489 229.952ZM89.4129 226.464C89.4129 226.976 89.5783 227.403 89.9089 227.744C90.2503 228.075 90.6929 228.24 91.2369 228.24C91.7809 228.24 92.2183 228.075 92.5489 227.744C92.8903 227.403 93.0609 226.976 93.0609 226.464C93.0609 225.952 92.8903 225.531 92.5489 225.2C92.2183 224.859 91.7809 224.688 91.2369 224.688C90.6929 224.688 90.2503 224.859 89.9089 225.2C89.5783 225.531 89.4129 225.952 89.4129 226.464Z" fill="#121212"/>
<path d="M99.6447 231.25V229.886H101.24V231.25H99.6447ZM101.24 227.279V228.401H98.3247C98.5777 228.06 98.8307 227.686 99.0617 227.279H101.24ZM106.542 231.25H102.89V229.886H105.629V228.401H102.89V227.279H105.893V225.739H99.8317C99.9417 225.486 100.041 225.222 100.129 224.969L98.4897 224.551C98.0497 225.948 97.2247 227.345 96.2677 228.17C96.6527 228.401 97.3347 228.929 97.6427 229.215C97.7747 229.083 97.9067 228.929 98.0387 228.775V231.25H96.3337V232.79H101.24V235.045H102.89V232.79H106.542V231.25Z" fill="#121212"/>
<path d="M178.847 231.456L183.247 227.504C183.471 227.301 183.695 227.072 183.919 226.816C184.143 226.56 184.255 226.261 184.255 225.92C184.255 225.536 184.116 225.237 183.839 225.024C183.561 224.8 183.236 224.688 182.863 224.688C182.415 224.688 182.063 224.827 181.807 225.104C181.561 225.381 181.423 225.723 181.391 226.128L178.991 225.952C179.023 225.365 179.145 224.859 179.359 224.432C179.572 223.995 179.855 223.632 180.207 223.344C180.559 223.056 180.969 222.843 181.439 222.704C181.919 222.555 182.436 222.48 182.991 222.48C183.503 222.48 183.983 222.555 184.431 222.704C184.879 222.843 185.268 223.056 185.599 223.344C185.929 223.621 186.185 223.973 186.367 224.4C186.559 224.827 186.655 225.323 186.655 225.888C186.655 226.251 186.617 226.581 186.543 226.88C186.468 227.168 186.361 227.435 186.223 227.68C186.095 227.915 185.94 228.133 185.759 228.336C185.577 228.539 185.38 228.736 185.167 228.928L181.727 231.888H186.751V234H178.847V231.456Z" fill="#11376B"/>
<path d="M188.059 228.336C188.059 227.664 188.118 226.981 188.235 226.288C188.363 225.595 188.582 224.965 188.891 224.4C189.211 223.835 189.643 223.376 190.187 223.024C190.731 222.661 191.425 222.48 192.267 222.48C193.11 222.48 193.803 222.661 194.347 223.024C194.891 223.376 195.318 223.835 195.627 224.4C195.947 224.965 196.166 225.595 196.283 226.288C196.411 226.981 196.475 227.664 196.475 228.336C196.475 229.008 196.411 229.691 196.283 230.384C196.166 231.077 195.947 231.707 195.627 232.272C195.318 232.837 194.891 233.301 194.347 233.664C193.803 234.016 193.11 234.192 192.267 234.192C191.425 234.192 190.731 234.016 190.187 233.664C189.643 233.301 189.211 232.837 188.891 232.272C188.582 231.707 188.363 231.077 188.235 230.384C188.118 229.691 188.059 229.008 188.059 228.336ZM190.459 228.336C190.459 228.635 190.47 228.992 190.491 229.408C190.523 229.824 190.598 230.224 190.715 230.608C190.833 230.992 191.009 231.317 191.243 231.584C191.489 231.851 191.83 231.984 192.267 231.984C192.694 231.984 193.03 231.851 193.275 231.584C193.521 231.317 193.702 230.992 193.819 230.608C193.937 230.224 194.006 229.824 194.027 229.408C194.059 228.992 194.075 228.635 194.075 228.336C194.075 228.037 194.059 227.68 194.027 227.264C194.006 226.848 193.937 226.448 193.819 226.064C193.702 225.68 193.521 225.355 193.275 225.088C193.03 224.821 192.694 224.688 192.267 224.688C191.83 224.688 191.489 224.821 191.243 225.088C191.009 225.355 190.833 225.68 190.715 226.064C190.598 226.448 190.523 226.848 190.491 227.264C190.47 227.68 190.459 228.037 190.459 228.336Z" fill="#11376B"/>
<path d="M197.784 231.456L202.184 227.504C202.408 227.301 202.632 227.072 202.856 226.816C203.08 226.56 203.192 226.261 203.192 225.92C203.192 225.536 203.054 225.237 202.776 225.024C202.499 224.8 202.174 224.688 201.8 224.688C201.352 224.688 201 224.827 200.744 225.104C200.499 225.381 200.36 225.723 200.328 226.128L197.928 225.952C197.96 225.365 198.083 224.859 198.296 224.432C198.51 223.995 198.792 223.632 199.144 223.344C199.496 223.056 199.907 222.843 200.376 222.704C200.856 222.555 201.374 222.48 201.928 222.48C202.44 222.48 202.92 222.555 203.368 222.704C203.816 222.843 204.206 223.056 204.536 223.344C204.867 223.621 205.123 223.973 205.304 224.4C205.496 224.827 205.592 225.323 205.592 225.888C205.592 226.251 205.555 226.581 205.48 226.88C205.406 227.168 205.299 227.435 205.16 227.68C205.032 227.915 204.878 228.133 204.696 228.336C204.515 228.539 204.318 228.736 204.104 228.928L200.664 231.888H205.688V234H197.784V231.456Z" fill="#11376B"/>
<path d="M206.997 228.336C206.997 227.664 207.056 226.981 207.173 226.288C207.301 225.595 207.52 224.965 207.829 224.4C208.149 223.835 208.581 223.376 209.125 223.024C209.669 222.661 210.362 222.48 211.205 222.48C212.048 222.48 212.741 222.661 213.285 223.024C213.829 223.376 214.256 223.835 214.565 224.4C214.885 224.965 215.104 225.595 215.221 226.288C215.349 226.981 215.413 227.664 215.413 228.336C215.413 229.008 215.349 229.691 215.221 230.384C215.104 231.077 214.885 231.707 214.565 232.272C214.256 232.837 213.829 233.301 213.285 233.664C212.741 234.016 212.048 234.192 211.205 234.192C210.362 234.192 209.669 234.016 209.125 233.664C208.581 233.301 208.149 232.837 207.829 232.272C207.52 231.707 207.301 231.077 207.173 230.384C207.056 229.691 206.997 229.008 206.997 228.336ZM209.397 228.336C209.397 228.635 209.408 228.992 209.429 229.408C209.461 229.824 209.536 230.224 209.653 230.608C209.77 230.992 209.946 231.317 210.181 231.584C210.426 231.851 210.768 231.984 211.205 231.984C211.632 231.984 211.968 231.851 212.213 231.584C212.458 231.317 212.64 230.992 212.757 230.608C212.874 230.224 212.944 229.824 212.965 229.408C212.997 228.992 213.013 228.635 213.013 228.336C213.013 228.037 212.997 227.68 212.965 227.264C212.944 226.848 212.874 226.448 212.757 226.064C212.64 225.68 212.458 225.355 212.213 225.088C211.968 224.821 211.632 224.688 211.205 224.688C210.768 224.688 210.426 224.821 210.181 225.088C209.946 225.355 209.77 225.68 209.653 226.064C209.536 226.448 209.461 226.848 209.429 227.264C209.408 227.68 209.397 228.037 209.397 228.336Z" fill="#11376B"/>
<path d="M219.645 231.25V229.886H221.24V231.25H219.645ZM221.24 227.279V228.401H218.325C218.578 228.06 218.831 227.686 219.062 227.279H221.24ZM226.542 231.25H222.89V229.886H225.629V228.401H222.89V227.279H225.893V225.739H219.832C219.942 225.486 220.041 225.222 220.129 224.969L218.49 224.551C218.05 225.948 217.225 227.345 216.268 228.17C216.653 228.401 217.335 228.929 217.643 229.215C217.775 229.083 217.907 228.929 218.039 228.775V231.25H216.334V232.79H221.24V235.045H222.89V232.79H226.542V231.25Z" fill="#11376B"/>
<path d="M152 82H252V216H152V82Z" fill="#11376B"/>
<path d="M168.316 67.296L168.304 66.6C168.292 66.192 168.316 65.664 168.376 65.256H166.324C166.396 65.724 166.432 66.216 166.456 66.6L166.492 67.296H162.748C162.316 67.296 161.632 67.248 161.296 67.2V69.12C161.74 69.096 162.34 69.072 162.796 69.072H165.664C164.704 70.392 162.808 71.904 160.54 72.972L161.872 74.484C163.624 73.56 165.496 72.036 166.576 70.668C166.588 71.676 166.588 72.588 166.588 73.296C166.588 73.644 166.468 73.8 166.192 73.8C165.808 73.8 165.172 73.752 164.644 73.668L164.812 75.552C165.544 75.6 166.192 75.624 166.984 75.624C168.004 75.624 168.484 75.12 168.472 74.268C168.448 72.588 168.4 70.788 168.364 69.072H169.696C170.032 69.072 170.524 69.084 170.956 69.096V67.188C170.644 67.236 170.02 67.296 169.588 67.296H168.316Z" fill="#11376B"/>
<path d="M174.988 65.688L173.608 67.164C174.472 67.776 175.984 69.096 176.62 69.792L178.108 68.268C177.388 67.5 175.816 66.252 174.988 65.688ZM173.212 73.656L174.448 75.576C175.96 75.336 177.52 74.712 178.744 73.992C180.748 72.816 182.452 71.148 183.412 69.444L182.284 67.392C181.48 69.084 179.86 70.944 177.7 72.192C176.524 72.876 174.976 73.416 173.212 73.656Z" fill="#11376B"/>
<path d="M193.744 68.508C193.552 68.592 193.192 68.652 192.736 68.652H187.024C186.616 68.652 186.052 68.616 185.5 68.568V70.44C186.04 70.392 186.724 70.38 187.024 70.38H192.484C192.28 70.932 191.956 71.532 191.368 72.12C190.504 72.984 189.112 73.776 187.24 74.172L188.692 75.816C190.228 75.372 191.788 74.496 192.976 73.164C193.864 72.168 194.368 71.04 194.764 69.888C194.812 69.744 194.932 69.492 195.028 69.312L193.744 68.508ZM186.628 67.512C186.988 67.476 187.564 67.464 187.972 67.464H192.496C192.952 67.464 193.6 67.488 193.936 67.512V65.64C193.588 65.688 192.904 65.712 192.52 65.712H187.972C187.552 65.712 186.964 65.688 186.628 65.64V67.512Z" fill="#11376B"/>
<path d="M203.632 69.096C204.784 68.352 205.828 67.464 206.788 66.528L205.228 65.124C204.544 66.036 203.308 67.104 202.096 67.86C200.752 68.7 198.736 69.576 196.588 70.02L197.62 71.784C198.928 71.436 200.332 70.872 201.544 70.272V73.884C201.544 74.46 201.496 75.3 201.448 75.624H203.752C203.656 75.288 203.632 74.46 203.632 73.884V69.096Z" fill="#11376B"/>
<path d="M210.988 65.688L209.608 67.164C210.472 67.776 211.984 69.096 212.62 69.792L214.108 68.268C213.388 67.5 211.816 66.252 210.988 65.688ZM209.212 73.656L210.448 75.576C211.96 75.336 213.52 74.712 214.744 73.992C216.748 72.816 218.452 71.148 219.412 69.444L218.284 67.392C217.48 69.084 215.86 70.944 213.7 72.192C212.524 72.876 210.976 73.416 209.212 73.656Z" fill="#11376B"/>
<path d="M222.34 68.124H229.612V69.684H231.328V66.6H229.876C230.176 66.216 230.476 65.796 230.776 65.364L228.868 64.824C228.664 65.364 228.316 66.036 227.956 66.6H226.3L226.96 66.348C226.804 65.868 226.408 65.172 226.036 64.668L224.488 65.244C224.74 65.652 225.004 66.168 225.172 66.6H223.588L224.056 66.384C223.864 65.928 223.396 65.304 222.988 64.848L221.5 65.508C221.752 65.832 222.028 66.24 222.232 66.6H220.708V69.684H222.34V68.124ZM231.424 71.544H227.296C228.112 70.98 228.868 70.284 229.456 69.624L228.364 68.784L227.992 68.868H222.832V70.368H226.456C226.276 70.524 226.072 70.68 225.868 70.824H225.112V71.544H220.612V73.14H225.112V74.28C225.112 74.448 225.04 74.496 224.8 74.496C224.56 74.496 223.612 74.496 222.94 74.46C223.204 74.916 223.528 75.66 223.636 76.152C224.62 76.152 225.424 76.128 226.06 75.888C226.708 75.636 226.9 75.192 226.9 74.34V73.14H231.424V71.544Z" fill="#11376B"/>
<path d="M240.424 72.756H235.672V72.336H240.424V72.756ZM235.672 74.46V74.04H240.424V74.46H235.672ZM235.66 69.204L235.408 67.968L234.412 68.304L235.216 67.26C234.976 67.044 234.556 66.78 234.16 66.564H236.092V69.204C236.092 69.324 236.044 69.372 235.912 69.372C235.816 69.372 235.552 69.372 235.288 69.372L235.66 69.204ZM237.52 70.02C237.628 69.828 237.664 69.576 237.664 69.216V65.232H232.672V66.564H233.488L232.876 67.32C233.368 67.596 234.016 68.016 234.328 68.328C233.572 68.58 232.852 68.808 232.324 68.952L232.924 70.368C233.572 70.104 234.316 69.792 235.048 69.468C235.204 69.804 235.372 70.236 235.42 70.572C236.044 70.572 236.56 70.572 236.956 70.44C236.896 70.632 236.836 70.836 236.764 71.04H233.944V76.164H235.672V75.756H240.424V76.164H242.248V71.04H238.504C238.66 70.776 238.816 70.488 238.96 70.2L237.52 70.02ZM241.096 67.716C240.784 67.824 240.484 67.92 240.172 68.028L240.784 67.224C240.544 67.02 240.148 66.78 239.752 66.564H241.528V69.144C241.528 69.276 241.468 69.312 241.324 69.324C241.204 69.324 240.784 69.324 240.424 69.312C240.736 69.192 241.048 69.072 241.36 68.952L241.096 67.716ZM243.148 65.232H238.228V66.564H238.96L238.372 67.296C238.804 67.536 239.368 67.884 239.728 68.172C239.02 68.412 238.36 68.616 237.844 68.76L238.408 70.044C238.972 69.84 239.62 69.6 240.28 69.36C240.46 69.72 240.628 70.224 240.7 70.596C241.48 70.608 242.092 70.596 242.548 70.392C243.004 70.176 243.148 69.84 243.148 69.156V65.232Z" fill="#11376B"/>
<path d="M190.657 153.882H181.696V150.228L190.077 137.468H194.833V150.228H197.472V153.882H194.833V158H190.657V153.882ZM190.657 143.152H190.599L186.046 150.228H190.657V143.152Z" fill="white"/>
<path d="M199.786 155.506C199.786 155.139 199.854 154.791 199.989 154.462C200.125 154.133 200.308 153.853 200.54 153.621C200.792 153.37 201.082 153.176 201.41 153.041C201.739 152.906 202.087 152.838 202.454 152.838C202.822 152.838 203.17 152.906 203.498 153.041C203.827 153.176 204.107 153.37 204.339 153.621C204.591 153.853 204.784 154.133 204.919 154.462C205.055 154.791 205.122 155.139 205.122 155.506C205.122 155.873 205.055 156.221 204.919 156.55C204.784 156.879 204.591 157.169 204.339 157.42C204.107 157.652 203.827 157.836 203.498 157.971C203.17 158.106 202.822 158.174 202.454 158.174C202.087 158.174 201.739 158.106 201.41 157.971C201.082 157.836 200.792 157.652 200.54 157.42C200.308 157.169 200.125 156.879 199.989 156.55C199.854 156.221 199.786 155.873 199.786 155.506Z" fill="white"/>
<path d="M216.4 153.882H207.439V150.228L215.82 137.468H220.576V150.228H223.215V153.882H220.576V158H216.4V153.882ZM216.4 143.152H216.342L211.789 150.228H216.4V143.152Z" fill="white"/>
<path d="M268.607 58.189L269.399 57.837C268.453 56.264 268.013 54.405 268.013 52.557C268.013 50.72 268.453 48.861 269.399 47.277L268.607 46.936C267.584 48.597 266.979 50.39 266.979 52.557C266.979 54.746 267.584 56.517 268.607 58.189Z" fill="#777777"/>
<path d="M274.464 49.334C274.258 49.334 274.108 49.2753 274.013 49.158C273.925 49.0407 273.881 48.8793 273.881 48.674C273.881 48.476 273.925 48.3183 274.013 48.201C274.108 48.0837 274.258 48.025 274.464 48.025C274.676 48.025 274.83 48.0837 274.926 48.201C275.021 48.3183 275.069 48.476 275.069 48.674C275.069 48.8793 275.021 49.0407 274.926 49.158C274.83 49.2753 274.676 49.334 274.464 49.334ZM271.131 56L270.625 55.494L273.991 52.084L270.614 48.685L271.12 48.168L274.508 51.567L277.907 48.179L278.413 48.685L275.025 52.084L278.391 55.505L277.885 56.011L274.508 52.601L271.131 56ZM271.054 52.755C270.878 52.755 270.735 52.7073 270.625 52.612C270.515 52.5093 270.46 52.3443 270.46 52.117C270.46 51.8897 270.515 51.7247 270.625 51.622C270.735 51.5193 270.878 51.468 271.054 51.468C271.237 51.468 271.384 51.5193 271.494 51.622C271.604 51.7247 271.659 51.8897 271.659 52.117C271.659 52.3443 271.604 52.5093 271.494 52.612C271.384 52.7073 271.237 52.755 271.054 52.755ZM277.962 52.755C277.786 52.755 277.643 52.7073 277.533 52.612C277.423 52.5093 277.368 52.3443 277.368 52.117C277.368 51.8897 277.423 51.7247 277.533 51.622C277.643 51.5193 277.786 51.468 277.962 51.468C278.145 51.468 278.292 51.5193 278.402 51.622C278.512 51.7247 278.567 51.8897 278.567 52.117C278.567 52.3443 278.512 52.5093 278.402 52.612C278.292 52.7073 278.145 52.755 277.962 52.755ZM274.464 56.165C274.258 56.165 274.108 56.1063 274.013 55.989C273.925 55.8717 273.881 55.7103 273.881 55.505C273.881 55.307 273.925 55.1493 274.013 55.032C274.108 54.9147 274.258 54.856 274.464 54.856C274.676 54.856 274.83 54.9147 274.926 55.032C275.021 55.1493 275.069 55.307 275.069 55.505C275.069 55.7103 275.021 55.8717 274.926 55.989C274.83 56.1063 274.676 56.165 274.464 56.165Z" fill="#777777"/>
<path d="M279.622 54.878L282.746 51.776C282.856 51.6733 282.962 51.5633 283.065 51.446C283.167 51.3213 283.259 51.193 283.34 51.061C283.42 50.929 283.483 50.7897 283.527 50.643C283.578 50.4963 283.604 50.3423 283.604 50.181C283.604 49.9903 283.567 49.818 283.494 49.664C283.428 49.51 283.332 49.3817 283.208 49.279C283.09 49.169 282.947 49.0847 282.779 49.026C282.617 48.9673 282.445 48.938 282.262 48.938C281.88 48.938 281.565 49.0443 281.316 49.257C281.066 49.4697 280.909 49.763 280.843 50.137L279.699 50.038C279.75 49.6933 279.849 49.3963 279.996 49.147C280.15 48.8903 280.337 48.6777 280.557 48.509C280.784 48.3403 281.041 48.2157 281.327 48.135C281.62 48.0543 281.935 48.014 282.273 48.014C282.61 48.014 282.925 48.0617 283.219 48.157C283.519 48.245 283.78 48.3807 284 48.564C284.227 48.74 284.403 48.9637 284.528 49.235C284.66 49.499 284.726 49.8107 284.726 50.17C284.726 50.4267 284.685 50.6687 284.605 50.896C284.531 51.116 284.432 51.325 284.308 51.523C284.183 51.721 284.04 51.908 283.879 52.084C283.717 52.26 283.549 52.4323 283.373 52.601L280.81 55.076H284.726V56H279.622V54.878Z" fill="#777777"/>
<path d="M286.526 58.189C287.56 56.517 288.165 54.746 288.165 52.557C288.165 50.39 287.56 48.597 286.526 46.936L285.734 47.277C286.68 48.861 287.12 50.72 287.12 52.557C287.12 54.405 286.68 56.264 285.734 57.837L286.526 58.189Z" fill="#777777"/>
</svg>
