<svg width="290" height="236" viewBox="0 0 290 236" fill="none" xmlns="http://www.w3.org/2000/svg">
<path d="M0 0H290V40H0V0Z" fill="#11376B"/>
<path d="M26.1798 15.44L26.1598 14C26.1598 13.38 26.1998 12.6 26.2798 11.98H23.4398C23.5398 12.68 23.5998 13.42 23.6398 14C23.6598 14.44 23.6798 14.92 23.6998 15.44H17.0798C16.3998 15.44 15.4398 15.38 14.8598 15.3V17.96C15.5598 17.92 16.4198 17.88 17.1398 17.88H22.5998C20.9798 20.16 17.6798 22.98 13.7998 24.82L15.6398 26.9C18.7998 25.22 22.0398 22.44 23.7998 20.14C23.8398 22.2 23.8398 24.2 23.8398 25.54C23.8398 26.12 23.6398 26.38 23.1398 26.38C22.4598 26.38 21.3798 26.3 20.4798 26.14L20.6998 28.74C21.8398 28.82 22.9598 28.86 24.1798 28.86C25.6998 28.86 26.4398 28.12 26.4198 26.84C26.3798 24.14 26.2998 20.8 26.2398 17.88H28.8198C29.3598 17.88 30.1198 17.92 30.7598 17.94V15.28C30.2798 15.36 29.3398 15.44 28.6798 15.44H26.1798Z" fill="white"/>
<path d="M37.8198 12.8L35.9398 14.8C37.3998 15.82 39.8998 18 40.9398 19.12L42.9798 17.02C41.8198 15.82 39.2198 13.74 37.8198 12.8ZM35.3198 26.12L36.9998 28.76C39.8198 28.28 42.3998 27.16 44.4198 25.94C47.6398 24 50.2998 21.24 51.8198 18.54L50.2598 15.72C48.9998 18.42 46.3798 21.48 42.9798 23.5C41.0398 24.66 38.4398 25.68 35.3198 26.12Z" fill="white"/>
<path d="M69.6998 17.36C69.4198 17.48 68.8798 17.56 68.2398 17.56H58.3398C57.7198 17.56 56.8598 17.52 56.0198 17.44V20.04C56.8598 19.96 57.8598 19.94 58.3398 19.94H67.9998C67.6398 21.06 67.0198 22.3 65.9398 23.4C64.4198 24.96 62.0198 26.28 58.9998 26.9L60.9998 29.16C63.5598 28.44 66.1198 27.08 68.1398 24.84C69.6398 23.18 70.4998 21.24 71.0998 19.3C71.1798 19.08 71.3398 18.72 71.4798 18.46L69.6998 17.36ZM57.8598 15.24C58.4398 15.2 59.2998 15.18 59.9398 15.18H67.5998C68.3198 15.18 69.2598 15.2 69.7998 15.24V12.66C69.2398 12.74 68.2598 12.76 67.6398 12.76H59.9398C59.2598 12.76 58.4198 12.74 57.8598 12.66V15.24Z" fill="white"/>
<path d="M86.1998 18.08C88.1798 16.8 89.9798 15.3 91.4998 13.78L89.3598 11.84C88.2398 13.32 86.1598 15.1 84.1398 16.36C81.8998 17.74 78.5398 19.22 75.0398 19.98L76.4798 22.42C78.7998 21.78 81.2998 20.74 83.3598 19.7V26.26C83.3598 27.14 83.2998 28.4 83.2198 28.88H86.3798C86.2398 28.38 86.1998 27.14 86.1998 26.26V18.08Z" fill="white"/>
<path d="M99.0198 12.8L97.1398 14.8C98.5998 15.82 101.1 18 102.14 19.12L104.18 17.02C103.02 15.82 100.42 13.74 99.0198 12.8ZM96.5198 26.12L98.1998 28.76C101.02 28.28 103.6 27.16 105.62 25.94C108.84 24 111.5 21.24 113.02 18.54L111.46 15.72C110.2 18.42 107.58 21.48 104.18 23.5C102.24 24.66 99.6398 25.68 96.5198 26.12Z" fill="white"/>
<path d="M118.22 16.32H130.98V19.08H133.32V14.22H130.66C131.22 13.52 131.8 12.74 132.34 11.96L129.76 11.18C129.38 12.12 128.7 13.28 128.04 14.22H125.02L125.98 13.84C125.72 13.04 125.06 11.82 124.42 10.96L122.32 11.72C122.8 12.48 123.3 13.44 123.58 14.22H120.44L121.16 13.88C120.84 13.1 120.04 12.04 119.34 11.26L117.32 12.16C117.8 12.78 118.34 13.56 118.7 14.22H115.98V19.08H118.22V16.32ZM133.52 22.32H126C127.62 21.38 129.18 20.12 130.3 18.9L128.8 17.74L128.28 17.86H119.3V19.92H126.08C125.6 20.32 125.06 20.7 124.54 21.02H123.4V22.32H115.72V24.52H123.4V27.12C123.4 27.4 123.3 27.48 122.88 27.48C122.48 27.5 121 27.5 119.72 27.44C120.08 28.08 120.54 29.08 120.7 29.76C122.4 29.76 123.64 29.72 124.58 29.38C125.56 29.04 125.82 28.42 125.82 27.18V24.52H133.52V22.32Z" fill="white"/>
<path d="M140.94 16.42C139.02 17.08 137.06 17.76 135.76 18.16L136.58 20.1C138 19.52 139.7 18.82 141.3 18.12L140.94 16.42ZM149.36 24.32H140.8V23.16H149.36V24.32ZM140.8 27.26V26.1H149.36V27.26H140.8ZM144.14 19.6C144.26 19.34 144.3 19 144.3 18.56V11.94H136.28V13.78H137.8L136.8 14.98C137.7 15.46 138.82 16.24 139.34 16.8L140.52 15.28C140.04 14.82 139.12 14.22 138.3 13.78H142.16V18.54C142.16 18.74 142.08 18.82 141.86 18.82C141.64 18.82 140.86 18.82 140.18 18.8C140.42 19.26 140.7 19.96 140.78 20.48C142 20.48 142.88 20.48 143.5 20.22L143.56 20.2C143.44 20.56 143.3 20.98 143.14 21.36H138.44V29.78H140.8V29.06H149.36V29.78H151.84V21.36H145.5C145.76 20.92 146.04 20.42 146.28 19.9L144.14 19.6ZM153.34 11.94H145.38V13.78H146.68L145.74 14.96C146.58 15.42 147.68 16.14 148.24 16.7C146.94 17.14 145.72 17.52 144.8 17.8L145.6 19.58C147.08 19.04 148.92 18.36 150.64 17.7L150.28 16C149.66 16.22 149.04 16.42 148.44 16.64L149.52 15.2C149.04 14.78 148.12 14.2 147.3 13.78H151.12V18.48C151.12 18.7 151.04 18.76 150.78 18.78C150.54 18.78 149.66 18.78 148.9 18.74C149.16 19.24 149.44 19.98 149.54 20.54C150.84 20.56 151.8 20.54 152.46 20.24C153.14 19.94 153.34 19.46 153.34 18.5V11.94Z" fill="white"/>
<path d="M160.86 24.4C160.12 24.4 159.32 23.42 159.32 21.42C159.32 19.24 161.06 16.36 164.34 15.68C164.1 17.32 163.74 19.02 163.28 20.48C162.48 23.16 161.68 24.4 160.86 24.4ZM166.3 28.82C171.3 28.06 173.86 25.1 173.86 20.94C173.86 16.62 170.76 13.2 165.86 13.2C160.72 13.2 156.74 17.12 156.74 21.68C156.74 25.02 158.6 27.44 160.78 27.44C162.94 27.44 164.66 25 165.84 21C166.4 19.14 166.74 17.3 167.02 15.62C169.68 16.08 171.16 18.12 171.16 20.86C171.16 23.74 169.2 25.56 166.66 26.16C166.14 26.28 165.58 26.38 164.82 26.48L166.3 28.82Z" fill="white"/>
<path d="M179.42 16.32H192.18V19.08H194.52V14.22H191.86C192.42 13.52 193 12.74 193.54 11.96L190.96 11.18C190.58 12.12 189.9 13.28 189.24 14.22H186.22L187.18 13.84C186.92 13.04 186.26 11.82 185.62 10.96L183.52 11.72C184 12.48 184.5 13.44 184.78 14.22H181.64L182.36 13.88C182.04 13.1 181.24 12.04 180.54 11.26L178.52 12.16C179 12.78 179.54 13.56 179.9 14.22H177.18V19.08H179.42V16.32ZM194.72 22.32H187.2C188.82 21.38 190.38 20.12 191.5 18.9L190 17.74L189.48 17.86H180.5V19.92H187.28C186.8 20.32 186.26 20.7 185.74 21.02H184.6V22.32H176.92V24.52H184.6V27.12C184.6 27.4 184.5 27.48 184.08 27.48C183.68 27.5 182.2 27.5 180.92 27.44C181.28 28.08 181.74 29.08 181.9 29.76C183.6 29.76 184.84 29.72 185.78 29.38C186.76 29.04 187.02 28.42 187.02 27.18V24.52H194.72V22.32Z" fill="white"/>
<path d="M202.14 16.42C200.22 17.08 198.26 17.76 196.96 18.16L197.78 20.1C199.2 19.52 200.9 18.82 202.5 18.12L202.14 16.42ZM210.56 24.32H202V23.16H210.56V24.32ZM202 27.26V26.1H210.56V27.26H202ZM205.34 19.6C205.46 19.34 205.5 19 205.5 18.56V11.94H197.48V13.78H199L198 14.98C198.9 15.46 200.02 16.24 200.54 16.8L201.72 15.28C201.24 14.82 200.32 14.22 199.5 13.78H203.36V18.54C203.36 18.74 203.28 18.82 203.06 18.82C202.84 18.82 202.06 18.82 201.38 18.8C201.62 19.26 201.9 19.96 201.98 20.48C203.2 20.48 204.08 20.48 204.7 20.22L204.76 20.2C204.64 20.56 204.5 20.98 204.34 21.36H199.64V29.78H202V29.06H210.56V29.78H213.04V21.36H206.7C206.96 20.92 207.24 20.42 207.48 19.9L205.34 19.6ZM214.54 11.94H206.58V13.78H207.88L206.94 14.96C207.78 15.42 208.88 16.14 209.44 16.7C208.14 17.14 206.92 17.52 206 17.8L206.8 19.58C208.28 19.04 210.12 18.36 211.84 17.7L211.48 16C210.86 16.22 210.24 16.42 209.64 16.64L210.72 15.2C210.24 14.78 209.32 14.2 208.5 13.78H212.32V18.48C212.32 18.7 212.24 18.76 211.98 18.78C211.74 18.78 210.86 18.78 210.1 18.74C210.36 19.24 210.64 19.98 210.74 20.54C212.04 20.56 213 20.54 213.66 20.24C214.34 19.94 214.54 19.46 214.54 18.5V11.94Z" fill="white"/>
<path d="M220.48 15.22H232.6V17.72H235.14V13H227.8V11.08H225.28V13H218.06V17.72H220.48V15.22ZM231.7 18.86V16.7H221.4V18.86H231.7ZM230.88 27.28C230.16 27.28 230.04 27.2 230.04 26.56V22.54H235.52V20.3H217.7V22.54H222.44C222.14 25.02 221.42 26.74 217.14 27.66C217.66 28.18 218.28 29.16 218.52 29.78C223.54 28.46 224.64 25.98 225.04 22.54H227.64V26.6C227.64 28.76 228.2 29.44 230.52 29.44H233.08C234.98 29.44 235.58 28.68 235.84 25.78C235.22 25.62 234.18 25.24 233.7 24.88C233.62 26.94 233.52 27.28 232.86 27.28H230.88Z" fill="white"/>
<path d="M253.28 12.3L252.7 12.46H239.06V14.8H250.66C249.66 15.88 248.42 17 247.2 17.86H245.86V26.92C245.86 27.26 245.72 27.36 245.28 27.36C244.82 27.38 243.18 27.38 241.78 27.3C242.14 27.98 242.58 29.02 242.72 29.74C244.64 29.74 246.06 29.7 247.06 29.34C248.04 28.98 248.38 28.34 248.38 26.96V19.86C250.8 18.34 253.38 15.84 255.14 13.68L253.28 12.3Z" fill="white"/>
<path d="M263.6 20.9L263.24 19.42C261.4 20.14 259.48 20.88 258.22 21.28L259.34 23.2C260.42 22.72 261.74 22.1 263 21.48L263.24 22.86C265.16 22.72 267.6 22.54 270.02 22.32C270.2 22.68 270.34 23.02 270.44 23.32L272.24 22.52C272.1 22.1 271.86 21.6 271.56 21.08C272.78 21.78 274.06 22.66 274.74 23.26L276.46 21.84C275.52 21.06 273.66 19.96 272.28 19.28L271.06 20.26C270.74 19.78 270.38 19.3 270.06 18.88L268.38 19.58C268.62 19.92 268.88 20.28 269.1 20.66L267.04 20.76C268.32 19.56 269.66 18.16 270.76 16.86L268.9 16C268.4 16.72 267.78 17.52 267.08 18.34C266.78 18.1 266.44 17.86 266.08 17.6C266.66 16.92 267.32 16.1 267.94 15.3L267.5 15.14H275.78V13.02H268.56V11.08H266.12V13.02H259.08V15.14H265.62C265.34 15.64 265.02 16.18 264.68 16.68L264.2 16.38L263.28 17.5C262.54 16.88 261.32 16.1 260.4 15.6L258.82 16.9C259.88 17.5 261.2 18.46 261.82 19.1L263.28 17.88C264.12 18.42 265.08 19.12 265.8 19.74C265.42 20.12 265.04 20.5 264.66 20.86L263.6 20.9ZM272.84 18.88C273.74 18.26 274.9 17.36 275.92 16.42L273.8 15.4C273.12 16.22 272 17.26 271.1 17.94L272.84 18.88ZM268.56 22.7H266.12V23.98H258.44V26.18H266.12V29.74H268.56V26.18H276.4V23.98H268.56V22.7Z" fill="white"/>
<path d="M18 216H273V217H18V216Z" fill="#121212"/>
<path d="M32 89H132V216H32V89Z" fill="#C4C4C4"/>
<path d="M67.2277 75.52C67.1317 76.312 66.9877 77.032 66.7957 77.68C66.5677 77.008 66.3997 76.276 66.2677 75.52H67.2277ZM62.6677 76.72H62.3197C62.4517 76.576 62.5717 76.432 62.7037 76.276H63.9037C63.7477 76.528 63.5797 76.768 63.4117 76.984L62.9797 76.636L62.6677 76.72ZM61.5877 74.188H62.2357C62.1037 74.392 61.9597 74.596 61.8157 74.788H61.5877V74.188ZM69.6997 75.52V73.912H66.6637C66.8197 73.288 66.9517 72.652 67.0597 72.004L65.2957 71.728C65.1037 73.12 64.7677 74.464 64.2637 75.568V74.788H63.7597C64.1917 74.08 64.5757 73.312 64.8997 72.496L63.2917 72.04C63.0877 72.58 62.8597 73.096 62.5837 73.588V72.736H61.5877V71.74H59.9797V72.736H58.7437V74.188H59.9797V74.788H58.3717V76.276H60.4717C60.3037 76.432 60.1237 76.576 59.9437 76.72H59.3797V77.128C58.9717 77.404 58.5397 77.656 58.0957 77.872C58.4317 78.184 59.0197 78.856 59.2477 79.204C59.8357 78.868 60.3997 78.484 60.9277 78.052H61.5037C61.3597 78.208 61.2157 78.352 61.0717 78.484H60.5677V79.348C59.7037 79.396 58.9117 79.444 58.2517 79.48L58.4197 81.016L60.5677 80.86V81.52C60.5677 81.652 60.5197 81.688 60.3637 81.688C60.2197 81.688 59.6917 81.688 59.2957 81.676C59.4997 82.084 59.7157 82.708 59.7757 83.152C60.5317 83.152 61.1197 83.128 61.5997 82.9C62.0797 82.672 62.1997 82.276 62.1997 81.568V80.728C62.8717 80.68 63.5557 80.632 64.2157 80.572V79.096C63.5557 79.144 62.8717 79.192 62.1997 79.24V79.132C62.7757 78.64 63.3637 78.04 63.8197 77.476C64.1677 77.764 64.5277 78.112 64.7077 78.328C64.8517 78.148 64.9837 77.968 65.1037 77.764C65.2957 78.472 65.5237 79.144 65.7877 79.756C65.1997 80.548 64.4077 81.16 63.3397 81.604C63.6637 81.976 64.1677 82.792 64.3357 83.2C65.3077 82.72 66.0997 82.132 66.7357 81.412C67.2517 82.108 67.8637 82.696 68.6317 83.152C68.8957 82.672 69.4477 81.976 69.8437 81.628C69.0037 81.196 68.3437 80.572 67.8157 79.816C68.4157 78.628 68.7877 77.212 69.0157 75.52H69.6997Z" fill="#333333"/>
<path d="M77.6557 76.156L77.0677 76.54C77.1997 76.648 77.3317 76.756 77.4637 76.876L75.0397 76.912C75.1837 76.672 75.3397 76.42 75.4837 76.156H77.6557ZM79.5877 74.02V74.68H72.3637V74.02H79.5877ZM76.8637 81.292V80.692H80.4877V79.204H76.8637V78.364C77.5597 78.34 78.2677 78.316 78.9757 78.292C79.1917 78.52 79.3717 78.736 79.5037 78.928L80.8717 78.004C80.4397 77.464 79.6477 76.756 78.9037 76.156H79.9597V75.124H81.3757V72.448H76.8637V71.752H75.0637V72.448H70.6597V75.124H72.0637V76.156H73.5277C73.4317 76.408 73.3237 76.684 73.2037 76.936C72.5917 76.936 72.0277 76.948 71.5237 76.948L71.5837 78.496C72.5677 78.472 73.7677 78.448 75.0637 78.412V79.204H71.7277V80.692H75.0637V81.292H70.6837V82.816H81.3877V81.292H76.8637Z" fill="#333333"/>
<path d="M84.3397 75.124H91.6117V76.684H93.3277V73.6H91.8757C92.1757 73.216 92.4757 72.796 92.7757 72.364L90.8677 71.824C90.6637 72.364 90.3157 73.036 89.9557 73.6H88.2997L88.9597 73.348C88.8037 72.868 88.4077 72.172 88.0357 71.668L86.4877 72.244C86.7397 72.652 87.0037 73.168 87.1717 73.6H85.5877L86.0557 73.384C85.8637 72.928 85.3957 72.304 84.9877 71.848L83.4997 72.508C83.7517 72.832 84.0277 73.24 84.2317 73.6H82.7077V76.684H84.3397V75.124ZM93.4237 78.544H89.2957C90.1117 77.98 90.8677 77.284 91.4557 76.624L90.3637 75.784L89.9917 75.868H84.8317V77.368H88.4557C88.2757 77.524 88.0717 77.68 87.8677 77.824H87.1117V78.544H82.6117V80.14H87.1117V81.28C87.1117 81.448 87.0397 81.496 86.7997 81.496C86.5597 81.496 85.6117 81.496 84.9397 81.46C85.2037 81.916 85.5277 82.66 85.6357 83.152C86.6197 83.152 87.4237 83.128 88.0597 82.888C88.7077 82.636 88.8997 82.192 88.8997 81.34V80.14H93.4237V78.544Z" fill="#333333"/>
<path d="M102.424 79.756H97.6717V79.336H102.424V79.756ZM97.6717 81.46V81.04H102.424V81.46H97.6717ZM97.6597 76.204L97.4077 74.968L96.4117 75.304L97.2157 74.26C96.9757 74.044 96.5557 73.78 96.1597 73.564H98.0917V76.204C98.0917 76.324 98.0437 76.372 97.9117 76.372C97.8157 76.372 97.5517 76.372 97.2877 76.372L97.6597 76.204ZM99.5197 77.02C99.6277 76.828 99.6637 76.576 99.6637 76.216V72.232H94.6717V73.564H95.4877L94.8757 74.32C95.3677 74.596 96.0157 75.016 96.3277 75.328C95.5717 75.58 94.8517 75.808 94.3237 75.952L94.9237 77.368C95.5717 77.104 96.3157 76.792 97.0477 76.468C97.2037 76.804 97.3717 77.236 97.4197 77.572C98.0437 77.572 98.5597 77.572 98.9557 77.44C98.8957 77.632 98.8357 77.836 98.7637 78.04H95.9437V83.164H97.6717V82.756H102.424V83.164H104.248V78.04H100.504C100.66 77.776 100.816 77.488 100.96 77.2L99.5197 77.02ZM103.096 74.716C102.784 74.824 102.484 74.92 102.172 75.028L102.784 74.224C102.544 74.02 102.148 73.78 101.752 73.564H103.528V76.144C103.528 76.276 103.468 76.312 103.324 76.324C103.204 76.324 102.784 76.324 102.424 76.312C102.736 76.192 103.048 76.072 103.36 75.952L103.096 74.716ZM105.148 72.232H100.228V73.564H100.96L100.372 74.296C100.804 74.536 101.368 74.884 101.728 75.172C101.02 75.412 100.36 75.616 99.8437 75.76L100.408 77.044C100.972 76.84 101.62 76.6 102.28 76.36C102.46 76.72 102.628 77.224 102.7 77.596C103.48 77.608 104.092 77.596 104.548 77.392C105.004 77.176 105.148 76.84 105.148 76.156V72.232Z" fill="#333333"/>
<path d="M53.2393 151.975C53.2393 151.289 53.3653 150.694 53.6173 150.19C53.8833 149.672 54.2403 149.245 54.6883 148.909C55.1503 148.559 55.6823 148.3 56.2843 148.132C56.8863 147.964 57.5303 147.88 58.2163 147.88C58.9023 147.88 59.5463 147.964 60.1483 148.132C60.7503 148.3 61.2753 148.559 61.7233 148.909C62.1713 149.245 62.5283 149.672 62.7943 150.19C63.0603 150.694 63.1933 151.289 63.1933 151.975C63.1933 152.787 62.9693 153.48 62.5213 154.054C62.0873 154.628 61.4713 155.034 60.6733 155.272V155.314C61.5693 155.552 62.2553 155.986 62.7313 156.616C63.2073 157.232 63.4453 158.002 63.4453 158.926C63.4453 159.64 63.2983 160.27 63.0043 160.816C62.7243 161.362 62.3393 161.817 61.8493 162.181C61.3733 162.531 60.8203 162.797 60.1903 162.979C59.5603 163.161 58.9023 163.252 58.2163 163.252C57.5303 163.252 56.8723 163.161 56.2423 162.979C55.6123 162.797 55.0523 162.531 54.5623 162.181C54.0863 161.817 53.7013 161.362 53.4073 160.816C53.1273 160.27 52.9873 159.64 52.9873 158.926C52.9873 158.002 53.2253 157.232 53.7013 156.616C54.1773 155.986 54.8633 155.552 55.7593 155.314V155.272C54.9613 155.034 54.3383 154.628 53.8903 154.054C53.4563 153.48 53.2393 152.787 53.2393 151.975ZM56.3893 152.416C56.3893 152.878 56.5573 153.27 56.8933 153.592C57.2293 153.914 57.6703 154.075 58.2163 154.075C58.7623 154.075 59.2033 153.914 59.5393 153.592C59.8753 153.27 60.0433 152.878 60.0433 152.416C60.0433 151.968 59.8753 151.583 59.5393 151.261C59.2033 150.939 58.7623 150.778 58.2163 150.778C57.6703 150.778 57.2293 150.939 56.8933 151.261C56.5573 151.583 56.3893 151.968 56.3893 152.416ZM56.1373 158.485C56.1373 159.003 56.3263 159.444 56.7043 159.808C57.0823 160.172 57.5863 160.354 58.2163 160.354C58.8463 160.354 59.3503 160.172 59.7283 159.808C60.1063 159.444 60.2953 159.003 60.2953 158.485C60.2953 157.953 60.1063 157.505 59.7283 157.141C59.3503 156.777 58.8463 156.595 58.2163 156.595C57.5863 156.595 57.0823 156.777 56.7043 157.141C56.3263 157.505 56.1373 157.953 56.1373 158.485Z" fill="#333333"/>
<path d="M70.833 157.687C70.665 157.729 70.497 157.764 70.329 157.792C70.161 157.82 69.986 157.834 69.804 157.834C69.104 157.834 68.467 157.708 67.893 157.456C67.319 157.204 66.829 156.861 66.423 156.427C66.017 155.993 65.702 155.482 65.478 154.894C65.254 154.292 65.142 153.655 65.142 152.983C65.142 152.213 65.282 151.52 65.562 150.904C65.856 150.274 66.248 149.735 66.738 149.287C67.242 148.839 67.83 148.496 68.502 148.258C69.174 148.006 69.902 147.88 70.686 147.88C71.456 147.88 72.177 148.006 72.849 148.258C73.535 148.496 74.123 148.839 74.613 149.287C75.117 149.735 75.509 150.274 75.789 150.904C76.083 151.52 76.23 152.213 76.23 152.983C76.23 153.515 76.181 154.005 76.083 154.453C75.985 154.887 75.852 155.3 75.684 155.692C75.53 156.084 75.341 156.462 75.117 156.826C74.907 157.176 74.683 157.54 74.445 157.918L71.19 163H67.347L70.833 157.687ZM68.292 153.109C68.292 153.781 68.509 154.341 68.943 154.789C69.391 155.223 69.972 155.44 70.686 155.44C71.4 155.44 71.974 155.223 72.408 154.789C72.856 154.341 73.08 153.781 73.08 153.109C73.08 152.437 72.856 151.884 72.408 151.45C71.974 151.002 71.4 150.778 70.686 150.778C69.972 150.778 69.391 151.002 68.943 151.45C68.509 151.884 68.292 152.437 68.292 153.109Z" fill="#333333"/>
<path d="M78.0318 161.194C78.0318 160.928 78.0808 160.676 78.1788 160.438C78.2768 160.2 78.4098 159.997 78.5778 159.829C78.7598 159.647 78.9698 159.507 79.2078 159.409C79.4458 159.311 79.6978 159.262 79.9638 159.262C80.2298 159.262 80.4818 159.311 80.7198 159.409C80.9578 159.507 81.1608 159.647 81.3288 159.829C81.5108 159.997 81.6508 160.2 81.7488 160.438C81.8468 160.676 81.8958 160.928 81.8958 161.194C81.8958 161.46 81.8468 161.712 81.7488 161.95C81.6508 162.188 81.5108 162.398 81.3288 162.58C81.1608 162.748 80.9578 162.881 80.7198 162.979C80.4818 163.077 80.2298 163.126 79.9638 163.126C79.6978 163.126 79.4458 163.077 79.2078 162.979C78.9698 162.881 78.7598 162.748 78.5778 162.58C78.4098 162.398 78.2768 162.188 78.1788 161.95C78.0808 161.712 78.0318 161.46 78.0318 161.194Z" fill="#333333"/>
<path d="M89.0966 153.445C89.2646 153.403 89.4326 153.368 89.6006 153.34C89.7686 153.312 89.9436 153.298 90.1256 153.298C90.8256 153.298 91.4626 153.424 92.0366 153.676C92.6106 153.928 93.1006 154.271 93.5066 154.705C93.9126 155.139 94.2276 155.657 94.4516 156.259C94.6756 156.847 94.7876 157.477 94.7876 158.149C94.7876 158.919 94.6406 159.619 94.3466 160.249C94.0666 160.865 93.6746 161.397 93.1706 161.845C92.6806 162.293 92.0926 162.643 91.4066 162.895C90.7346 163.133 90.0136 163.252 89.2436 163.252C88.4596 163.252 87.7316 163.133 87.0596 162.895C86.3876 162.643 85.7996 162.293 85.2956 161.845C84.8056 161.397 84.4136 160.865 84.1196 160.249C83.8396 159.619 83.6996 158.919 83.6996 158.149C83.6996 157.617 83.7486 157.134 83.8466 156.7C83.9446 156.252 84.0706 155.832 84.2246 155.44C84.3926 155.048 84.5816 154.677 84.7916 154.327C85.0156 153.963 85.2466 153.592 85.4846 153.214L88.7396 148.132H92.5826L89.0966 153.445ZM91.6376 158.023C91.6376 157.351 91.4136 156.798 90.9656 156.364C90.5316 155.916 89.9576 155.692 89.2436 155.692C88.5296 155.692 87.9486 155.916 87.5006 156.364C87.0666 156.798 86.8496 157.351 86.8496 158.023C86.8496 158.695 87.0666 159.255 87.5006 159.703C87.9486 160.137 88.5296 160.354 89.2436 160.354C89.9576 160.354 90.5316 160.137 90.9656 159.703C91.4136 159.255 91.6376 158.695 91.6376 158.023Z" fill="#333333"/>
<path d="M104.78 160.008C104.78 159.571 104.86 159.16 105.02 158.776C105.191 158.392 105.415 158.056 105.692 157.768C105.98 157.48 106.316 157.256 106.7 157.096C107.084 156.925 107.495 156.84 107.932 156.84C108.37 156.84 108.78 156.925 109.164 157.096C109.548 157.256 109.879 157.48 110.156 157.768C110.444 158.056 110.668 158.392 110.828 158.776C110.999 159.16 111.084 159.571 111.084 160.008C111.084 160.445 110.999 160.861 110.828 161.256C110.668 161.64 110.444 161.976 110.156 162.264C109.879 162.552 109.548 162.781 109.164 162.952C108.78 163.112 108.37 163.192 107.932 163.192C107.495 163.192 107.084 163.112 106.7 162.952C106.316 162.781 105.98 162.552 105.692 162.264C105.415 161.976 105.191 161.64 105.02 161.256C104.86 160.861 104.78 160.445 104.78 160.008ZM109.452 160.008C109.452 159.581 109.303 159.219 109.004 158.92C108.716 158.621 108.359 158.472 107.932 158.472C107.506 158.472 107.143 158.621 106.844 158.92C106.556 159.219 106.412 159.581 106.412 160.008C106.412 160.445 106.556 160.813 106.844 161.112C107.143 161.411 107.506 161.56 107.932 161.56C108.359 161.56 108.716 161.411 109.004 161.112C109.303 160.813 109.452 160.445 109.452 160.008ZM96.7324 154.648C96.7324 154.211 96.8124 153.8 96.9724 153.416C97.143 153.032 97.367 152.696 97.6444 152.408C97.9324 152.12 98.2684 151.896 98.6524 151.736C99.0364 151.565 99.447 151.48 99.8844 151.48C100.322 151.48 100.732 151.565 101.116 151.736C101.5 151.896 101.831 152.12 102.108 152.408C102.396 152.696 102.62 153.032 102.78 153.416C102.951 153.8 103.036 154.211 103.036 154.648C103.036 155.085 102.951 155.496 102.78 155.88C102.62 156.264 102.396 156.6 102.108 156.888C101.831 157.176 101.5 157.405 101.116 157.576C100.732 157.736 100.322 157.816 99.8844 157.816C99.447 157.816 99.0364 157.736 98.6524 157.576C98.2684 157.405 97.9324 157.176 97.6444 156.888C97.367 156.6 97.143 156.264 96.9724 155.88C96.8124 155.496 96.7324 155.085 96.7324 154.648ZM101.404 154.648C101.404 154.221 101.255 153.859 100.956 153.56C100.668 153.261 100.311 153.112 99.8844 153.112C99.4577 153.112 99.095 153.261 98.7964 153.56C98.5084 153.859 98.3644 154.221 98.3644 154.648C98.3644 155.075 98.5084 155.437 98.7964 155.736C99.095 156.035 99.4577 156.184 99.8844 156.184C100.311 156.184 100.668 156.035 100.956 155.736C101.255 155.437 101.404 155.075 101.404 154.648ZM106.492 151.16L107.836 151.912L101.228 163.512L100.012 162.824L106.492 151.16Z" fill="#333333"/>
<path d="M62.6388 225.36L60.3668 227.36L59.0068 225.792L62.7028 222.672H64.9428V234H62.6388V225.36Z" fill="#121212"/>
<path d="M74.7796 228.608C75.8676 229.792 77.0356 230.368 78.5556 230.368C80.2676 230.368 81.8356 229.408 82.9076 227.424L81.1476 226.464C80.5396 227.6 79.6276 228.384 78.6036 228.384C77.4996 228.384 76.9076 227.968 76.2196 227.232C75.1316 226.048 73.9636 225.472 72.4436 225.472C70.7316 225.472 69.1636 226.432 68.0916 228.416L69.8516 229.376C70.4596 228.24 71.3716 227.456 72.3956 227.456C73.5156 227.456 74.0916 227.888 74.7796 228.608Z" fill="#121212"/>
<path d="M86.9556 227.136H87.7396C87.9636 227.136 88.1823 227.12 88.3956 227.088C88.6089 227.056 88.8009 226.997 88.9716 226.912C89.1529 226.816 89.2969 226.688 89.4036 226.528C89.5103 226.357 89.5636 226.139 89.5636 225.872C89.5636 225.531 89.4249 225.248 89.1476 225.024C88.8809 224.8 88.5503 224.688 88.1556 224.688C87.7823 224.688 87.4729 224.789 87.2276 224.992C86.9823 225.195 86.8223 225.445 86.7476 225.744L84.1076 225.2C84.2356 224.709 84.4276 224.293 84.6836 223.952C84.9396 223.6 85.2436 223.317 85.5956 223.104C85.9476 222.891 86.3369 222.736 86.7636 222.64C87.2009 222.533 87.6596 222.48 88.1396 222.48C88.6409 222.48 89.1209 222.544 89.5796 222.672C90.0489 222.789 90.4596 222.981 90.8116 223.248C91.1636 223.504 91.4409 223.829 91.6436 224.224C91.8569 224.619 91.9636 225.088 91.9636 225.632C91.9636 226.261 91.7983 226.8 91.4676 227.248C91.1369 227.696 90.6569 227.984 90.0276 228.112V228.16C90.3689 228.203 90.6676 228.304 90.9236 228.464C91.1903 228.624 91.4143 228.821 91.5956 229.056C91.7769 229.291 91.9156 229.557 92.0116 229.856C92.1076 230.155 92.1556 230.469 92.1556 230.8C92.1556 231.365 92.0436 231.861 91.8196 232.288C91.6063 232.715 91.3129 233.072 90.9396 233.36C90.5769 233.637 90.1449 233.845 89.6436 233.984C89.1529 234.123 88.6303 234.192 88.0756 234.192C87.0623 234.192 86.1876 233.957 85.4516 233.488C84.7263 233.019 84.2463 232.277 84.0116 231.264L86.5396 230.672C86.6249 231.077 86.7956 231.397 87.0516 231.632C87.3183 231.867 87.7076 231.984 88.2196 231.984C88.7423 231.984 89.1263 231.851 89.3716 231.584C89.6276 231.307 89.7556 230.955 89.7556 230.528C89.7556 230.208 89.6863 229.963 89.5476 229.792C89.4196 229.611 89.2489 229.477 89.0356 229.392C88.8223 229.307 88.5823 229.259 88.3156 229.248C88.0489 229.227 87.7823 229.216 87.5156 229.216H86.9556V227.136Z" fill="#121212"/>
<path d="M98.5195 229.271C98.5525 228.908 98.5745 228.545 98.5855 228.215H102.667V229.271H98.5195ZM102.667 225.641V226.697H98.5855V225.641H102.667ZM104.372 224.079H96.9355V227.852C96.9355 229.491 96.8035 231.548 95.1865 232.89C95.5385 233.11 96.1875 233.715 96.4295 234.045C97.4305 233.22 97.9805 232.043 98.2775 230.822H102.667V232.087C102.667 232.307 102.579 232.395 102.326 232.395C102.062 232.395 101.138 232.406 100.434 232.351C100.687 232.78 101.006 233.561 101.094 234.034C102.216 234.034 103.019 234.001 103.602 233.726C104.163 233.462 104.372 233.011 104.372 232.109V224.079Z" fill="#121212"/>
<path d="M152 82H252V216H152V82Z" fill="#11376B"/>
<path d="M168.316 67.296L168.304 66.6C168.292 66.192 168.316 65.664 168.376 65.256H166.324C166.396 65.724 166.432 66.216 166.456 66.6L166.492 67.296H162.748C162.316 67.296 161.632 67.248 161.296 67.2V69.12C161.74 69.096 162.34 69.072 162.796 69.072H165.664C164.704 70.392 162.808 71.904 160.54 72.972L161.872 74.484C163.624 73.56 165.496 72.036 166.576 70.668C166.588 71.676 166.588 72.588 166.588 73.296C166.588 73.644 166.468 73.8 166.192 73.8C165.808 73.8 165.172 73.752 164.644 73.668L164.812 75.552C165.544 75.6 166.192 75.624 166.984 75.624C168.004 75.624 168.484 75.12 168.472 74.268C168.448 72.588 168.4 70.788 168.364 69.072H169.696C170.032 69.072 170.524 69.084 170.956 69.096V67.188C170.644 67.236 170.02 67.296 169.588 67.296H168.316Z" fill="#11376B"/>
<path d="M174.988 65.688L173.608 67.164C174.472 67.776 175.984 69.096 176.62 69.792L178.108 68.268C177.388 67.5 175.816 66.252 174.988 65.688ZM173.212 73.656L174.448 75.576C175.96 75.336 177.52 74.712 178.744 73.992C180.748 72.816 182.452 71.148 183.412 69.444L182.284 67.392C181.48 69.084 179.86 70.944 177.7 72.192C176.524 72.876 174.976 73.416 173.212 73.656Z" fill="#11376B"/>
<path d="M193.744 68.508C193.552 68.592 193.192 68.652 192.736 68.652H187.024C186.616 68.652 186.052 68.616 185.5 68.568V70.44C186.04 70.392 186.724 70.38 187.024 70.38H192.484C192.28 70.932 191.956 71.532 191.368 72.12C190.504 72.984 189.112 73.776 187.24 74.172L188.692 75.816C190.228 75.372 191.788 74.496 192.976 73.164C193.864 72.168 194.368 71.04 194.764 69.888C194.812 69.744 194.932 69.492 195.028 69.312L193.744 68.508ZM186.628 67.512C186.988 67.476 187.564 67.464 187.972 67.464H192.496C192.952 67.464 193.6 67.488 193.936 67.512V65.64C193.588 65.688 192.904 65.712 192.52 65.712H187.972C187.552 65.712 186.964 65.688 186.628 65.64V67.512Z" fill="#11376B"/>
<path d="M203.632 69.096C204.784 68.352 205.828 67.464 206.788 66.528L205.228 65.124C204.544 66.036 203.308 67.104 202.096 67.86C200.752 68.7 198.736 69.576 196.588 70.02L197.62 71.784C198.928 71.436 200.332 70.872 201.544 70.272V73.884C201.544 74.46 201.496 75.3 201.448 75.624H203.752C203.656 75.288 203.632 74.46 203.632 73.884V69.096Z" fill="#11376B"/>
<path d="M210.988 65.688L209.608 67.164C210.472 67.776 211.984 69.096 212.62 69.792L214.108 68.268C213.388 67.5 211.816 66.252 210.988 65.688ZM209.212 73.656L210.448 75.576C211.96 75.336 213.52 74.712 214.744 73.992C216.748 72.816 218.452 71.148 219.412 69.444L218.284 67.392C217.48 69.084 215.86 70.944 213.7 72.192C212.524 72.876 210.976 73.416 209.212 73.656Z" fill="#11376B"/>
<path d="M222.34 68.124H229.612V69.684H231.328V66.6H229.876C230.176 66.216 230.476 65.796 230.776 65.364L228.868 64.824C228.664 65.364 228.316 66.036 227.956 66.6H226.3L226.96 66.348C226.804 65.868 226.408 65.172 226.036 64.668L224.488 65.244C224.74 65.652 225.004 66.168 225.172 66.6H223.588L224.056 66.384C223.864 65.928 223.396 65.304 222.988 64.848L221.5 65.508C221.752 65.832 222.028 66.24 222.232 66.6H220.708V69.684H222.34V68.124ZM231.424 71.544H227.296C228.112 70.98 228.868 70.284 229.456 69.624L228.364 68.784L227.992 68.868H222.832V70.368H226.456C226.276 70.524 226.072 70.68 225.868 70.824H225.112V71.544H220.612V73.14H225.112V74.28C225.112 74.448 225.04 74.496 224.8 74.496C224.56 74.496 223.612 74.496 222.94 74.46C223.204 74.916 223.528 75.66 223.636 76.152C224.62 76.152 225.424 76.128 226.06 75.888C226.708 75.636 226.9 75.192 226.9 74.34V73.14H231.424V71.544Z" fill="#11376B"/>
<path d="M240.424 72.756H235.672V72.336H240.424V72.756ZM235.672 74.46V74.04H240.424V74.46H235.672ZM235.66 69.204L235.408 67.968L234.412 68.304L235.216 67.26C234.976 67.044 234.556 66.78 234.16 66.564H236.092V69.204C236.092 69.324 236.044 69.372 235.912 69.372C235.816 69.372 235.552 69.372 235.288 69.372L235.66 69.204ZM237.52 70.02C237.628 69.828 237.664 69.576 237.664 69.216V65.232H232.672V66.564H233.488L232.876 67.32C233.368 67.596 234.016 68.016 234.328 68.328C233.572 68.58 232.852 68.808 232.324 68.952L232.924 70.368C233.572 70.104 234.316 69.792 235.048 69.468C235.204 69.804 235.372 70.236 235.42 70.572C236.044 70.572 236.56 70.572 236.956 70.44C236.896 70.632 236.836 70.836 236.764 71.04H233.944V76.164H235.672V75.756H240.424V76.164H242.248V71.04H238.504C238.66 70.776 238.816 70.488 238.96 70.2L237.52 70.02ZM241.096 67.716C240.784 67.824 240.484 67.92 240.172 68.028L240.784 67.224C240.544 67.02 240.148 66.78 239.752 66.564H241.528V69.144C241.528 69.276 241.468 69.312 241.324 69.324C241.204 69.324 240.784 69.324 240.424 69.312C240.736 69.192 241.048 69.072 241.36 68.952L241.096 67.716ZM243.148 65.232H238.228V66.564H238.96L238.372 67.296C238.804 67.536 239.368 67.884 239.728 68.172C239.02 68.412 238.36 68.616 237.844 68.76L238.408 70.044C238.972 69.84 239.62 69.6 240.28 69.36C240.46 69.72 240.628 70.224 240.7 70.596C241.48 70.608 242.092 70.596 242.548 70.392C243.004 70.176 243.148 69.84 243.148 69.156V65.232Z" fill="#11376B"/>
<path d="M186.531 231.728H181.587V229.712L186.211 222.672H188.835V229.712H190.291V231.728H188.835V234H186.531V231.728ZM186.531 225.808H186.499L183.987 229.712H186.531V225.808Z" fill="#11376B"/>
<path d="M199.696 229.328C199.61 229.499 199.504 229.669 199.376 229.84C199.258 230 199.12 230.144 198.96 230.272C198.8 230.4 198.613 230.507 198.4 230.592C198.197 230.667 197.962 230.704 197.696 230.704C197.418 230.704 197.13 230.656 196.832 230.56C196.533 230.453 196.229 230.331 195.92 230.192C195.621 230.064 195.328 229.936 195.04 229.808C194.752 229.68 194.501 229.616 194.288 229.616C194.128 229.616 193.978 229.653 193.84 229.728C193.712 229.792 193.589 229.877 193.472 229.984C193.365 230.08 193.264 230.192 193.168 230.32C193.072 230.448 192.976 230.576 192.88 230.704L192.304 228.976C192.389 228.805 192.49 228.64 192.608 228.48C192.736 228.309 192.88 228.16 193.04 228.032C193.2 227.904 193.381 227.803 193.584 227.728C193.797 227.643 194.037 227.6 194.304 227.6C194.581 227.6 194.869 227.653 195.168 227.76C195.466 227.856 195.77 227.973 196.08 228.112C196.378 228.24 196.672 228.368 196.96 228.496C197.248 228.624 197.498 228.688 197.712 228.688C197.872 228.688 198.016 228.656 198.144 228.592C198.282 228.517 198.405 228.432 198.512 228.336C198.629 228.229 198.736 228.112 198.832 227.984C198.928 227.856 199.024 227.728 199.12 227.6L199.696 229.328Z" fill="#11376B"/>
<path d="M209.6 224.784H205.104L205.056 226.528C205.301 226.443 205.637 226.4 206.064 226.4C206.64 226.4 207.168 226.485 207.648 226.656C208.128 226.827 208.539 227.077 208.88 227.408C209.232 227.728 209.504 228.123 209.696 228.592C209.888 229.051 209.984 229.568 209.984 230.144C209.984 230.784 209.872 231.355 209.648 231.856C209.435 232.357 209.136 232.784 208.752 233.136C208.368 233.477 207.909 233.739 207.376 233.92C206.853 234.101 206.283 234.192 205.664 234.192C204.683 234.192 203.861 233.952 203.2 233.472C202.539 232.992 202.085 232.267 201.84 231.296L204.352 230.72C204.416 231.125 204.587 231.456 204.864 231.712C205.141 231.957 205.488 232.08 205.904 232.08C206.416 232.08 206.821 231.92 207.12 231.6C207.429 231.28 207.584 230.875 207.584 230.384C207.584 230.011 207.504 229.707 207.344 229.472C207.195 229.227 206.992 229.035 206.736 228.896C206.491 228.747 206.213 228.645 205.904 228.592C205.595 228.539 205.285 228.512 204.976 228.512C204.581 228.512 204.181 228.549 203.776 228.624C203.381 228.699 202.997 228.8 202.624 228.928L202.752 222.672H209.6V224.784Z" fill="#11376B"/>
<path d="M216.52 230.271C216.553 229.908 216.575 229.545 216.586 229.215H220.667V230.271H216.52ZM220.667 226.641V227.697H216.586V226.641H220.667ZM222.372 225.079H214.936V228.852C214.936 230.491 214.804 232.548 213.187 233.89C213.539 234.11 214.188 234.715 214.43 235.045C215.431 234.22 215.981 233.043 216.278 231.822H220.667V233.087C220.667 233.307 220.579 233.395 220.326 233.395C220.062 233.395 219.138 233.406 218.434 233.351C218.687 233.78 219.006 234.561 219.094 235.034C220.216 235.034 221.019 235.001 221.602 234.726C222.163 234.462 222.372 234.011 222.372 233.109V225.079Z" fill="#11376B"/>
<path d="M169.475 142.875C169.475 142.058 169.625 141.35 169.925 140.75C170.241 140.133 170.666 139.625 171.2 139.225C171.75 138.808 172.383 138.5 173.1 138.3C173.816 138.1 174.583 138 175.4 138C176.216 138 176.983 138.1 177.7 138.3C178.416 138.5 179.041 138.808 179.575 139.225C180.108 139.625 180.533 140.133 180.85 140.75C181.166 141.35 181.325 142.058 181.325 142.875C181.325 143.842 181.058 144.667 180.525 145.35C180.008 146.033 179.275 146.517 178.325 146.8V146.85C179.391 147.133 180.208 147.65 180.775 148.4C181.341 149.133 181.625 150.05 181.625 151.15C181.625 152 181.45 152.75 181.1 153.4C180.766 154.05 180.308 154.592 179.725 155.025C179.158 155.442 178.5 155.758 177.75 155.975C177 156.192 176.216 156.3 175.4 156.3C174.583 156.3 173.8 156.192 173.05 155.975C172.3 155.758 171.633 155.442 171.05 155.025C170.483 154.592 170.025 154.05 169.675 153.4C169.341 152.75 169.175 152 169.175 151.15C169.175 150.05 169.458 149.133 170.025 148.4C170.591 147.65 171.408 147.133 172.475 146.85V146.8C171.525 146.517 170.783 146.033 170.25 145.35C169.733 144.667 169.475 143.842 169.475 142.875ZM173.225 143.4C173.225 143.95 173.425 144.417 173.825 144.8C174.225 145.183 174.75 145.375 175.4 145.375C176.05 145.375 176.575 145.183 176.975 144.8C177.375 144.417 177.575 143.95 177.575 143.4C177.575 142.867 177.375 142.408 176.975 142.025C176.575 141.642 176.05 141.45 175.4 141.45C174.75 141.45 174.225 141.642 173.825 142.025C173.425 142.408 173.225 142.867 173.225 143.4ZM172.925 150.625C172.925 151.242 173.15 151.767 173.6 152.2C174.05 152.633 174.65 152.85 175.4 152.85C176.15 152.85 176.75 152.633 177.2 152.2C177.65 151.767 177.875 151.242 177.875 150.625C177.875 149.992 177.65 149.458 177.2 149.025C176.75 148.592 176.15 148.375 175.4 148.375C174.65 148.375 174.05 148.592 173.6 149.025C173.15 149.458 172.925 149.992 172.925 150.625Z" fill="white"/>
<path d="M190.42 149.675C190.22 149.725 190.02 149.767 189.82 149.8C189.62 149.833 189.411 149.85 189.195 149.85C188.361 149.85 187.603 149.7 186.92 149.4C186.236 149.1 185.653 148.692 185.17 148.175C184.686 147.658 184.311 147.05 184.045 146.35C183.778 145.633 183.645 144.875 183.645 144.075C183.645 143.158 183.811 142.333 184.145 141.6C184.495 140.85 184.961 140.208 185.545 139.675C186.145 139.142 186.845 138.733 187.645 138.45C188.445 138.15 189.311 138 190.245 138C191.161 138 192.02 138.15 192.82 138.45C193.636 138.733 194.336 139.142 194.92 139.675C195.52 140.208 195.986 140.85 196.32 141.6C196.67 142.333 196.845 143.158 196.845 144.075C196.845 144.708 196.786 145.292 196.67 145.825C196.553 146.342 196.395 146.833 196.195 147.3C196.011 147.767 195.786 148.217 195.52 148.65C195.27 149.067 195.003 149.5 194.72 149.95L190.845 156H186.27L190.42 149.675ZM187.395 144.225C187.395 145.025 187.653 145.692 188.17 146.225C188.703 146.742 189.395 147 190.245 147C191.095 147 191.778 146.742 192.295 146.225C192.828 145.692 193.095 145.025 193.095 144.225C193.095 143.425 192.828 142.767 192.295 142.25C191.778 141.717 191.095 141.45 190.245 141.45C189.395 141.45 188.703 141.717 188.17 142.25C187.653 142.767 187.395 143.425 187.395 144.225Z" fill="white"/>
<path d="M198.99 153.85C198.99 153.533 199.048 153.233 199.165 152.95C199.281 152.667 199.44 152.425 199.64 152.225C199.856 152.008 200.106 151.842 200.39 151.725C200.673 151.608 200.973 151.55 201.29 151.55C201.606 151.55 201.906 151.608 202.19 151.725C202.473 151.842 202.715 152.008 202.915 152.225C203.131 152.425 203.298 152.667 203.415 152.95C203.531 153.233 203.59 153.533 203.59 153.85C203.59 154.167 203.531 154.467 203.415 154.75C203.298 155.033 203.131 155.283 202.915 155.5C202.715 155.7 202.473 155.858 202.19 155.975C201.906 156.092 201.606 156.15 201.29 156.15C200.973 156.15 200.673 156.092 200.39 155.975C200.106 155.858 199.856 155.7 199.64 155.5C199.44 155.283 199.281 155.033 199.165 154.75C199.048 154.467 198.99 154.167 198.99 153.85Z" fill="white"/>
<path d="M206.462 142.875C206.462 142.058 206.612 141.35 206.912 140.75C207.229 140.133 207.654 139.625 208.187 139.225C208.737 138.808 209.37 138.5 210.087 138.3C210.804 138.1 211.57 138 212.387 138C213.204 138 213.97 138.1 214.687 138.3C215.404 138.5 216.029 138.808 216.562 139.225C217.095 139.625 217.52 140.133 217.837 140.75C218.154 141.35 218.312 142.058 218.312 142.875C218.312 143.842 218.045 144.667 217.512 145.35C216.995 146.033 216.262 146.517 215.312 146.8V146.85C216.379 147.133 217.195 147.65 217.762 148.4C218.329 149.133 218.612 150.05 218.612 151.15C218.612 152 218.437 152.75 218.087 153.4C217.754 154.05 217.295 154.592 216.712 155.025C216.145 155.442 215.487 155.758 214.737 155.975C213.987 156.192 213.204 156.3 212.387 156.3C211.57 156.3 210.787 156.192 210.037 155.975C209.287 155.758 208.62 155.442 208.037 155.025C207.47 154.592 207.012 154.05 206.662 153.4C206.329 152.75 206.162 152 206.162 151.15C206.162 150.05 206.445 149.133 207.012 148.4C207.579 147.65 208.395 147.133 209.462 146.85V146.8C208.512 146.517 207.77 146.033 207.237 145.35C206.72 144.667 206.462 143.842 206.462 142.875ZM210.212 143.4C210.212 143.95 210.412 144.417 210.812 144.8C211.212 145.183 211.737 145.375 212.387 145.375C213.037 145.375 213.562 145.183 213.962 144.8C214.362 144.417 214.562 143.95 214.562 143.4C214.562 142.867 214.362 142.408 213.962 142.025C213.562 141.642 213.037 141.45 212.387 141.45C211.737 141.45 211.212 141.642 210.812 142.025C210.412 142.408 210.212 142.867 210.212 143.4ZM209.912 150.625C209.912 151.242 210.137 151.767 210.587 152.2C211.037 152.633 211.637 152.85 212.387 152.85C213.137 152.85 213.737 152.633 214.187 152.2C214.637 151.767 214.862 151.242 214.862 150.625C214.862 149.992 214.637 149.458 214.187 149.025C213.737 148.592 213.137 148.375 212.387 148.375C211.637 148.375 211.037 148.592 210.587 149.025C210.137 149.458 209.912 149.992 209.912 150.625Z" fill="white"/>
<path d="M229.285 153.008C229.285 152.571 229.365 152.16 229.525 151.776C229.696 151.392 229.92 151.056 230.197 150.768C230.485 150.48 230.821 150.256 231.205 150.096C231.589 149.925 232 149.84 232.437 149.84C232.874 149.84 233.285 149.925 233.669 150.096C234.053 150.256 234.384 150.48 234.661 150.768C234.949 151.056 235.173 151.392 235.333 151.776C235.504 152.16 235.589 152.571 235.589 153.008C235.589 153.445 235.504 153.861 235.333 154.256C235.173 154.64 234.949 154.976 234.661 155.264C234.384 155.552 234.053 155.781 233.669 155.952C233.285 156.112 232.874 156.192 232.437 156.192C232 156.192 231.589 156.112 231.205 155.952C230.821 155.781 230.485 155.552 230.197 155.264C229.92 154.976 229.696 154.64 229.525 154.256C229.365 153.861 229.285 153.445 229.285 153.008ZM233.957 153.008C233.957 152.581 233.808 152.219 233.509 151.92C233.221 151.621 232.864 151.472 232.437 151.472C232.01 151.472 231.648 151.621 231.349 151.92C231.061 152.219 230.917 152.581 230.917 153.008C230.917 153.445 231.061 153.813 231.349 154.112C231.648 154.411 232.01 154.56 232.437 154.56C232.864 154.56 233.221 154.411 233.509 154.112C233.808 153.813 233.957 153.445 233.957 153.008ZM221.237 147.648C221.237 147.211 221.317 146.8 221.477 146.416C221.648 146.032 221.872 145.696 222.149 145.408C222.437 145.12 222.773 144.896 223.157 144.736C223.541 144.565 223.952 144.48 224.389 144.48C224.826 144.48 225.237 144.565 225.621 144.736C226.005 144.896 226.336 145.12 226.613 145.408C226.901 145.696 227.125 146.032 227.285 146.416C227.456 146.8 227.541 147.211 227.541 147.648C227.541 148.085 227.456 148.496 227.285 148.88C227.125 149.264 226.901 149.6 226.613 149.888C226.336 150.176 226.005 150.405 225.621 150.576C225.237 150.736 224.826 150.816 224.389 150.816C223.952 150.816 223.541 150.736 223.157 150.576C222.773 150.405 222.437 150.176 222.149 149.888C221.872 149.6 221.648 149.264 221.477 148.88C221.317 148.496 221.237 148.085 221.237 147.648ZM225.909 147.648C225.909 147.221 225.76 146.859 225.461 146.56C225.173 146.261 224.816 146.112 224.389 146.112C223.962 146.112 223.6 146.261 223.301 146.56C223.013 146.859 222.869 147.221 222.869 147.648C222.869 148.075 223.013 148.437 223.301 148.736C223.6 149.035 223.962 149.184 224.389 149.184C224.816 149.184 225.173 149.035 225.461 148.736C225.76 148.437 225.909 148.075 225.909 147.648ZM230.997 144.16L232.341 144.912L225.733 156.512L224.517 155.824L230.997 144.16Z" fill="white"/>
<path d="M268.607 58.189L269.399 57.837C268.453 56.264 268.013 54.405 268.013 52.557C268.013 50.72 268.453 48.861 269.399 47.277L268.607 46.936C267.584 48.597 266.979 50.39 266.979 52.557C266.979 54.746 267.584 56.517 268.607 58.189Z" fill="#777777"/>
<path d="M274.464 49.334C274.258 49.334 274.108 49.2753 274.013 49.158C273.925 49.0407 273.881 48.8793 273.881 48.674C273.881 48.476 273.925 48.3183 274.013 48.201C274.108 48.0837 274.258 48.025 274.464 48.025C274.676 48.025 274.83 48.0837 274.926 48.201C275.021 48.3183 275.069 48.476 275.069 48.674C275.069 48.8793 275.021 49.0407 274.926 49.158C274.83 49.2753 274.676 49.334 274.464 49.334ZM271.131 56L270.625 55.494L273.991 52.084L270.614 48.685L271.12 48.168L274.508 51.567L277.907 48.179L278.413 48.685L275.025 52.084L278.391 55.505L277.885 56.011L274.508 52.601L271.131 56ZM271.054 52.755C270.878 52.755 270.735 52.7073 270.625 52.612C270.515 52.5093 270.46 52.3443 270.46 52.117C270.46 51.8897 270.515 51.7247 270.625 51.622C270.735 51.5193 270.878 51.468 271.054 51.468C271.237 51.468 271.384 51.5193 271.494 51.622C271.604 51.7247 271.659 51.8897 271.659 52.117C271.659 52.3443 271.604 52.5093 271.494 52.612C271.384 52.7073 271.237 52.755 271.054 52.755ZM277.962 52.755C277.786 52.755 277.643 52.7073 277.533 52.612C277.423 52.5093 277.368 52.3443 277.368 52.117C277.368 51.8897 277.423 51.7247 277.533 51.622C277.643 51.5193 277.786 51.468 277.962 51.468C278.145 51.468 278.292 51.5193 278.402 51.622C278.512 51.7247 278.567 51.8897 278.567 52.117C278.567 52.3443 278.512 52.5093 278.402 52.612C278.292 52.7073 278.145 52.755 277.962 52.755ZM274.464 56.165C274.258 56.165 274.108 56.1063 274.013 55.989C273.925 55.8717 273.881 55.7103 273.881 55.505C273.881 55.307 273.925 55.1493 274.013 55.032C274.108 54.9147 274.258 54.856 274.464 54.856C274.676 54.856 274.83 54.9147 274.926 55.032C275.021 55.1493 275.069 55.307 275.069 55.505C275.069 55.7103 275.021 55.8717 274.926 55.989C274.83 56.1063 274.676 56.165 274.464 56.165Z" fill="#777777"/>
<path d="M282.086 49.422L280.656 50.742L280.04 50.005L282.207 48.212H283.142V56H282.086V49.422Z" fill="#777777"/>
<path d="M286.526 58.189C287.56 56.517 288.165 54.746 288.165 52.557C288.165 50.39 287.56 48.597 286.526 46.936L285.734 47.277C286.68 48.861 287.12 50.72 287.12 52.557C287.12 54.405 286.68 56.264 285.734 57.837L286.526 58.189Z" fill="#777777"/>
</svg>
