<svg viewBox="0 0 116.16 110.21" xmlns="http://www.w3.org/2000/svg"><g transform="translate(-.3 -.39)"><g fill="#11376b"><path d="m60.23 110.59a2.84 2.84 0 0 1 -1-.19l-18.65-7.4a2.5 2.5 0 0 1 -1.43-3.33 2.7 2.7 0 0 1 2.49-1.56 2.78 2.78 0 0 1 1 .2l17.46 7 34.19-16.25c1.94-2.22 10.11-11.54 14.64-16.15.82-.83 3.33-3.73 1.43-6.24a5.48 5.48 0 0 0 -4-2 2.53 2.53 0 0 0 -1.86.72c-5 5-16.69 18.31-17.18 18.87a2.73 2.73 0 0 1 -1.79.91l-4.08.41a10 10 0 0 1 -.36 1.53 9.4 9.4 0 0 1 -4.83 5.48 10.3 10.3 0 0 1 -7.45.66l-18.24-4.78a2.55 2.55 0 0 1 -1.88-3.14 2.68 2.68 0 0 1 2.6-1.87 2.82 2.82 0 0 1 .71.09l18.3 4.78a6 6 0 0 0 1.47.2 4.56 4.56 0 0 0 1.84-.38 4.25 4.25 0 0 0 2.56-4.15 4.15 4.15 0 0 0 -1-2.29 4 4 0 0 0 -1-.87 5.56 5.56 0 0 0 -1-.45l-.44-.17c-.29-.12-29.35-12-41.17-12a42.56 42.56 0 0 0 -20.16 4.67 25.44 25.44 0 0 0 -6.35 4.59 2.76 2.76 0 0 1 -2.06.9 2.78 2.78 0 0 1 -1.72-.59 2.45 2.45 0 0 1 -.34-3.58c.39-.46 10-11.09 30.68-11.09 12.55 0 39.88 11 43.19 12.33a12 12 0 0 1 1.2.45c4.07-4.56 9.33-10.37 12.34-13.39a8.07 8.07 0 0 1 5.8-2.3h.61a10.91 10.91 0 0 1 5.53 2l.36-.36a8.1 8.1 0 0 1 5.79-2.3h.62a10.78 10.78 0 0 1 7.71 4.11c2.84 3.76 2.12 8.62-1.87 12.69-4.72 4.8-13.77 15.15-14.78 16.31a2.71 2.71 0 0 1 -.88.67l-35.78 17a2.92 2.92 0 0 1 -1.2.27zm19.77-31.31a9.45 9.45 0 0 1 .7 1.23l3.2-.32c2.13-2.42 8-9.09 12.73-14.14a5.11 5.11 0 0 0 -2.27-.74h-.26a2.55 2.55 0 0 0 -1.88.71c-3.05 3.06-8.76 9.4-12.22 13.26z"/><path d="m113.92 64.26a9.7 9.7 0 0 0 -7-3.71 7.14 7.14 0 0 0 -5.61 2c-.31.31-.65.65-1 1a9.85 9.85 0 0 0 -5.69-2.37 7.11 7.11 0 0 0 -5.61 2c-3.01 3.08-8.5 9.12-12.79 13.93a9.17 9.17 0 0 0 -1.79-.76c-2.05-.84-30.3-12.27-42.82-12.27-20.23 0-29.52 10.3-29.91 10.74a1.53 1.53 0 0 0 .21 2.23 1.75 1.75 0 0 0 2.37-.19 25.85 25.85 0 0 1 6.62-4.81 43.59 43.59 0 0 1 20.71-4.8c12 0 41.28 11.93 41.57 12a8.93 8.93 0 0 1 1.58.7 5.05 5.05 0 0 1 -.76 9.05 5.89 5.89 0 0 1 -4 .24l-18.3-4.77a1.71 1.71 0 0 0 -2.07 1.11 1.59 1.59 0 0 0 1.18 2l18.27 4.77a9.3 9.3 0 0 0 6.7-.58 8.45 8.45 0 0 0 4.33-4.92 8.26 8.26 0 0 0 .4-2.12l4.9-.49a1.69 1.69 0 0 0 1.12-.57c.12-.13 12.15-13.83 17.23-18.92 2.11-2.12 5.87-.62 7.4 1.4 2.34 3.11-.57 6.49-1.52 7.46-4.64 4.69-13.17 14.45-14.71 16.21l-34.77 16.48-17.88-7.14a1.73 1.73 0 0 0 -2.2.85 1.58 1.58 0 0 0 .9 2.08l18.6 7.42a1.79 1.79 0 0 0 1.4 0l35.78-17a1.58 1.58 0 0 0 .54-.42c.1-.11 9.88-11.33 14.83-16.37 3.64-3.7 4.33-8.1 1.79-11.47zm-29.5 16.84-4.37.44a8.43 8.43 0 0 0 -1.32-2.31c3.65-4.1 9.59-10.7 12.76-13.88a3.75 3.75 0 0 1 2.94-1 6.33 6.33 0 0 1 3.68 1.56c-5.03 5.39-11.88 13.14-13.69 15.19z"/><path d="m33.38 99.89a2.82 2.82 0 0 1 -1-.2l-6.68-2.69h-22.7a2.55 2.55 0 1 1 0-5.1h23.24a2.72 2.72 0 0 1 1.05.2l7.15 2.9a2.53 2.53 0 0 1 1.56 3.11 2.71 2.71 0 0 1 -2.62 1.78z"/><path d="m34 95.88-7.11-2.88a1.78 1.78 0 0 0 -.65-.12h-23.24a1.59 1.59 0 1 0 0 3.18h22.9l6.84 2.73a1.72 1.72 0 0 0 2.25-1 1.57 1.57 0 0 0 -.99-1.91z"/><path d="m49.45 65.32a2.92 2.92 0 0 1 -.73-.09 35.26 35.26 0 0 1 -18.06-11.73 31.68 31.68 0 0 1 -7.14-20c0-18.28 15.65-33.11 34.88-33.11s34.89 14.83 34.89 33.06a31.82 31.82 0 0 1 -7.54 20.55l4.47-.61h.37a2.66 2.66 0 0 1 2.67 2.18 2.45 2.45 0 0 1 -.51 1.89 2.72 2.72 0 0 1 -1.77 1l-12.52 1.7h-.37a2.67 2.67 0 0 1 -2.7-2.55v-11.87a2.69 2.69 0 0 1 5.38 0v6a26.85 26.85 0 0 0 7.14-18.26c0-15.42-13.23-28-29.5-28s-29.51 12.52-29.51 27.97c0 12.4 8.76 23.45 21.31 26.88a2.56 2.56 0 0 1 1.87 3 2.7 2.7 0 0 1 -2.63 2z"/><path d="m90.36 54.34-7.14 1a31 31 0 0 0 9.06-21.86c0-17.7-15.2-32.1-33.88-32.1s-33.87 14.4-33.87 32.1a30.73 30.73 0 0 0 6.94 19.47 34.2 34.2 0 0 0 17.53 11.36 1.71 1.71 0 0 0 2.1-1.18 1.61 1.61 0 0 0 -1.17-1.88c-13-3.55-22-15-22-27.8 0-16 13.69-28.93 30.52-28.93s30.52 13 30.52 28.93a28 28 0 0 1 -9.17 20.68v-8.39a1.68 1.68 0 0 0 -3.36 0v11.87a1.68 1.68 0 0 0 1.92 1.58l12.52-1.7a1.62 1.62 0 0 0 1.42-1.8 1.69 1.69 0 0 0 -1.94-1.35z"/></g><path d="m57.32 55.22a2.19 2.19 0 0 1 -2.25-2.13v-8h-6.51a2.13 2.13 0 1 1 0-4.26h6.51v-2.6h-6.51a2.2 2.2 0 0 1 -2.25-2.14 2.2 2.2 0 0 1 2.25-2.14h4.66l-7.8-14.06a2 2 0 0 1 .07-2.1 2.27 2.27 0 0 1 1.92-1h1.76a2.28 2.28 0 0 1 2 1.21l5.83 11.4c.51 1.08 1 2.05 1.38 3 .42-1 .91-2 1.48-3.12l6-11.38a2.24 2.24 0 0 1 2-1.18h1.61a2.24 2.24 0 0 1 1.93 1.06 2 2 0 0 1 0 2.12l-8.28 14h4.61a2.2 2.2 0 0 1 2.27 2.15 2.2 2.2 0 0 1 -2.25 2.14h-6.59v2.61h6.61a2.13 2.13 0 1 1 0 4.26h-6.61v8a2.19 2.19 0 0 1 -2.25 2.13z" fill="#6a839c"/><path d="m58.92 54.26h-1.6a1.21 1.21 0 0 1 -1.24-1.17v-9h-7.52a1.18 1.18 0 1 1 0-2.35h7.52v-4.47h-7.52a1.2 1.2 0 0 1 -1.23-1.17v-.05a1.2 1.2 0 0 1 1.23-1.17h6.34l-8.58-15.47a1.18 1.18 0 0 1 1.09-1.72h1.77a1.26 1.26 0 0 1 1.11.66l5.79 11.45c.93 1.95 1.6 3.46 2.27 5.08h.16a38 38 0 0 1 2.26-5.18l6-11.36a1.23 1.23 0 0 1 1.1-.65h1.61a1.17 1.17 0 0 1 1.08 1.74l-9.12 15.45h6.34a1.21 1.21 0 0 1 1.22 1.17v.05a1.21 1.21 0 0 1 -1.24 1.17h-7.6v4.49h7.62a1.18 1.18 0 1 1 0 2.35h-7.62v9a1.21 1.21 0 0 1 -1.24 1.15z" fill="#6a839c"/></g></svg>