<svg width="120" height="136" viewBox="0 0 120 136" fill="none" xmlns="http://www.w3.org/2000/svg">
<path d="M52.1622 85.4345C51.1756 85.4345 50.2381 85.0705 49.5241 84.4064L36.2383 71.4555C35.1564 70.3981 34.8348 68.8281 35.4207 67.4493C36.0067 66.0705 37.3748 65.1779 38.9064 65.1779C39.9065 65.1779 40.8767 65.5711 41.5771 66.2592L51.9087 76.3303C51.9768 76.3967 52.0695 76.4339 52.1649 76.4339C52.2603 76.4339 52.3529 76.3967 52.4211 76.3303L77.5809 51.8046C78.2949 51.1378 79.2352 50.7686 80.2244 50.7686C81.2137 50.7686 82.1539 51.1352 82.868 51.802L82.8925 51.8259C83.5956 52.5113 83.9962 53.457 83.9962 54.4267C83.9962 55.407 83.6038 56.3315 82.8925 57.0248L82.4401 57.4658H82.4374L54.8002 84.4064C54.0862 85.0678 53.1487 85.4345 52.1622 85.4345Z" fill="#6A839C"/>
<path d="M81.8039 55.9634L53.7416 83.3158C52.8586 84.134 51.4742 84.134 50.5912 83.3158L37.3327 70.3914C36.6977 69.7698 36.5069 68.8373 36.8503 68.027C37.1937 67.2168 38.0058 66.6881 38.9079 66.6881C39.4993 66.6881 40.0662 66.9166 40.4831 67.3257L50.8201 77.3995C51.1771 77.7476 51.6622 77.9441 52.1691 77.9441C52.676 77.9441 53.1584 77.7476 53.5182 77.3995L78.6562 52.895C79.5364 52.0715 80.9263 52.0715 81.8093 52.895C82.2263 53.3015 82.4607 53.854 82.4607 54.4305C82.4552 55.0044 82.2208 55.5569 81.8039 55.9634Z" fill="#6A839C"/>
<path d="M59.5646 125.577C59.2157 125.577 58.8778 125.514 58.5562 125.386C47.4807 120.984 38.1793 115.307 30.9055 108.509C30.3822 108.02 30.0933 107.361 30.0906 106.652C30.0879 105.94 30.3741 105.273 30.8973 104.776C31.4069 104.293 32.0665 104.03 32.7641 104.03C33.4563 104.03 34.1159 104.287 34.6173 104.755C41.0953 110.791 49.342 115.905 59.1313 119.956C59.2702 120.012 59.4174 120.041 59.5673 120.041C59.7199 120.041 59.8644 120.012 60.0033 119.956C102.774 102.266 102.774 70.0885 102.774 59.5152V37.5263C102.774 36.9817 102.365 36.5247 101.801 36.445C97.6477 35.8447 94.3637 34.1577 92.0336 31.4293C88.9786 27.8535 88.3272 23.3293 88.3191 20.1626C88.3191 19.6286 87.9212 19.1797 87.3734 19.0946C80.9908 18.1197 65.503 15.8536 59.57 15.8536C53.6371 15.8536 38.1493 18.1197 31.7639 19.0946C31.2162 19.177 30.8183 19.626 30.8183 20.1626C30.8101 23.3293 30.1588 27.8535 27.1037 31.4293C24.7763 34.1577 21.4896 35.8447 17.3363 36.445C16.7722 36.5274 16.3634 36.9817 16.3634 37.5263V59.5152C16.3634 66.5472 16.3634 83.013 28.7362 98.4347C29.5783 99.4841 29.4774 100.974 28.5045 101.902C28.0031 102.38 27.3381 102.643 26.6377 102.643C25.8146 102.643 25.0516 102.281 24.5474 101.652C21.8439 98.2726 19.5165 94.6304 17.6306 90.8208C11.6868 78.8394 11 67.2167 11 59.5152V35.8632C11 33.5414 12.8586 31.5887 15.2296 31.4187C18.6935 31.169 21.2989 30.0532 22.9722 28.1033C26.406 24.0997 25.275 17.5883 25.2641 17.5219C25.1361 16.8392 25.2996 16.1219 25.7084 15.5534C26.1199 14.9848 26.7576 14.5943 27.4607 14.4801C28.4391 14.3207 51.4814 10.6333 59.5646 10.6333C67.6777 10.6333 90.6928 14.3207 91.6684 14.4774C92.3716 14.5917 93.012 14.9822 93.4235 15.5507C93.8323 16.1192 93.9958 16.8365 93.8677 17.5219C93.8568 17.5857 92.7231 24.0944 96.1597 28.1033C98.0756 30.3375 101.201 31.4719 105.45 31.4719C106.93 31.4719 108.129 32.6434 108.129 34.0833V59.5152C108.129 67.2167 107.442 78.8421 101.501 90.8208C94.0094 105.945 80.2413 117.573 60.5729 125.383C60.2513 125.514 59.9134 125.577 59.5646 125.577Z" fill="#11376B"/>
</svg>
