<svg id="レイヤー_1" data-name="レイヤー 1" xmlns="http://www.w3.org/2000/svg" viewBox="0 0 84 74"><defs><style>.cls-1{fill:#103362;}.cls-2{fill:#6a839c;}</style></defs><title>code</title><path class="cls-1" d="M17.38,74a1.86,1.86,0,0,1,0-3.68H80.81v-54H3.19V70.32h8.63a1.86,1.86,0,0,1,0,3.68H1.6A1.74,1.74,0,0,1,0,72.16V4.83C0,2.17,1.88,0,4.19,0H79.81C82.12,0,84,2.17,84,4.83V72.16A1.74,1.74,0,0,1,82.4,74ZM80.81,12.59V4.83a1.09,1.09,0,0,0-1-1.15H4.19a1.08,1.08,0,0,0-1,1.15v7.76ZM24.1,10a1.74,1.74,0,0,1-1.6-1.84A1.73,1.73,0,0,1,24.1,6.3h2.7a1.73,1.73,0,0,1,1.59,1.84A1.73,1.73,0,0,1,26.8,10Zm-7.74,0a1.73,1.73,0,0,1-1.59-1.84A1.73,1.73,0,0,1,16.36,6.3h2.71a1.73,1.73,0,0,1,1.59,1.84A1.74,1.74,0,0,1,19.07,10ZM8.63,10A1.74,1.74,0,0,1,7,8.14,1.73,1.73,0,0,1,8.63,6.3h2.7a1.73,1.73,0,0,1,1.6,1.84A1.74,1.74,0,0,1,11.33,10Z" transform="translate(0 0)"/><path class="cls-1" d="M79.81.53H69.26a1.23,1.23,0,0,0-1.13,1.31,1.24,1.24,0,0,0,1.13,1.31H79.81a1.58,1.58,0,0,1,1.46,1.68v8.29H2.73V4.83A1.58,1.58,0,0,1,4.19,3.15h67.3a1.23,1.23,0,0,0,1.13-1.31A1.22,1.22,0,0,0,71.49.53H4.19A4,4,0,0,0,.46,4.83V72.16A1.24,1.24,0,0,0,1.6,73.47H11.82a1.32,1.32,0,0,0,0-2.62H2.73V15.74H81.27V70.85H17.38a1.32,1.32,0,0,0,0,2.62h65a1.24,1.24,0,0,0,1.14-1.31V4.83A4.06,4.06,0,0,0,79.81.53ZM8.63,6.82A1.24,1.24,0,0,0,7.49,8.13,1.23,1.23,0,0,0,8.63,9.44h2.7a1.23,1.23,0,0,0,1.14-1.31,1.24,1.24,0,0,0-1.14-1.31Zm7.73,0a1.24,1.24,0,0,0-1.13,1.31,1.23,1.23,0,0,0,1.13,1.31h2.71A1.22,1.22,0,0,0,20.2,8.13a1.23,1.23,0,0,0-1.13-1.31Zm7.74,0A1.24,1.24,0,0,0,23,8.13,1.23,1.23,0,0,0,24.1,9.44h2.7a1.23,1.23,0,0,0,1.14-1.31A1.24,1.24,0,0,0,26.8,6.82Z" transform="translate(0 0)"/><path class="cls-2" d="M30.22,30.68a1.57,1.57,0,0,0-2.41-.39L14.31,42.07A2.19,2.19,0,0,0,14,44.85a2.05,2.05,0,0,0,.34.38L27.48,56.76a1.58,1.58,0,0,0,2.41-.38,2.2,2.2,0,0,0-.33-2.78l-11.37-10,11.7-10.2A2.17,2.17,0,0,0,30.22,30.68Z" transform="translate(0 0)"/><path class="cls-2" d="M52.13,56.38a1.58,1.58,0,0,0,2.41.38L67.72,45.23a2.18,2.18,0,0,0,.33-2.78,1.7,1.7,0,0,0-.33-.38L54.21,30.29a1.57,1.57,0,0,0-2.42.26A2.19,2.19,0,0,0,52,33.34l.12.11,11.69,10.2-11.37,10a2.21,2.21,0,0,0-.33,2.78Z" transform="translate(0 0)"/><path class="cls-2" d="M34.59,57.17a1.68,1.68,0,0,0,1.46-.94L48.58,32.92a2.15,2.15,0,0,0-.64-2.7,1.58,1.58,0,0,0-2.28.61L33.12,54.15a2.17,2.17,0,0,0,.56,2.73,1.59,1.59,0,0,0,.91.29Z" transform="translate(0 0)"/></svg>