<svg id="レイヤー_1" data-name="レイヤー 1" xmlns="http://www.w3.org/2000/svg" viewBox="0 0 92 80"><defs><style>.cls-1{fill:#103362;}.cls-2{fill:#6a839c;}</style></defs><title>display</title><path class="cls-1" d="M8.86,50.41a1.77,1.77,0,0,1-1.75-1.78V9A1.76,1.76,0,0,1,8.86,7.22H83.15A1.75,1.75,0,0,1,84.89,9V48.63a1.76,1.76,0,0,1-1.74,1.78ZM81.4,46.86V10.77H10.61V46.86Z" transform="translate(0 0)"/><path class="cls-1" d="M83.14,7.73H8.85A1.26,1.26,0,0,0,7.61,9V48.63A1.26,1.26,0,0,0,8.85,49.9H83.14a1.26,1.26,0,0,0,1.25-1.27V9A1.26,1.26,0,0,0,83.14,7.73ZM81.9,47.37H10.1V10.26H81.9V47.37Z" transform="translate(0 0)"/><path class="cls-2" d="M40.23,42.13a2.29,2.29,0,0,1-1.59-.64L28.26,31a2.32,2.32,0,0,1-.49-2.47,2.21,2.21,0,0,1,2.06-1.41,2.28,2.28,0,0,1,1.6.67L39.51,36a1,1,0,0,0,.69.28,1,1,0,0,0,.68-.28L60.54,16a2.22,2.22,0,0,1,1.59-.66,2.33,2.33,0,0,1,1.59.64,2.39,2.39,0,0,1,.67,1.61,2.13,2.13,0,0,1-.62,1.6l-22,22.3A2.25,2.25,0,0,1,40.23,42.13Z" transform="translate(0 0)"/><path class="cls-2" d="M63.52,19l-22.21,22a1.78,1.78,0,0,1-2.48,0L28.59,30.39a1.85,1.85,0,0,1-.36-1.93,1.71,1.71,0,0,1,1.61-1.07,1.75,1.75,0,0,1,1.23.54l8,8.3a1.45,1.45,0,0,0,1,.44,1.42,1.42,0,0,0,1-.42L61,16.52a1.78,1.78,0,0,1,2.48,0A1.81,1.81,0,0,1,64,17.81,1.53,1.53,0,0,1,63.52,19Z" transform="translate(0 0)"/><path class="cls-1" d="M30.38,80a1.78,1.78,0,0,1,0-3.55H67.83V73.59a3.26,3.26,0,0,0-3.23-3.27H27.4a3.26,3.26,0,0,0-3.23,3.27v2.86h1.29a1.78,1.78,0,0,1,0,3.55h-3a1.75,1.75,0,0,1-1.11-.41l-.12-.11a1.8,1.8,0,0,1-.52-1.26V73.57l0-.32a6.75,6.75,0,0,1,6.71-6.48h6.78V57.62H5.3a5.52,5.52,0,0,1-.81-.06A5.27,5.27,0,0,1,1.55,56a5.14,5.14,0,0,1-.78-1c-.09-.15-.17-.3-.25-.46A5.47,5.47,0,0,1,0,52.24V5.38A5.42,5.42,0,0,1,1.93,1.23,5.33,5.33,0,0,1,3,.53L3.24.42c.16-.06.32-.13.49-.18A4.94,4.94,0,0,1,4.49.06L5,0H24.79V.06H67.21V0H87l.54,0a5.23,5.23,0,0,1,.76.18l.49.18L89,.53a5.33,5.33,0,0,1,1.07.7,1.54,1.54,0,0,1,.19.17q.19.18.36.36A5.43,5.43,0,0,1,92,5.38V52.24a5.47,5.47,0,0,1-.52,2.33c-.08.16-.16.31-.25.46a5.16,5.16,0,0,1-.79,1,5.22,5.22,0,0,1-2.94,1.51,5.29,5.29,0,0,1-.8.06H57.82v9.15H64.6a6.76,6.76,0,0,1,6.71,6.48l0,.33v4.64a1.8,1.8,0,0,1-.52,1.26l-.12.11a1.69,1.69,0,0,1-1.11.41ZM54.32,66.77V57.62H37.68v9.15ZM5.3,3.55a1.89,1.89,0,0,0-.53.08A1.84,1.84,0,0,0,3.5,5.38V52.24a1.91,1.91,0,0,0,.41,1.17,1.81,1.81,0,0,0,.86.58,1.59,1.59,0,0,0,.53.08H86.7a1.68,1.68,0,0,0,.54-.08,1.89,1.89,0,0,0,.74-.45,1.86,1.86,0,0,0,.53-1.3V5.38A1.81,1.81,0,0,0,88,4.09a1.92,1.92,0,0,0-.74-.46,2,2,0,0,0-.54-.08H5.3Z" transform="translate(0 0)"/><path class="cls-1" d="M90.25,2.11a2.57,2.57,0,0,0-.33-.33l-.17-.15a4.36,4.36,0,0,0-1-.63L88.57.9c-.15-.06-.29-.12-.45-.17a5,5,0,0,0-.69-.16,3.87,3.87,0,0,0-.49,0H67.72V.57H24.28V.51H5.05a3.91,3.91,0,0,0-.48,0,5.47,5.47,0,0,0-.7.16L3.43.9,3.22,1a4.75,4.75,0,0,0-1,.63A4.87,4.87,0,0,0,.5,5.39V52.24A4.81,4.81,0,0,0,1,54.35a3.23,3.23,0,0,0,.22.41,4.6,4.6,0,0,0,.71.92,4.72,4.72,0,0,0,2.66,1.37,4.4,4.4,0,0,0,.73.06H34.68V67.28H27.4a6.25,6.25,0,0,0-6.21,6v4.94a1.26,1.26,0,0,0,.36.9l.09.08a1.22,1.22,0,0,0,.79.29h3a1.27,1.27,0,0,0,0-2.53H23.66V73.59a3.77,3.77,0,0,1,3.74-3.78H64.6a3.75,3.75,0,0,1,3.73,3.78V77H30.38a1.27,1.27,0,0,0,0,2.53h39.2a1.24,1.24,0,0,0,.79-.29l.09-.08a1.3,1.3,0,0,0,.36-.9V73.28a6.25,6.25,0,0,0-6.21-6H57.32V57.11H86.7a4.4,4.4,0,0,0,.73-.06,4.75,4.75,0,0,0,2.66-1.37,4.6,4.6,0,0,0,.71-.92,3.23,3.23,0,0,0,.22-.41,4.81,4.81,0,0,0,.48-2.11V5.38A4.9,4.9,0,0,0,90.25,2.11ZM54.83,67.28H37.17V57.11H54.83ZM89,52.24a2.36,2.36,0,0,1-.68,1.66,2.29,2.29,0,0,1-.94.58,2.26,2.26,0,0,1-.69.11H5.3a2.15,2.15,0,0,1-.68-.11A2.33,2.33,0,0,1,3,52.24V5.38a2.37,2.37,0,0,1,.52-1.49,2.41,2.41,0,0,1,1.1-.75A2.54,2.54,0,0,1,5.3,3H86.7a2.48,2.48,0,0,1,.68.1A2.37,2.37,0,0,1,89,5.38V52.24Z" transform="translate(0 0)"/></svg>