<svg id="レイヤー_1" data-name="レイヤー 1" xmlns="http://www.w3.org/2000/svg" viewBox="0 0 92 80"><defs><style>.cls-1{fill:#6a839c;}.cls-2{fill:#103362;}</style></defs><title>chat</title><path class="cls-1" d="M15.75,33.41H35.69a1.45,1.45,0,1,0,0-2.9H15.75a1.45,1.45,0,1,0,0,2.9Z" transform="translate(-0.42 0)"/><path class="cls-1" d="M55.62,39.22H15.75a1.46,1.46,0,1,0,0,2.91H55.62a1.46,1.46,0,1,0,0-2.91Z" transform="translate(-0.42 0)"/><path class="cls-1" d="M55.62,47.94H15.75a1.45,1.45,0,1,0,0,2.9H55.62a1.45,1.45,0,1,0,0-2.9Z" transform="translate(-0.42 0)"/><path class="cls-2" d="M83.33.1,31,0a8.87,8.87,0,0,0-9.09,8.61v7.44l-12.37,0a8.87,8.87,0,0,0-9.1,8.61V55.4a8.73,8.73,0,0,0,6.93,8.36,1.54,1.54,0,0,0,2-1.41,1.5,1.5,0,0,0-1.23-1.43A5.76,5.76,0,0,1,3.49,55.4V24.69a5.88,5.88,0,0,1,6-5.71l13.9,0,38.44-.07a5.87,5.87,0,0,1,6,5.71V55.31a5.87,5.87,0,0,1-6,5.7l-26.17.1a1.6,1.6,0,0,0-1.14.48L21.89,74.78V62.57a1.51,1.51,0,0,0-1.54-1.46H14.53a1.46,1.46,0,1,0,0,2.91h4.29V78.55a1.45,1.45,0,0,0,1,1.35,2.13,2.13,0,0,0,.55.1,1.53,1.53,0,0,0,1.14-.48L36.36,64l25.5-.1A8.86,8.86,0,0,0,71,55.31v-.16L79,63.56a1.58,1.58,0,0,0,1.69.38,1.47,1.47,0,0,0,1-1.36V48.06h1.64a8.85,8.85,0,0,0,9.09-8.62V8.72A8.87,8.87,0,0,0,83.33.1Zm6,39.33a5.88,5.88,0,0,1-6,5.71H80.15a1.5,1.5,0,0,0-1.53,1.45V58.81l-7.67-8V24.6A8.88,8.88,0,0,0,61.86,16L25,16.05V8.61A5.88,5.88,0,0,1,31,2.9L83.33,3a5.88,5.88,0,0,1,6,5.71Z" transform="translate(-0.42 0)"/></svg>