<svg width="43" height="36" viewBox="0 0 43 36" fill="none" xmlns="http://www.w3.org/2000/svg">
<rect x="2" y="5.81641" width="28.1507" height="28.1833" stroke="#999999" stroke-width="4"/>
<mask id="path-2-outside-1" maskUnits="userSpaceOnUse" x="5.03809" y="0" width="38" height="30" fill="black">
<rect fill="white" x="5.03809" width="38" height="30"/>
<path fill-rule="evenodd" clip-rule="evenodd" d="M36.4823 3L39.999 6.5203L19.8436 26.6962L19.802 26.6545L19.7605 26.696L8.03809 14.9617L11.5548 11.4414L19.8021 19.6971L36.4823 3Z"/>
</mask>
<path fill-rule="evenodd" clip-rule="evenodd" d="M36.4823 3L39.999 6.5203L19.8436 26.6962L19.802 26.6545L19.7605 26.696L8.03809 14.9617L11.5548 11.4414L19.8021 19.6971L36.4823 3Z" fill="#00306E"/>
<path d="M39.999 6.5203L41.414 7.9338L42.826 6.5203L41.414 5.1068L39.999 6.5203ZM36.4823 3L37.8972 1.5865L36.4823 0.170138L35.0674 1.5865L36.4823 3ZM19.8436 26.6962L18.4287 28.1096L19.8436 29.526L21.2585 28.1097L19.8436 26.6962ZM19.802 26.6545L21.2169 25.241L19.802 23.8246L18.3871 25.241L19.802 26.6545ZM19.7605 26.696L18.3456 28.1095L19.7605 29.5259L21.1755 28.1095L19.7605 26.696ZM8.03809 14.9617L6.62316 13.5482L5.21109 14.9617L6.62316 16.3752L8.03809 14.9617ZM11.5548 11.4414L12.9697 10.0279L11.5548 8.61154L10.1399 10.0279L11.5548 11.4414ZM19.8021 19.6971L18.3872 21.1106L19.8021 22.5269L21.2171 21.1106L19.8021 19.6971ZM41.414 5.1068L37.8972 1.5865L35.0674 4.4135L38.5841 7.9338L41.414 5.1068ZM21.2585 28.1097L41.414 7.9338L38.5841 5.1068L18.4287 25.2827L21.2585 28.1097ZM18.3871 28.068L18.4287 28.1096L21.2585 25.2827L21.2169 25.241L18.3871 28.068ZM18.3871 25.241L18.3456 25.2826L21.1755 28.1095L21.2169 28.068L18.3871 25.241ZM21.1755 25.2825L9.45302 13.5482L6.62316 16.3752L18.3456 28.1095L21.1755 25.2825ZM9.45302 16.3752L12.9697 12.8549L10.1399 10.0279L6.62316 13.5482L9.45302 16.3752ZM10.1399 12.8549L18.3872 21.1106L21.2171 18.2836L12.9697 10.0279L10.1399 12.8549ZM35.0674 1.5865L18.3872 18.2836L21.2171 21.1106L37.8972 4.4135L35.0674 1.5865Z" fill="white" mask="url(#path-2-outside-1)"/>
</svg>
