<svg width="300" height="332" viewBox="0 0 300 332" fill="none" xmlns="http://www.w3.org/2000/svg">
<g filter="url(#filter0_d)">
<path d="M8 5H268V297H8V5Z" fill="white"/>
</g>
<path d="M188.672 229.669H87.9201C84.0982 229.669 81 226.57 81 222.749V162.212H195.592V222.749C195.592 226.57 192.494 229.669 188.672 229.669Z" fill="#F8F8F8"/>
<path d="M188.676 162.235V229.692C192.496 229.692 195.593 226.592 195.593 222.769V162.235H188.676Z" fill="#DDDDDD"/>
<path d="M101.869 183.914C101.213 183.259 100.15 183.259 99.4948 183.914L89.103 194.306C88.4474 194.962 88.4474 196.025 89.103 196.68L99.3572 206.934C99.6848 207.262 100.115 207.426 100.544 207.426C100.974 207.426 101.403 207.262 101.731 206.934C102.386 206.279 102.386 205.216 101.731 204.561L92.6636 195.493L101.868 186.288C102.524 185.633 102.524 184.57 101.869 183.914Z" fill="#11376B"/>
<path d="M137.824 194.306L127.432 183.914C126.776 183.259 125.713 183.259 125.058 183.914C124.403 184.57 124.403 185.633 125.058 186.288L134.263 195.493L125.195 204.56C124.54 205.216 124.54 206.279 125.195 206.934C125.523 207.262 125.953 207.426 126.382 207.426C126.812 207.426 127.242 207.262 127.569 206.934L137.824 196.68C138.479 196.025 138.479 194.962 137.824 194.306Z" fill="#11376B"/>
<path d="M120.209 177.669C119.342 177.34 118.373 177.776 118.044 178.643L105.756 211.015C105.427 211.881 105.863 212.851 106.73 213.18C106.926 213.254 107.127 213.289 107.325 213.289C108.002 213.289 108.64 212.877 108.895 212.206L121.182 179.834C121.511 178.968 121.076 177.998 120.209 177.669Z" fill="#11376B"/>
<path d="M161.323 183.973H150.486C148.576 183.973 147.027 182.425 147.027 180.515C147.027 178.605 148.576 177.056 150.486 177.056H161.323C163.233 177.056 164.781 178.605 164.781 180.515C164.781 182.425 163.233 183.973 161.323 183.973Z" fill="#C4C4C4" fill-opacity="0.8"/>
<path d="M179.076 197.808H150.486C148.576 197.808 147.027 196.259 147.027 194.349C147.027 192.439 148.576 190.89 150.486 190.89H179.076C180.986 190.89 182.535 192.439 182.535 194.349C182.535 196.259 180.986 197.808 179.076 197.808Z" fill="#C4C4C4" fill-opacity="0.8"/>
<path d="M170.583 211.642H150.486C148.576 211.642 147.027 210.093 147.027 208.183C147.027 206.273 148.576 204.724 150.486 204.724H170.583C172.493 204.724 174.042 206.273 174.042 208.183C174.042 210.093 172.493 211.642 170.583 211.642Z" fill="#C4C4C4" fill-opacity="0.8"/>
<path d="M195.592 164.615H81V154.92C81 151.098 84.0982 148 87.9201 148H188.672C192.494 148 195.592 151.098 195.592 154.92V164.615Z" fill="#11376B"/>
<path d="M188.676 148V164.615H195.593V154.923C195.593 151.1 192.496 148 188.676 148Z" fill="#002357"/>
<path d="M92.0699 159.88C93.98 159.88 95.5285 158.331 95.5285 156.421C95.5285 154.511 93.98 152.963 92.0699 152.963C90.1598 152.963 88.6113 154.511 88.6113 156.421C88.6113 158.331 90.1598 159.88 92.0699 159.88Z" fill="#F64E29"/>
<path d="M105.48 159.88C107.39 159.88 108.939 158.331 108.939 156.421C108.939 154.511 107.39 152.963 105.48 152.963C103.57 152.963 102.021 154.511 102.021 156.421C102.021 158.331 103.57 159.88 105.48 159.88Z" fill="#EACD56"/>
<path d="M118.89 159.88C120.8 159.88 122.349 158.331 122.349 156.421C122.349 154.511 120.8 152.963 118.89 152.963C116.98 152.963 115.432 154.511 115.432 156.421C115.432 158.331 116.98 159.88 118.89 159.88Z" fill="#A9E38D"/>
<path d="M153.764 244.573L146.412 237.221L144.37 239.263L151.722 246.615L153.764 244.573Z" fill="#C4C4C4"/>
<path d="M154.17 244.164L146.818 236.812L145.593 238.038L152.945 245.389L154.17 244.164Z" fill="#CBCBCB"/>
<path d="M166.902 254.45L173.029 265.48C171.002 267.507 167.704 267.507 165.676 265.48L163.225 263.029L166.902 254.45Z" fill="#C4C4C4"/>
<path d="M170.578 255.676L173.028 258.127C175.056 260.154 175.056 263.452 173.028 265.48L164.45 256.901L170.578 255.676Z" fill="#CBCBCB"/>
<path d="M163.224 263.029L146.812 246.617L150.488 242.94L158.777 251.063L166.9 259.352L163.224 263.029Z" fill="#11376B"/>
<path d="M170.58 255.672L154.171 239.262L150.495 242.938L166.904 259.348L170.58 255.672Z" fill="#3C5A84"/>
<path d="M120.993 213.444L141.275 220.205L148.035 240.487C140.568 247.954 128.46 247.954 120.993 240.487C113.526 233.019 113.525 220.912 120.993 213.444Z" fill="#C4C4C4"/>
<path d="M148.036 213.445C155.504 220.912 155.504 233.019 148.036 240.487L120.994 213.445C128.461 205.977 140.569 205.977 148.036 213.445Z" fill="#CBCBCB"/>
<path d="M120.131 227.485C120.131 235.462 126.597 241.928 134.573 241.928C142.55 241.928 149.016 235.462 149.016 227.485C149.016 219.509 142.55 213.043 134.573 213.043C126.597 213.043 120.131 219.509 120.131 227.485Z" fill="white"/>
<rect x="98" y="35" width="81" height="35" fill="#11376B"/>
<path d="M114.66 55.44C114.02 55.66 113.36 55.86 112.7 56.06V52.06H114.5V49.88H112.7V46.36H114.84V44.14H108.24V46.36H110.44V49.88H108.42V52.06H110.44V56.76C109.52 57.02 108.7 57.24 108 57.42L108.54 59.84C110.46 59.22 112.86 58.46 115.06 57.68L114.66 55.44ZM117.74 49.4H119.8V51.12H117.74V49.4ZM117.74 45.86H119.8V47.52H117.74V45.86ZM123.78 47.52H121.8V45.86H123.78V47.52ZM123.78 51.12H121.8V49.4H123.78V51.12ZM122.02 58.9V57H126.26V54.86H122.02V53.14H126.04V43.84H115.6V53.14H119.6V54.86H115.46V57H119.6V58.9H114.08V61.06H126.94V58.9H122.02Z" fill="white"/>
<path d="M138.58 49.76C138.96 50.16 139.36 50.72 139.54 51.12C139.68 51.06 139.82 50.98 139.96 50.92C139.72 52.34 139.24 53.8 138.58 54.82V49.76ZM135.5 54.7V53.04H136.64V54.7H135.5ZM132.8 53.04H133.94V54.7H132.78C132.8 54.24 132.8 53.8 132.8 53.38V53.04ZM134.9 46.66C134.72 47.16 134.54 47.68 134.34 48.12H132.62C132.86 47.66 133.08 47.16 133.3 46.66H134.9ZM135.5 49.86H136.64V51.36H135.5V49.86ZM132.8 49.86H133.94V51.36H132.8V49.86ZM148.26 56.26H144.86V54.46H147.86V52.46H144.86V50.66H142.6V52.46H141.62C141.74 52.04 141.82 51.6 141.9 51.18L140.12 50.82C142.16 49.7 142.92 48.04 143.26 45.96H145.58C145.5 47.62 145.4 48.3 145.22 48.52C145.08 48.7 144.92 48.74 144.68 48.74C144.4 48.74 143.86 48.72 143.24 48.66C143.54 49.16 143.74 49.96 143.78 50.58C144.58 50.6 145.36 50.58 145.8 50.52C146.3 50.44 146.68 50.28 147.02 49.86C147.46 49.34 147.62 47.96 147.72 44.78C147.74 44.52 147.76 44.02 147.76 44.02H138.88V45.96H141.12C140.84 47.42 140.24 48.58 138.58 49.34V48.12H136.34C136.76 47.3 137.16 46.38 137.44 45.6L136.08 44.76L135.78 44.86H133.96C134.12 44.4 134.26 43.92 134.38 43.44L132.28 43C131.74 45.34 130.68 47.68 129.32 49.14C129.74 49.42 130.48 50.02 130.88 50.42V53.38C130.88 55.62 130.78 58.6 129.44 60.66C129.88 60.86 130.74 61.4 131.08 61.72C132 60.28 132.46 58.34 132.66 56.46H136.64V59.34C136.64 59.6 136.54 59.68 136.3 59.68C136.06 59.68 135.28 59.68 134.48 59.64C134.78 60.18 135.1 61.08 135.16 61.66C136.38 61.66 137.2 61.6 137.82 61.26C138.42 60.92 138.58 60.32 138.58 59.38V55.16C139.08 55.38 139.8 55.76 140.14 56C140.44 55.56 140.7 55.04 140.94 54.46H142.6V56.26H138.9V58.3H142.6V61.6H144.86V58.3H148.26V56.26Z" fill="white"/>
<path d="M154.32 46.92H168.74V44.8H161.64V43.02H159.16V44.8H152.04V50.4C152.04 53.32 151.92 57.48 150.26 60.32C150.8 60.56 151.8 61.22 152.2 61.62C154.02 58.54 154.32 53.64 154.32 50.4V46.92ZM163.4 50.48V51.8H159.76V50.48H163.4ZM165.76 53.6V50.48H168.64V48.6H165.76V47.28H163.4V48.6H159.76V47.28H157.52V48.6H154.82V50.48H157.52V53.6H165.76ZM164.14 56.26C163.48 56.9 162.66 57.46 161.74 57.9C160.8 57.44 160 56.9 159.4 56.26H164.14ZM166.16 54.3L165.74 54.4H154.96V56.26H157.94L157 56.6C157.64 57.46 158.42 58.2 159.3 58.82C157.72 59.28 155.96 59.56 154.12 59.72C154.48 60.22 154.9 61.12 155.08 61.72C157.46 61.42 159.7 60.94 161.66 60.16C163.4 60.94 165.44 61.46 167.74 61.74C168.04 61.12 168.66 60.2 169.14 59.7C167.34 59.54 165.68 59.26 164.22 58.84C165.66 57.88 166.84 56.64 167.64 55.04L166.16 54.3Z" fill="white"/>
<path d="M72.534 93.56L66.57 98.81L63 94.694L72.702 86.504H78.582V116.24H72.534V93.56Z" fill="#11376B"/>
<path d="M93.2655 98.222H95.3235C95.9115 98.222 96.4855 98.18 97.0455 98.096C97.6055 98.012 98.1095 97.858 98.5575 97.634C99.0335 97.382 99.4115 97.046 99.6915 96.626C99.9715 96.178 100.111 95.604 100.111 94.904C100.111 94.008 99.7475 93.266 99.0195 92.678C98.3195 92.09 97.4515 91.796 96.4155 91.796C95.4355 91.796 94.6235 92.062 93.9795 92.594C93.3355 93.126 92.9155 93.784 92.7195 94.568L85.7895 93.14C86.1255 91.852 86.6295 90.76 87.3015 89.864C87.9735 88.94 88.7715 88.198 89.6955 87.638C90.6195 87.078 91.6415 86.672 92.7615 86.42C93.9095 86.14 95.1135 86 96.3735 86C97.6895 86 98.9495 86.168 100.153 86.504C101.385 86.812 102.463 87.316 103.387 88.016C104.311 88.688 105.039 89.542 105.571 90.578C106.131 91.614 106.411 92.846 106.411 94.274C106.411 95.926 105.977 97.34 105.109 98.516C104.241 99.692 102.981 100.448 101.329 100.784V100.91C102.225 101.022 103.009 101.288 103.681 101.708C104.381 102.128 104.969 102.646 105.445 103.262C105.921 103.878 106.285 104.578 106.537 105.362C106.789 106.146 106.915 106.972 106.915 107.84C106.915 109.324 106.621 110.626 106.033 111.746C105.473 112.866 104.703 113.804 103.723 114.56C102.771 115.288 101.637 115.834 100.321 116.198C99.0335 116.562 97.6615 116.744 96.2055 116.744C93.5455 116.744 91.2495 116.128 89.3175 114.896C87.4135 113.664 86.1535 111.718 85.5375 109.058L92.1735 107.504C92.3975 108.568 92.8455 109.408 93.5175 110.024C94.2175 110.64 95.2395 110.948 96.5835 110.948C97.9555 110.948 98.9635 110.598 99.6075 109.898C100.279 109.17 100.615 108.246 100.615 107.126C100.615 106.286 100.433 105.642 100.069 105.194C99.7335 104.718 99.2855 104.368 98.7255 104.144C98.1655 103.92 97.5355 103.794 96.8355 103.766C96.1355 103.71 95.4355 103.682 94.7355 103.682H93.2655V98.222Z" fill="#11376B"/>
<path d="M121.503 97.13C121.839 97.046 122.175 96.976 122.511 96.92C122.847 96.864 123.197 96.836 123.561 96.836C124.961 96.836 126.235 97.088 127.383 97.592C128.531 98.096 129.511 98.782 130.323 99.65C131.135 100.518 131.765 101.554 132.213 102.758C132.661 103.934 132.885 105.194 132.885 106.538C132.885 108.078 132.591 109.478 132.003 110.738C131.443 111.97 130.659 113.034 129.651 113.93C128.671 114.826 127.495 115.526 126.123 116.03C124.779 116.506 123.337 116.744 121.797 116.744C120.229 116.744 118.773 116.506 117.429 116.03C116.085 115.526 114.909 114.826 113.901 113.93C112.921 113.034 112.137 111.97 111.549 110.738C110.989 109.478 110.709 108.078 110.709 106.538C110.709 105.474 110.807 104.508 111.003 103.64C111.199 102.744 111.451 101.904 111.759 101.12C112.095 100.336 112.473 99.594 112.893 98.894C113.341 98.166 113.803 97.424 114.279 96.668L120.789 86.504H128.475L121.503 97.13ZM126.585 106.286C126.585 104.942 126.137 103.836 125.241 102.968C124.373 102.072 123.225 101.624 121.797 101.624C120.369 101.624 119.207 102.072 118.311 102.968C117.443 103.836 117.009 104.942 117.009 106.286C117.009 107.63 117.443 108.75 118.311 109.646C119.207 110.514 120.369 110.948 121.797 110.948C123.225 110.948 124.373 110.514 125.241 109.646C126.137 108.75 126.585 107.63 126.585 106.286Z" fill="#11376B"/>
<path d="M151.976 109.882C151.976 108.953 152.146 108.08 152.486 107.264C152.849 106.448 153.325 105.734 153.914 105.122C154.526 104.51 155.24 104.034 156.056 103.694C156.872 103.331 157.745 103.15 158.674 103.15C159.604 103.15 160.476 103.331 161.292 103.694C162.108 104.034 162.811 104.51 163.4 105.122C164.012 105.734 164.488 106.448 164.828 107.264C165.191 108.08 165.372 108.953 165.372 109.882C165.372 110.811 165.191 111.695 164.828 112.534C164.488 113.35 164.012 114.064 163.4 114.676C162.811 115.288 162.108 115.775 161.292 116.138C160.476 116.478 159.604 116.648 158.674 116.648C157.745 116.648 156.872 116.478 156.056 116.138C155.24 115.775 154.526 115.288 153.914 114.676C153.325 114.064 152.849 113.35 152.486 112.534C152.146 111.695 151.976 110.811 151.976 109.882ZM161.904 109.882C161.904 108.975 161.587 108.205 160.952 107.57C160.34 106.935 159.581 106.618 158.674 106.618C157.768 106.618 156.997 106.935 156.362 107.57C155.75 108.205 155.444 108.975 155.444 109.882C155.444 110.811 155.75 111.593 156.362 112.228C156.997 112.863 157.768 113.18 158.674 113.18C159.581 113.18 160.34 112.863 160.952 112.228C161.587 111.593 161.904 110.811 161.904 109.882ZM134.874 98.492C134.874 97.5627 135.044 96.69 135.384 95.874C135.747 95.058 136.223 94.344 136.812 93.732C137.424 93.12 138.138 92.644 138.954 92.304C139.77 91.9413 140.643 91.76 141.572 91.76C142.502 91.76 143.374 91.9413 144.19 92.304C145.006 92.644 145.709 93.12 146.298 93.732C146.91 94.344 147.386 95.058 147.726 95.874C148.089 96.69 148.27 97.5627 148.27 98.492C148.27 99.4213 148.089 100.294 147.726 101.11C147.386 101.926 146.91 102.64 146.298 103.252C145.709 103.864 145.006 104.351 144.19 104.714C143.374 105.054 142.502 105.224 141.572 105.224C140.643 105.224 139.77 105.054 138.954 104.714C138.138 104.351 137.424 103.864 136.812 103.252C136.223 102.64 135.747 101.926 135.384 101.11C135.044 100.294 134.874 99.4213 134.874 98.492ZM144.802 98.492C144.802 97.5853 144.485 96.8147 143.85 96.18C143.238 95.5453 142.479 95.228 141.572 95.228C140.666 95.228 139.895 95.5453 139.26 96.18C138.648 96.8147 138.342 97.5853 138.342 98.492C138.342 99.3987 138.648 100.169 139.26 100.804C139.895 101.439 140.666 101.756 141.572 101.756C142.479 101.756 143.238 101.439 143.85 100.804C144.485 100.169 144.802 99.3987 144.802 98.492ZM155.614 91.08L158.47 92.678L144.428 117.328L141.844 115.866L155.614 91.08Z" fill="#11376B"/>
<path d="M188.696 106.958C188.696 108.386 188.481 109.701 188.05 110.902C187.619 112.103 186.973 113.146 186.112 114.03C185.273 114.914 184.219 115.605 182.95 116.104C181.681 116.603 180.219 116.852 178.564 116.852C176.887 116.852 175.413 116.603 174.144 116.104C172.875 115.605 171.809 114.914 170.948 114.03C170.109 113.146 169.475 112.103 169.044 110.902C168.613 109.701 168.398 108.386 168.398 106.958V92.168H173.702V106.754C173.702 107.502 173.815 108.193 174.042 108.828C174.291 109.463 174.631 110.018 175.062 110.494C175.493 110.947 176.003 111.31 176.592 111.582C177.204 111.831 177.861 111.956 178.564 111.956C179.267 111.956 179.913 111.831 180.502 111.582C181.091 111.31 181.601 110.947 182.032 110.494C182.463 110.018 182.791 109.463 183.018 108.828C183.267 108.193 183.392 107.502 183.392 106.754V92.168H188.696V106.958Z" fill="#11376B"/>
<path d="M193.999 92.168H202.941C204.188 92.168 205.367 92.2813 206.477 92.508C207.588 92.7347 208.551 93.1313 209.367 93.698C210.206 94.242 210.863 94.99 211.339 95.942C211.838 96.8713 212.087 98.05 212.087 99.478C212.087 100.883 211.861 102.062 211.407 103.014C210.954 103.966 210.331 104.725 209.537 105.292C208.744 105.859 207.803 106.267 206.715 106.516C205.627 106.743 204.449 106.856 203.179 106.856H199.303V116.24H193.999V92.168ZM199.303 102.368H202.839C203.315 102.368 203.769 102.323 204.199 102.232C204.653 102.141 205.049 101.994 205.389 101.79C205.752 101.563 206.035 101.269 206.239 100.906C206.466 100.521 206.579 100.045 206.579 99.478C206.579 98.866 206.432 98.3787 206.137 98.016C205.865 97.6307 205.503 97.336 205.049 97.132C204.619 96.928 204.131 96.8033 203.587 96.758C203.043 96.69 202.522 96.656 202.023 96.656H199.303V102.368Z" fill="#11376B"/>
<defs>
<filter id="filter0_d" x="0" y="0" width="300" height="332" filterUnits="userSpaceOnUse" color-interpolation-filters="sRGB">
<feFlood flood-opacity="0" result="BackgroundImageFix"/>
<feColorMatrix in="SourceAlpha" type="matrix" values="0 0 0 0 0 0 0 0 0 0 0 0 0 0 0 0 0 0 127 0"/>
<feOffset dx="12" dy="15"/>
<feGaussianBlur stdDeviation="10"/>
<feColorMatrix type="matrix" values="0 0 0 0 0.180392 0 0 0 0 0.239216 0 0 0 0 0.286275 0 0 0 0.15 0"/>
<feBlend mode="normal" in2="BackgroundImageFix" result="effect1_dropShadow"/>
<feBlend mode="normal" in="SourceGraphic" in2="effect1_dropShadow" result="shape"/>
</filter>
</defs>
</svg>
