<svg width="300" height="332" viewBox="0 0 300 332" fill="none" xmlns="http://www.w3.org/2000/svg">
<g filter="url(#filter0_d)">
<path d="M8 5H268V297H8V5Z" fill="white"/>
</g>
<path d="M104.843 211.017C103.934 210.642 102.886 210.848 102.189 211.539L94.1741 219.499L86.1587 211.539C85.2091 210.594 83.6675 210.592 82.7154 211.535C82.2563 211.989 81.9989 212.606 82 213.25V261.583C82 262.918 83.0902 264 84.4349 264H103.913C105.258 264 106.348 262.918 106.348 261.583V213.25C106.348 212.272 105.754 211.39 104.843 211.017Z" fill="#C4C4C4"/>
<path d="M125.117 192.206C124.166 191.262 122.625 191.262 121.674 192.206L111.935 201.872C111.476 202.326 111.219 202.941 111.219 203.583V261.583C111.219 262.918 112.309 264 113.654 264H133.132C134.477 264 135.567 262.918 135.567 261.583V203.583C135.568 202.942 135.312 202.326 134.856 201.872L125.117 192.206Z" fill="#43699D"/>
<path d="M154.335 182.539C153.385 181.595 151.843 181.595 150.893 182.539L141.153 192.206C140.695 192.659 140.438 193.274 140.438 193.917V261.583C140.438 262.918 141.528 264 142.872 264H162.351C163.695 264 164.785 262.918 164.785 261.583V193.917C164.787 193.275 164.531 192.66 164.074 192.206L154.335 182.539Z" fill="#254B7F"/>
<path d="M193.29 177.706L188.42 172.872C187.963 172.42 187.342 172.166 186.696 172.167H181.826C181.18 172.166 180.56 172.419 180.103 172.872L170.363 182.539C169.907 182.993 169.651 183.609 169.652 184.25V261.583C169.652 262.918 170.743 264 172.087 264H191.565C192.91 264 194 262.918 194 261.583V179.417C194.001 178.775 193.746 178.16 193.29 177.706Z" fill="#11376B"/>
<path d="M191.565 148H176.956C175.611 147.998 174.519 149.078 174.517 150.412C174.515 151.056 174.773 151.673 175.232 152.128L180.817 157.667L162.347 175.999L154.332 168.039C153.381 167.096 151.84 167.096 150.889 168.039L133.129 185.666L125.114 177.706C124.163 176.762 122.622 176.762 121.671 177.706L94.1729 204.999L86.1575 197.039C85.1904 196.112 83.6489 196.138 82.7147 197.098C81.8034 198.035 81.8034 199.52 82.7147 200.456L92.4539 210.123C93.4046 211.066 94.9458 211.066 95.8968 210.123L123.39 182.834L131.406 190.789C132.357 191.733 133.898 191.733 134.849 190.789L152.608 173.167L160.623 181.123C161.574 182.066 163.115 182.066 164.066 181.123L184.26 161.084L189.841 166.623C190.297 167.078 190.918 167.333 191.565 167.333C191.884 167.334 192.2 167.272 192.495 167.15C193.405 166.776 193.999 165.895 193.999 164.917V150.417C193.999 149.082 192.909 148 191.565 148Z" fill="#11376B"/>
<path d="M71.534 93.56L65.57 98.81L62 94.694L71.702 86.504H77.582V116.24H71.534V93.56Z" fill="#11376B"/>
<path d="M98.6795 110.276H85.7015V104.984L97.8395 86.504H104.727V104.984H108.549V110.276H104.727V116.24H98.6795V110.276ZM98.6795 94.736H98.5955L92.0015 104.984H98.6795V94.736Z" fill="#11376B"/>
<path d="M111.335 101.372C111.335 99.608 111.489 97.816 111.797 95.996C112.133 94.176 112.707 92.524 113.519 91.04C114.359 89.556 115.493 88.352 116.921 87.428C118.349 86.476 120.169 86 122.381 86C124.593 86 126.413 86.476 127.841 87.428C129.269 88.352 130.389 89.556 131.201 91.04C132.041 92.524 132.615 94.176 132.923 95.996C133.259 97.816 133.427 99.608 133.427 101.372C133.427 103.136 133.259 104.928 132.923 106.748C132.615 108.568 132.041 110.22 131.201 111.704C130.389 113.188 129.269 114.406 127.841 115.358C126.413 116.282 124.593 116.744 122.381 116.744C120.169 116.744 118.349 116.282 116.921 115.358C115.493 114.406 114.359 113.188 113.519 111.704C112.707 110.22 112.133 108.568 111.797 106.748C111.489 104.928 111.335 103.136 111.335 101.372ZM117.635 101.372C117.635 102.156 117.663 103.094 117.719 104.186C117.803 105.278 117.999 106.328 118.307 107.336C118.615 108.344 119.077 109.198 119.693 109.898C120.337 110.598 121.233 110.948 122.381 110.948C123.501 110.948 124.383 110.598 125.027 109.898C125.671 109.198 126.147 108.344 126.455 107.336C126.763 106.328 126.945 105.278 127.001 104.186C127.085 103.094 127.127 102.156 127.127 101.372C127.127 100.588 127.085 99.65 127.001 98.558C126.945 97.466 126.763 96.416 126.455 95.408C126.147 94.4 125.671 93.546 125.027 92.846C124.383 92.146 123.501 91.796 122.381 91.796C121.233 91.796 120.337 92.146 119.693 92.846C119.077 93.546 118.615 94.4 118.307 95.408C117.999 96.416 117.803 97.466 117.719 98.558C117.663 99.65 117.635 100.588 117.635 101.372Z" fill="#11376B"/>
<path d="M152.976 109.882C152.976 108.953 153.146 108.08 153.486 107.264C153.849 106.448 154.325 105.734 154.914 105.122C155.526 104.51 156.24 104.034 157.056 103.694C157.872 103.331 158.745 103.15 159.674 103.15C160.604 103.15 161.476 103.331 162.292 103.694C163.108 104.034 163.811 104.51 164.4 105.122C165.012 105.734 165.488 106.448 165.828 107.264C166.191 108.08 166.372 108.953 166.372 109.882C166.372 110.811 166.191 111.695 165.828 112.534C165.488 113.35 165.012 114.064 164.4 114.676C163.811 115.288 163.108 115.775 162.292 116.138C161.476 116.478 160.604 116.648 159.674 116.648C158.745 116.648 157.872 116.478 157.056 116.138C156.24 115.775 155.526 115.288 154.914 114.676C154.325 114.064 153.849 113.35 153.486 112.534C153.146 111.695 152.976 110.811 152.976 109.882ZM162.904 109.882C162.904 108.975 162.587 108.205 161.952 107.57C161.34 106.935 160.581 106.618 159.674 106.618C158.768 106.618 157.997 106.935 157.362 107.57C156.75 108.205 156.444 108.975 156.444 109.882C156.444 110.811 156.75 111.593 157.362 112.228C157.997 112.863 158.768 113.18 159.674 113.18C160.581 113.18 161.34 112.863 161.952 112.228C162.587 111.593 162.904 110.811 162.904 109.882ZM135.874 98.492C135.874 97.5627 136.044 96.69 136.384 95.874C136.747 95.058 137.223 94.344 137.812 93.732C138.424 93.12 139.138 92.644 139.954 92.304C140.77 91.9413 141.643 91.76 142.572 91.76C143.502 91.76 144.374 91.9413 145.19 92.304C146.006 92.644 146.709 93.12 147.298 93.732C147.91 94.344 148.386 95.058 148.726 95.874C149.089 96.69 149.27 97.5627 149.27 98.492C149.27 99.4213 149.089 100.294 148.726 101.11C148.386 101.926 147.91 102.64 147.298 103.252C146.709 103.864 146.006 104.351 145.19 104.714C144.374 105.054 143.502 105.224 142.572 105.224C141.643 105.224 140.77 105.054 139.954 104.714C139.138 104.351 138.424 103.864 137.812 103.252C137.223 102.64 136.747 101.926 136.384 101.11C136.044 100.294 135.874 99.4213 135.874 98.492ZM145.802 98.492C145.802 97.5853 145.485 96.8147 144.85 96.18C144.238 95.5453 143.479 95.228 142.572 95.228C141.666 95.228 140.895 95.5453 140.26 96.18C139.648 96.8147 139.342 97.5853 139.342 98.492C139.342 99.3987 139.648 100.169 140.26 100.804C140.895 101.439 141.666 101.756 142.572 101.756C143.479 101.756 144.238 101.439 144.85 100.804C145.485 100.169 145.802 99.3987 145.802 98.492ZM156.614 91.08L159.47 92.678L145.428 117.328L142.844 115.866L156.614 91.08Z" fill="#11376B"/>
<path d="M190.696 106.958C190.696 108.386 190.481 109.701 190.05 110.902C189.619 112.103 188.973 113.146 188.112 114.03C187.273 114.914 186.219 115.605 184.95 116.104C183.681 116.603 182.219 116.852 180.564 116.852C178.887 116.852 177.413 116.603 176.144 116.104C174.875 115.605 173.809 114.914 172.948 114.03C172.109 113.146 171.475 112.103 171.044 110.902C170.613 109.701 170.398 108.386 170.398 106.958V92.168H175.702V106.754C175.702 107.502 175.815 108.193 176.042 108.828C176.291 109.463 176.631 110.018 177.062 110.494C177.493 110.947 178.003 111.31 178.592 111.582C179.204 111.831 179.861 111.956 180.564 111.956C181.267 111.956 181.913 111.831 182.502 111.582C183.091 111.31 183.601 110.947 184.032 110.494C184.463 110.018 184.791 109.463 185.018 108.828C185.267 108.193 185.392 107.502 185.392 106.754V92.168H190.696V106.958Z" fill="#11376B"/>
<path d="M195.999 92.168H204.941C206.188 92.168 207.367 92.2813 208.477 92.508C209.588 92.7347 210.551 93.1313 211.367 93.698C212.206 94.242 212.863 94.99 213.339 95.942C213.838 96.8713 214.087 98.05 214.087 99.478C214.087 100.883 213.861 102.062 213.407 103.014C212.954 103.966 212.331 104.725 211.537 105.292C210.744 105.859 209.803 106.267 208.715 106.516C207.627 106.743 206.449 106.856 205.179 106.856H201.303V116.24H195.999V92.168ZM201.303 102.368H204.839C205.315 102.368 205.769 102.323 206.199 102.232C206.653 102.141 207.049 101.994 207.389 101.79C207.752 101.563 208.035 101.269 208.239 100.906C208.466 100.521 208.579 100.045 208.579 99.478C208.579 98.866 208.432 98.3787 208.137 98.016C207.865 97.6307 207.503 97.336 207.049 97.132C206.619 96.928 206.131 96.8033 205.587 96.758C205.043 96.69 204.522 96.656 204.023 96.656H201.303V102.368Z" fill="#11376B"/>
<rect x="98" y="35" width="81" height="35" fill="#11376B"/>
<path d="M119.74 49.25H117.14V47.99H119.74V49.25ZM119.74 52.49H117.14V51.17H119.74V52.49ZM119.74 55.77H117.14V54.41H119.74V55.77ZM114.84 57.77H126.32V55.77H122.02V54.41H125.36V52.49H122.02V51.17H125.44V49.25H122.02V47.99H125.98V45.99H122.44C122.8 45.31 123.16 44.57 123.52 43.85L120.9 43.35C120.7 44.13 120.4 45.11 120.06 45.99H117.78C118.16 45.29 118.5 44.59 118.8 43.87L116.44 43.19C115.52 45.57 113.86 47.87 112.02 49.27C112.52 49.71 113.4 50.67 113.76 51.15C114.12 50.83 114.48 50.49 114.84 50.11V57.77ZM113.28 46.81C112.64 45.85 111.26 44.53 110.14 43.63L108.32 44.99C109.44 45.95 110.76 47.33 111.32 48.31L113.28 46.81ZM112.74 50.89H108.24V53.07H110.48V57.43C109.68 58.11 108.78 58.77 108 59.27L109.12 61.63C110.14 60.77 110.96 60.01 111.76 59.23C112.96 60.77 114.56 61.35 116.94 61.45C119.38 61.55 123.62 61.51 126.1 61.39C126.22 60.73 126.56 59.63 126.84 59.07C124.08 59.29 119.36 59.35 116.96 59.25C114.92 59.17 113.52 58.61 112.74 57.27V50.89Z" fill="white"/>
<path d="M145.08 52.21C143.88 56.91 141.12 58.97 135.72 59.85C136.16 60.35 136.66 61.19 136.86 61.85C142.8 60.57 145.86 58.15 147.26 52.71L145.08 52.21ZM137.6 51.89C137.16 53.33 136.26 54.71 135.14 55.57C135.62 55.89 136.46 56.53 136.84 56.91C138.02 55.85 139.12 54.15 139.7 52.35L137.6 51.89ZM142.96 48.99V47.29H146.94V45.33H142.96V43.15H140.76V48.99H139.28V45.07H137.2V48.99H135.7V46.91H133.88V43.15H131.72V46.91H129.62V49.09H131.72V52.55C130.82 52.77 129.98 52.99 129.3 53.13L129.82 55.41C130.4 55.25 131.06 55.07 131.72 54.87V59.29C131.72 59.55 131.62 59.63 131.38 59.63C131.14 59.65 130.44 59.65 129.72 59.61C130 60.25 130.26 61.23 130.32 61.81C131.64 61.83 132.48 61.75 133.1 61.37C133.7 60.99 133.88 60.39 133.88 59.29V54.23C134.52 54.05 135.16 53.85 135.8 53.65L135.5 51.51L133.88 51.97V49.09H135.6V51.07H140.74V55.09C140.74 55.27 140.68 55.35 140.48 55.35C140.26 55.35 139.56 55.35 138.9 55.33C139.16 55.95 139.34 56.79 139.38 57.41C140.58 57.41 141.48 57.41 142.12 57.09C142.82 56.77 142.96 56.17 142.96 55.13V51.07H147.98V48.99H142.96Z" fill="white"/>
<path d="M155.42 52.97L155.06 51.49C153.22 52.21 151.3 52.95 150.04 53.35L151.16 55.27C152.24 54.79 153.56 54.17 154.82 53.55L155.06 54.93C156.98 54.79 159.42 54.61 161.84 54.39C162.02 54.75 162.16 55.09 162.26 55.39L164.06 54.59C163.92 54.17 163.68 53.67 163.38 53.15C164.6 53.85 165.88 54.73 166.56 55.33L168.28 53.91C167.34 53.13 165.48 52.03 164.1 51.35L162.88 52.33C162.56 51.85 162.2 51.37 161.88 50.95L160.2 51.65C160.44 51.99 160.7 52.35 160.92 52.73L158.86 52.83C160.14 51.63 161.48 50.23 162.58 48.93L160.72 48.07C160.22 48.79 159.6 49.59 158.9 50.41C158.6 50.17 158.26 49.93 157.9 49.67C158.48 48.99 159.14 48.17 159.76 47.37L159.32 47.21H167.6V45.09H160.38V43.15H157.94V45.09H150.9V47.21H157.44C157.16 47.71 156.84 48.25 156.5 48.75L156.02 48.45L155.1 49.57C154.36 48.95 153.14 48.17 152.22 47.67L150.64 48.97C151.7 49.57 153.02 50.53 153.64 51.17L155.1 49.95C155.94 50.49 156.9 51.19 157.62 51.81C157.24 52.19 156.86 52.57 156.48 52.93L155.42 52.97ZM164.66 50.95C165.56 50.33 166.72 49.43 167.74 48.49L165.62 47.47C164.94 48.29 163.82 49.33 162.92 50.01L164.66 50.95ZM160.38 54.77H157.94V56.05H150.26V58.25H157.94V61.81H160.38V58.25H168.22V56.05H160.38V54.77Z" fill="white"/>
<defs>
<filter id="filter0_d" x="0" y="0" width="300" height="332" filterUnits="userSpaceOnUse" color-interpolation-filters="sRGB">
<feFlood flood-opacity="0" result="BackgroundImageFix"/>
<feColorMatrix in="SourceAlpha" type="matrix" values="0 0 0 0 0 0 0 0 0 0 0 0 0 0 0 0 0 0 127 0"/>
<feOffset dx="12" dy="15"/>
<feGaussianBlur stdDeviation="10"/>
<feColorMatrix type="matrix" values="0 0 0 0 0.180392 0 0 0 0 0.239216 0 0 0 0 0.286275 0 0 0 0.15 0"/>
<feBlend mode="normal" in2="BackgroundImageFix" result="effect1_dropShadow"/>
<feBlend mode="normal" in="SourceGraphic" in2="effect1_dropShadow" result="shape"/>
</filter>
</defs>
</svg>
