<svg xmlns="http://www.w3.org/2000/svg" viewBox="0 0 876.58 579.75"><defs><style>.cls-1,.cls-3,.cls-4{fill:#11376b;}.cls-2{fill:#fff;}.cls-3{opacity:0.45;}.cls-4{stroke:#11376b;stroke-linecap:round;stroke-linejoin:round;}.cls-5{fill:#121212;}</style></defs><title>pict-schedule-1day_pc</title><g id="レイヤー_2" data-name="レイヤー 2"><g id="レイヤー_1-2" data-name="レイヤー 1"><g id="pict-schedule-1day_pc"><path class="cls-1" d="M42,485.09H29v12.25H23.75V485.09h-13v-5h13v-6.27h-5a33.76,33.76,0,0,1-3.94,5.83,38.78,38.78,0,0,0-4.73-3.06c2.88-2.71,5.38-7.37,6.68-12l5.36,1.27a32,32,0,0,1-1.1,3H39.22v4.91H29v6.27H42Z"/><path class="cls-1" d="M85,469.66v4.49H53.45v-4.49H60.1a19.07,19.07,0,0,0-2.26-3.29l4.77-1.65A16.68,16.68,0,0,1,65.69,469l-1.88.65h9a28.77,28.77,0,0,0,2.58-5l5.45,1.57c-.75,1.2-1.54,2.37-2.3,3.4Zm-15.57,23c0,2-.38,3.12-1.65,3.8s-2.84.79-4.87.79a16.41,16.41,0,0,0-1.54-4.18,23,23,0,0,0,2.71,0c.41,0,.55-.14.55-.51v-2.16H59.86v6.68h-4.7v-21H69.4Zm-9.54-12.42v1.44H64.6v-1.44Zm4.74,6.58V485.3H59.86v1.54Zm11.59,3.71H71.63V476.49h4.56Zm2.26-15h4.91v16.5c0,2.3-.41,3.54-1.92,4.29s-3.4.89-5.83.86a17.76,17.76,0,0,0-1.75-4.7c1.54.1,3.33.1,3.87.07s.72-.14.72-.59Z"/><path class="cls-1" d="M432.11,485.09h-13v12.25H413.9V485.09h-13v-5h13v-6.27h-5a34.34,34.34,0,0,1-3.95,5.83,38.78,38.78,0,0,0-4.73-3.06c2.88-2.71,5.38-7.37,6.69-12l5.35,1.27a32,32,0,0,1-1.1,3h18.18v4.91H419.11v6.27h13Z"/><path class="cls-1" d="M454.23,474a37.57,37.57,0,0,1-2.4,4v19.39H447.2V483.65a22.91,22.91,0,0,1-2,1.86,33.43,33.43,0,0,0-2.54-4.7,26,26,0,0,0,7.24-8.44Zm-.48-7.48a43.69,43.69,0,0,1-8.3,8.58,35.62,35.62,0,0,0-2.57-3.64,27.48,27.48,0,0,0,6.48-6.69Zm19.15,17.29A18.85,18.85,0,0,1,468,491.2a33.24,33.24,0,0,0,8.09,2,18.94,18.94,0,0,0-2.94,4.26,27.2,27.2,0,0,1-9.27-3.3,34.18,34.18,0,0,1-9.26,3.37,15.93,15.93,0,0,0-2.33-4.19,29.51,29.51,0,0,0,7.61-2.19,21.2,21.2,0,0,1-2-2.27,22.45,22.45,0,0,1-2.47,1.68,26.56,26.56,0,0,0-3.19-3.7,20.34,20.34,0,0,0,7.17-5.7l-6.28.18-.37-4.36c1.54,0,3.29,0,5.24,0,.35-.28.66-.55,1-.86a37.16,37.16,0,0,0-5.8-4.67l2.95-3.22c.58.34,1.2.75,1.82,1.16a33.75,33.75,0,0,0,3.36-4.83l4.29,2.23c-1.48,1.71-3.09,3.53-4.46,4.94a12.41,12.41,0,0,1,1.3,1.13,53.47,53.47,0,0,0,5.15-5.8l4.42,2.44c-2.4,2.47-5.18,5.11-7.89,7.41l4.43,0c-.45-.61-.86-1.2-1.31-1.75l3.85-2.09a30.75,30.75,0,0,1,5,7.58l-4.18,2.33a14.46,14.46,0,0,0-1-2.12l-6,.2a15.14,15.14,0,0,1-1,1.61H469l.79-.17ZM461,486.26a14.31,14.31,0,0,0,2.78,2.64,15.34,15.34,0,0,0,2.64-2.64Z"/><rect class="cls-2" x="2" y="3.01" width="92.01" height="406.71" rx="3.87"/><path class="cls-1" d="M90.14,411.72H5.87A5.88,5.88,0,0,1,0,405.85V6.88A5.87,5.87,0,0,1,5.87,1H90.14A5.88,5.88,0,0,1,96,6.88v399A5.89,5.89,0,0,1,90.14,411.72ZM5.87,5A1.87,1.87,0,0,0,4,6.88v399a1.87,1.87,0,0,0,1.87,1.87H90.14A1.87,1.87,0,0,0,92,405.85V6.88A1.87,1.87,0,0,0,90.14,5Z"/><rect class="cls-2" x="392.07" y="2" width="92.01" height="406.71" rx="3.87"/><path class="cls-1" d="M480.2,410.71H395.94a5.88,5.88,0,0,1-5.87-5.87V5.87A5.87,5.87,0,0,1,395.94,0H480.2a5.87,5.87,0,0,1,5.87,5.87v399A5.88,5.88,0,0,1,480.2,410.71ZM395.94,4a1.87,1.87,0,0,0-1.87,1.87v399a1.87,1.87,0,0,0,1.87,1.87H480.2a1.87,1.87,0,0,0,1.87-1.87V5.87A1.87,1.87,0,0,0,480.2,4Z"/><rect class="cls-2" x="782.57" y="3.01" width="92.01" height="406.71" rx="3.87"/><path class="cls-1" d="M870.71,411.72H786.44a5.89,5.89,0,0,1-5.87-5.87V6.88A5.88,5.88,0,0,1,786.44,1h84.27a5.87,5.87,0,0,1,5.87,5.87v399A5.88,5.88,0,0,1,870.71,411.72ZM786.44,5a1.87,1.87,0,0,0-1.87,1.87v399a1.87,1.87,0,0,0,1.87,1.87h84.27a1.87,1.87,0,0,0,1.87-1.87V6.88A1.87,1.87,0,0,0,870.71,5Z"/><rect class="cls-1" x="159.73" y="2" width="92.01" height="406.71"/><path class="cls-1" d="M68,183.88c0,3.06-.54,4.86-2.34,5.94S61.38,191,57.87,191A22.52,22.52,0,0,0,56,184.55a42,42,0,0,0,4.68.09c.68,0,.9-.22.9-.9V177h-6c-.86,5.17-2.57,10.35-5.76,14.08a26.21,26.21,0,0,0-5.36-3.46,19.77,19.77,0,0,0,2.25-3.24h-5.8V191H34.56v-6.57H27V178.7h7.56V177H28.44v-17.1h6.12v-1.71H27.18v-5.72h7.38v-4.14h6.35v4.14h7.38v5.72H40.91v1.71h6.66V177H40.91v1.75h7.2v2.57C50,176,50.22,170,50.22,165.2V150.26H68ZM34.16,166.19h7.42v-1.66H34.16Zm0,6.08h7.42v-1.71H34.16Zm27.4-1.13v-4.27H56.48c0,1.35-.09,2.79-.18,4.27Zm-5.08-15v4.9h5.08v-4.9Z"/><path class="cls-1" d="M37.85,220.6a50.72,50.72,0,0,1-7.38,4.23,25.87,25.87,0,0,0-3.87-5.49c7.69-3.24,14.71-9.59,17.95-14.67h6.93A38,38,0,0,0,70.2,218.35a32.49,32.49,0,0,0-4.23,6,54.08,54.08,0,0,1-7.24-4.09v3.69H37.85Zm20,12.1a56.83,56.83,0,0,1,9.49,10.94l-6.12,3.69a26.09,26.09,0,0,0-1.62-2.66c-10.35.59-21.24,1.08-28.93,1.44l-.86-6.39c2.07,0,4.37-.13,6.89-.22a59.48,59.48,0,0,0,2.65-6.8H29.66v-6.07H67.14v6.07Zm-2.34-14.76a36.83,36.83,0,0,1-7.2-7,41.48,41.48,0,0,1-6.89,7Zm-8.1,14.76c-1.13,2.21-2.3,4.5-3.42,6.57l11-.4c-1.17-1.31-2.39-2.57-3.56-3.69l4.77-2.48Z"/><path class="cls-1" d="M452.66,169.18c1.76,5.08,4.59,9.67,8.51,12.28a26.85,26.85,0,0,0-4.82,5.72,24.15,24.15,0,0,1-6.16-7.38v8H428.9v-13.1c-1.12,4.59-3.1,9.14-6.43,12.51a27.08,27.08,0,0,0-5-4.63c5.8-5.8,6.3-14.35,6.3-20.25v-6.16h32.71v13ZM420.4,189.61h38.29v5.89H420.4Zm26.28-18.45c-.23-.63-.41-1.3-.59-2h-16.2c-.09.63-.18,1.31-.27,2Zm-16.38-9.58v2.16h19.62v-2.16ZM444,175.66H434.8v1.71H444Zm0,5.89H434.8v1.76H444Z"/><path class="cls-1" d="M458.38,239.74c-2.25,1.44-4.77,2.83-7.11,4a44.46,44.46,0,0,0,9,1.8,22.57,22.57,0,0,0-3.92,5.71c-6.88-1.12-12-3.37-15.84-7l.09,4.82c-6.43.67-13.41,1.26-18.58,1.71l-.86-6c1.35-.09,2.84-.18,4.46-.31V223.9c-1.4.72-2.79,1.39-4.23,2a27,27,0,0,0-3.78-5.4c7.33-2.65,14.49-7.74,18-12.15h6.66a41,41,0,0,0,19,11.7,35,35,0,0,0-4.14,5.8c-1.35-.54-2.75-1.21-4.14-1.93v12.42l.67-.54Zm-10.67-18.85a44.52,44.52,0,0,1-8.5-6.84,43,43,0,0,1-8.33,6.84h5V218h6.75v2.88Zm-15.61,6.52h14.26v-1.53H432.1Zm14.26,6.21V232H432.1v1.62ZM432.1,244c2.47-.18,5.08-.4,7.56-.58a24.79,24.79,0,0,1-3.47-4.82H432.1Zm10.71-5.4a15.77,15.77,0,0,0,2.74,2.39c1.35-.68,2.75-1.53,4.1-2.39Z"/><path class="cls-1" d="M838.72,120v10.22h10.12v6.25H822.29v-6.25h9.77V120H820.4v-6.3h11.66v-8.9c-2.88.45-5.81.81-8.55,1.08a25.62,25.62,0,0,0-1.58-4.86c-.85,1.8-1.75,3.64-2.74,5.44v31.36h-6.48V116.11a40.43,40.43,0,0,1-2.79,3.1,46,46,0,0,0-3.78-7,46.09,46.09,0,0,0,10.8-16.88l6.48,2.07c-.36.9-.72,1.8-1.13,2.7,7.74-.94,15.93-2.61,21.47-4.63l4.77,5.53a81.56,81.56,0,0,1-9.81,2.52v10.12H849.2V120Z"/><path class="cls-1" d="M806.54,189.86a14.74,14.74,0,0,0,5.67-7.61l5.49,2c-1.21,3.51-3,6.89-6.07,9.09Zm41.36-24.3H808.57v-5h9.09c-.23-.72-.45-1.49-.68-2.12h-6.16v-5h14v-2.07h6.57v2.07h14v5h-5.31c-.54.81-1,1.53-1.49,2.12h9.23Zm-15.84,22.9c1.53,0,1.8-.45,2-3.24a17.81,17.81,0,0,0,5.49,2c-.67,5.08-2.34,6.39-6.88,6.39h-6.62c-6.34,0-7.83-1.58-7.83-6.48V183h4.5l1.85-1.8H813.11V167.09h30.74v14.13H830.39a24.8,24.8,0,0,1,3.33,2l-4,4a28.41,28.41,0,0,0-5.17-3.19v3.06c0,1.26.36,1.39,2.29,1.39Zm-12.78-16.15h18.09V171H819.28Zm0,5h18.09V176H819.28Zm4.18-18.9c.27.77.54,1.53.68,2.12h8.23l-.22,0c.22-.63.54-1.39.81-2.07Zm19.26,23.17c2.61,2.39,5.67,5.76,7,8.33l-5.44,3.1a37.38,37.38,0,0,0-6.66-8.63Z"/><path class="cls-1" d="M848.53,239.13h-17v4.5c0,3.2-.72,4.86-3.15,5.81s-5.4,1-9.09,1a26.34,26.34,0,0,0-2.61-6.35c2.52.14,6.08.14,7,.14s1.17-.18,1.17-.81v-4.28H808v-6h16.88v-2.7h2.83a27.52,27.52,0,0,0,2.21-1.71H816.31v-5.62h19.35l1.39-.32,4.1,3.15a47.08,47.08,0,0,1-8.1,7.2h15.48Zm-34.07-13h-6.12V214.61h5.72a35.63,35.63,0,0,0-2.75-4.09l5.58-2.48a24.76,24.76,0,0,1,4,5.76l-1.76.81h5.94a34,34,0,0,0-2.56-5.08l5.8-2.16a26,26,0,0,1,3.47,6.3l-2.48.94h6.21a38.31,38.31,0,0,0,3.42-6.66l7.16,2c-1.13,1.62-2.25,3.19-3.38,4.63h5.45v11.56h-6.44v-5.84H814.46Z"/><path class="cls-1" d="M831.79,283.91c-.54,1.08-1.13,2.16-1.71,3.15h14v19.21h-6.84v-1.53H819.46v1.53H813V287.06h10.57c.27-.77.5-1.53.72-2.25a19.74,19.74,0,0,1-5.76.49,16.62,16.62,0,0,0-1.39-4.13c-2.75,1.21-5.54,2.38-8,3.37l-2.25-5.31c2-.54,4.68-1.4,7.52-2.34a29.67,29.67,0,0,0-5.45-3.78l2.3-2.83h-3.06v-5h18.72v14.94a6.23,6.23,0,0,1-.54,3ZM818,280.8h2.34c.49,0,.67-.18.67-.63v-9.89h-7.24a22.82,22.82,0,0,1,4,2.61l-3,3.91,3.74-1.26.94,4.63Zm19.26,11.12H819.46v1.57h17.82Zm0,8v-1.57H819.46v1.57ZM847.49,280c0,2.56-.54,3.82-2.25,4.63s-4,.81-6.93.76a20.41,20.41,0,0,0-1.57-4.63l-7,2.57-2.12-4.82c1.94-.54,4.41-1.3,7.07-2.2a41.17,41.17,0,0,0-5.09-3.29l2.21-2.74H829v-5h18.45Zm-6.7-.77-3.51,1.35c1.35,0,2.92,0,3.37,0s.77-.17.77-.67v-9.67h-6.66a25.12,25.12,0,0,1,3.87,2.47l-2.3,3c1.17-.41,2.3-.77,3.47-1.17Z"/><path class="cls-2" d="M226.24,80.26h-17v4.5c0,3.2-.72,4.86-3.15,5.81s-5.4,1-9.09,1a26.75,26.75,0,0,0-2.61-6.35c2.52.14,6.07.14,7,.14s1.17-.18,1.17-.81V80.26H185.7v-6h16.87v-2.7h2.84c.76-.54,1.53-1.13,2.2-1.71H194V64.24h19.35l1.4-.31,4.09,3.15a47.12,47.12,0,0,1-8.1,7.2h15.48Zm-34.06-13h-6.12V55.74h5.71a36.57,36.57,0,0,0-2.74-4.1l5.58-2.47a24.7,24.7,0,0,1,4,5.76l-1.75.81h5.94a33.28,33.28,0,0,0-2.57-5.09L206,48.49a25.9,25.9,0,0,1,3.46,6.3l-2.47,1h6.21a39.77,39.77,0,0,0,3.42-6.66l7.15,2c-1.12,1.62-2.25,3.2-3.37,4.64h5.44V67.3h-6.43V61.45H192.18Z"/><path class="cls-2" d="M209.5,125c-.54,1.08-1.12,2.16-1.71,3.15h14V147.4H215v-1.53H197.17v1.53h-6.48V128.19h10.58c.27-.77.49-1.53.72-2.25a19.77,19.77,0,0,1-5.76.49,16.46,16.46,0,0,0-1.4-4.14c-2.74,1.22-5.53,2.39-8,3.38l-2.25-5.31c2-.54,4.68-1.4,7.51-2.34a29.42,29.42,0,0,0-5.44-3.78L189,111.4h-3.06v-5h18.72v14.94a6,6,0,0,1-.54,3Zm-13.77-3.11h2.34c.5,0,.68-.18.68-.63v-9.9H191.5a23,23,0,0,1,4,2.61l-3,3.92,3.73-1.26.95,4.63ZM215,133.05H197.17v1.57H215Zm0,8v-1.57H197.17V141Zm10.22-19.89c0,2.57-.54,3.83-2.25,4.64s-4,.81-6.93.76a20,20,0,0,0-1.58-4.63c-2.47.9-4.9,1.8-7,2.56l-2.11-4.81c1.93-.54,4.41-1.31,7.06-2.21a41,41,0,0,0-5.08-3.28l2.2-2.75h-2.74v-5h18.45Zm-6.71-.76L215,121.71c1.35,0,2.93,0,3.38,0s.76-.18.76-.67V111.4h-6.66a24.62,24.62,0,0,1,3.87,2.48l-2.29,3c1.17-.4,2.29-.76,3.46-1.17Z"/><path class="cls-2" d="M219.9,172.38a27.61,27.61,0,0,0,5.31-.36v7.06c-1.22-.13-2.79-.13-5.27-.13h-2.38v1.39c0,10.44-2.7,17.46-13.68,22.28l-5.72-5.4c8.82-2.88,12.38-6.75,12.38-16.7V179h-9.27v5.31c0,2.16.13,3.91.22,5H194a41,41,0,0,0,.27-5V179h-3.15c-2.38,0-3.73.09-5,.18v-7.25a25.35,25.35,0,0,0,5,.5h3.15v-3.69a35.67,35.67,0,0,0-.31-4.41h7.6a35.06,35.06,0,0,0-.31,4.45v3.65h9.27v-4.14a27.7,27.7,0,0,0-.27-4.37h7.6a34.93,34.93,0,0,0-.31,4.37v4.14Z"/><path class="cls-2" d="M211.89,246.58a32.13,32.13,0,0,0,.45,6.39h-8.46a57.9,57.9,0,0,0,.36-6.39V233.35a82.55,82.55,0,0,1-14.45,5.54L186,232.41a65.5,65.5,0,0,0,20.25-8,45.44,45.44,0,0,0,11.52-10l5.72,5.17A76.26,76.26,0,0,1,211.89,229Z"/><path class="cls-2" d="M224.22,276.24a18.57,18.57,0,0,0-1.76,3.6,45.72,45.72,0,0,1-7.6,14.49c-4.28,5.22-9.63,9.27-17.91,12.69l-6.35-5.63c9.54-2.92,14.13-6.66,17.87-10.89a27.83,27.83,0,0,0,5.8-11h-11a52.8,52.8,0,0,1-11.11,10.57l-6-4.45a40.5,40.5,0,0,0,13.73-13.82,25.33,25.33,0,0,0,2.34-5.26l7.78,2.56c-1,1.44-2.07,3.2-2.7,4.37h7.07a16.19,16.19,0,0,0,4.36-.59Z"/><path class="cls-2" d="M185.79,356.38a18.37,18.37,0,0,0,7.15-10c1.26-3.6,1.31-11.29,1.31-16.78a16.52,16.52,0,0,0-.5-4.55h7.83a34.26,34.26,0,0,0-.36,4.46c0,5.4-.13,14.17-1.26,18.63a26.33,26.33,0,0,1-7.87,13Zm20.29,1.31a16.42,16.42,0,0,0,.41-3.65V329.16a22.36,22.36,0,0,0-.41-4.1h8a26.17,26.17,0,0,0-.36,4.14v21.24c3.28-1.35,7.06-4.54,9.76-8.41l4.09,5.89c-3.55,4.55-10,9.45-14.89,12a16.76,16.76,0,0,0-2.11,1.44Z"/><polygon class="cls-3" points="118.52 188.84 118.52 223.89 140.43 206.37 118.52 188.84"/><polygon class="cls-3" points="352.21 188.84 352.21 223.89 374.12 206.37 352.21 188.84"/><polygon class="cls-3" points="511.66 188.84 511.66 223.89 533.56 206.37 511.66 188.84"/><polygon class="cls-3" points="745.16 188.84 745.16 223.89 767.07 206.37 745.16 188.84"/><path class="cls-4" d="M290.75,218.62l-8-7.79-7.92,7.79-4.19-4,8-7.88-8-7.83,4.23-4.09,8,7.78,7.83-7.74,4.1,3.92-7.83,7.78,8.05,7.88Z"/><path class="cls-4" d="M305.36,223v-7.55L320.26,202a14.31,14.31,0,0,0,2.27-2.75,5.83,5.83,0,0,0,.86-3.13,4.43,4.43,0,0,0-1.29-3.31,5.21,5.21,0,0,0-7.16.32,7.22,7.22,0,0,0-1.7,4.19l-8.69-1.19a13.36,13.36,0,0,1,4.8-9.08,13.9,13.9,0,0,1,4.46-2.44,16.38,16.38,0,0,1,5.32-.85,18.74,18.74,0,0,1,5.13.71,13.33,13.33,0,0,1,4.43,2.15,10.65,10.65,0,0,1,4.26,8.86,11.84,11.84,0,0,1-.54,3.7,12.14,12.14,0,0,1-1.48,3.05,17.39,17.39,0,0,1-2.16,2.62c-.81.81-1.65,1.61-2.51,2.4l-8.86,7.89H333V223Z"/><rect class="cls-1" x="550.23" y="2" width="92.01" height="406.71"/><path class="cls-2" d="M616.75,73.75h-17v4.5c0,3.2-.72,4.86-3.15,5.81s-5.4,1-9.09,1a26.34,26.34,0,0,0-2.61-6.35c2.52.14,6.08.14,7,.14s1.17-.18,1.17-.81V73.75H576.2v-6h16.88v-2.7h2.83c.77-.54,1.53-1.13,2.21-1.71H584.53V57.73h19.35l1.39-.31,4.1,3.15a47.5,47.5,0,0,1-8.1,7.2h15.48Zm-34.07-13h-6.12V49.23h5.72a36.65,36.65,0,0,0-2.75-4.1l5.58-2.47a24.76,24.76,0,0,1,4,5.76l-1.76.81h5.94a34.15,34.15,0,0,0-2.56-5.09l5.8-2.16a26,26,0,0,1,3.47,6.3l-2.48.95h6.21a39,39,0,0,0,3.42-6.66l7.16,2c-1.13,1.62-2.25,3.2-3.38,4.64h5.45V60.79H610V54.94H582.68Z"/><path class="cls-2" d="M600,118.53c-.54,1.08-1.13,2.16-1.71,3.15h14v19.21H605.5v-1.53H587.68v1.53H581.2V121.68h10.57c.27-.77.5-1.53.72-2.25a19.74,19.74,0,0,1-5.76.49,16.83,16.83,0,0,0-1.39-4.14c-2.75,1.22-5.54,2.39-8,3.38l-2.25-5.31c2-.54,4.68-1.4,7.52-2.34a29.19,29.19,0,0,0-5.45-3.78l2.3-2.84h-3.06v-5h18.72v14.94a6.16,6.16,0,0,1-.54,3Zm-13.77-3.11h2.34c.49,0,.67-.18.67-.63v-9.9H582a23.41,23.41,0,0,1,4,2.61l-3,3.92,3.74-1.26.94,4.63Zm19.26,11.12H587.68v1.57H605.5Zm0,8v-1.57H587.68v1.57Zm10.21-19.89c0,2.57-.54,3.83-2.25,4.64s-4,.81-6.93.76a20.41,20.41,0,0,0-1.57-4.63l-7,2.56-2.12-4.81c1.94-.54,4.41-1.31,7.07-2.21a41.12,41.12,0,0,0-5.09-3.28l2.21-2.75h-2.75v-5h18.45Zm-6.7-.76-3.51,1.35c1.35,0,2.92,0,3.37,0s.77-.18.77-.67v-9.68H603a25.1,25.1,0,0,1,3.87,2.48l-2.3,3c1.17-.4,2.3-.76,3.47-1.17Z"/><path class="cls-2" d="M610.4,165.87a27.61,27.61,0,0,0,5.31-.36v7.06c-1.21-.13-2.79-.13-5.26-.13h-2.39v1.39c0,10.44-2.7,17.46-13.68,22.28l-5.71-5.4C597.49,187.83,601,184,601,174v-1.57h-9.27v5.31c0,2.16.14,3.91.23,5h-7.47a43.13,43.13,0,0,0,.27-5v-5.31h-3.15c-2.39,0-3.74.09-5,.18v-7.25a25.38,25.38,0,0,0,5,.5h3.15v-3.69a33.53,33.53,0,0,0-.32-4.41h7.61a33,33,0,0,0-.32,4.45v3.65H601v-4.14a27.7,27.7,0,0,0-.27-4.37h7.61a32.84,32.84,0,0,0-.32,4.37v4.14Z"/><path class="cls-2" d="M602.39,240.07a32.07,32.07,0,0,0,.45,6.39h-8.46a57.9,57.9,0,0,0,.36-6.39V226.84a82.45,82.45,0,0,1-14.44,5.54l-3.78-6.48a65.6,65.6,0,0,0,20.25-8,45.62,45.62,0,0,0,11.52-10l5.71,5.17a76.26,76.26,0,0,1-11.61,9.45Z"/><path class="cls-2" d="M614.72,269.73a19.17,19.17,0,0,0-1.75,3.6,45.78,45.78,0,0,1-7.61,14.49c-4.27,5.22-9.63,9.27-17.91,12.69l-6.34-5.63C590.65,292,595.24,288.22,599,284a28,28,0,0,0,5.81-11h-11a52.61,52.61,0,0,1-11.12,10.57l-6-4.45a40.55,40.55,0,0,0,13.72-13.82,24.32,24.32,0,0,0,2.34-5.26l7.79,2.56c-1,1.44-2.07,3.2-2.7,4.37h7.06a16.32,16.32,0,0,0,4.37-.59Z"/><path class="cls-2" d="M576.29,349.87a18.44,18.44,0,0,0,7.16-10c1.26-3.6,1.3-11.29,1.3-16.78a17,17,0,0,0-.49-4.55h7.83a34.26,34.26,0,0,0-.36,4.46c0,5.4-.14,14.17-1.26,18.63a26.28,26.28,0,0,1-7.88,13Zm20.3,1.31a17.09,17.09,0,0,0,.4-3.65V322.65a22.89,22.89,0,0,0-.4-4.1h8a26.17,26.17,0,0,0-.36,4.14v21.24c3.29-1.35,7.07-4.54,9.77-8.41l4.09,5.89c-3.55,4.55-10,9.45-14.89,12a17,17,0,0,0-2.12,1.44Z"/><path class="cls-4" d="M681.58,218.6l-8-7.79-7.92,7.79-4.18-4,8-7.87-8-7.83,4.23-4.1,8,7.79,7.83-7.74,4.09,3.91-7.83,7.79,8.06,7.87Z"/><path class="cls-4" d="M695.3,220.06l3.73-4.91c2.81,2.64,5.94,4.43,10.26,4.43,4.59,0,8.21-2.54,8.21-7.35s-3.62-7.23-8.1-7.23a13.29,13.29,0,0,0-7.78,2.21L698,204.94l1.08-19.71h24.74v6.7H705.94l-.7,8.64a14.53,14.53,0,0,1,6.43-1.3c7.29,0,13.77,4,13.77,12.8,0,9.07-7.13,14-15.23,14A20.09,20.09,0,0,1,695.3,220.06Z"/><line class="cls-1" x1="2" y1="442.07" x2="871.85" y2="442.07"/><rect class="cls-1" x="2" y="439.57" width="869.85" height="5"/><rect class="cls-1" x="166.03" y="537.86" width="41.89" height="41.89"/><line class="cls-5" x1="223.83" y1="558.81" x2="280.88" y2="558.81"/><path d="M223.88,560.81a2,2,0,0,1-2-2,2,2,0,0,1,2-2h0a2,2,0,0,1,0,4Z"/><path d="M271.41,560.81a2,2,0,0,1-2-2,2,2,0,0,1,1.95-2h.09a2,2,0,1,1,0,4Zm-9.5,0a2,2,0,0,1-2.05-2,2,2,0,0,1,1.95-2h.1a2,2,0,1,1,0,4Zm-9.51,0a2,2,0,0,1-2.05-2,2,2,0,0,1,2-2h.09a2,2,0,0,1,0,4Zm-9.51,0a2,2,0,0,1-2-2,2,2,0,0,1,2-2h.09a2,2,0,0,1,0,4Zm-9.5,0a2,2,0,0,1-2-2,2,2,0,0,1,1.95-2h.1a2,2,0,0,1,0,4Z"/><path d="M280.88,560.81a2,2,0,0,1-2-2,2,2,0,0,1,2-2h.05a2,2,0,0,1,0,4Z"/><line class="cls-5" x1="554.83" y1="558.81" x2="612.84" y2="558.81"/><path d="M554.88,560.81a2,2,0,0,1-2-2,2,2,0,0,1,2-2h0a2,2,0,1,1,0,4Z"/><path d="M603.22,560.81a2,2,0,0,1-2.05-2,2,2,0,0,1,2-2h.1a2,2,0,0,1,0,4Zm-9.67,0a2,2,0,0,1-2-2,2,2,0,0,1,2-2h.09a2,2,0,0,1,0,4Zm-9.67,0a2,2,0,0,1-2-2,2,2,0,0,1,1.95-2h.09a2,2,0,1,1,0,4Zm-9.67,0a2,2,0,0,1-2-2,2,2,0,0,1,2-2h.09a2,2,0,0,1,0,4Zm-9.66,0a2,2,0,0,1-2-2,2,2,0,0,1,2-2h.1a2,2,0,0,1,0,4Z"/><path d="M612.84,560.81a2,2,0,0,1-2-2,2,2,0,0,1,2-2h.05a2,2,0,1,1,0,4Z"/><rect class="cls-2" x="499.58" y="537.86" width="41.89" height="41.89"/><path class="cls-1" d="M538.47,540.86v35.89H502.58V540.86h35.89m3-3H499.58v41.89h41.89V537.86Z"/><path class="cls-5" d="M657.7,552.08c2.06,5.11,5.2,10.08,8.62,13a15.16,15.16,0,0,0-3.21,3.42,37,37,0,0,1-7.29-11.45v15.73h-4.25v-15a36.66,36.66,0,0,1-7.68,10.91,23.28,23.28,0,0,0-2.93-3.17v7.2h-4.22V554.46a33.61,33.61,0,0,1-3,3.24,32,32,0,0,0-2.49-4.5,37,37,0,0,0,9.12-13.83l4.26,1.37a56.1,56.1,0,0,1-3.72,7.6v16.78c3.57-2.92,6.82-7.93,8.91-13h-7.46V547.9h9.16v-8.13h4.25v8.13h9.42v4.18Z"/><path class="cls-5" d="M672.68,569.26a11.55,11.55,0,0,0,4.61-6.77l3.83,1.37c-.87,3.06-2.24,6-4.91,7.85Zm6.78-19.92h-6.21V546h6.21v-2.09c-1.62.11-3.28.22-4.8.25a13,13,0,0,0-1.08-3.06c4.47-.21,9.63-.75,12.63-1.69l2.81,2.92a39.21,39.21,0,0,1-5.66,1.15V546h5.95v3.38h-5.95v2.16h4.5V560l.37-.29a21.5,21.5,0,0,1,5.55,4.47l-3,2.45a22.18,22.18,0,0,0-5.37-4.76l1.94-1.47H674.81V551.5h4.65Zm4.73,5.37h-5.7v2.52h5.7Zm9.08,13.86c1.41,0,1.59-.39,1.77-3.16a12.12,12.12,0,0,0,3.83,1.51c-.51,4.39-1.7,5.44-5.2,5.44h-5.91c-4.66,0-5.78-1.16-5.78-4.83v-4.65h4.26v4.58c0,1,.29,1.11,2,1.11Zm11.62-7.81H690.28V542.25h4.19c.32-1.08.61-2.27.79-3.17l4.76.47c-.36,1-.76,1.87-1.12,2.7h6Zm-4.18-15.09h-6.5v1.91h6.5Zm-6.5,6.77h6.5v-2.05h-6.5Zm6.5,4.9v-2.05h-6.5v2.05Zm-.33,4.86c2.35,2.13,4.91,5.11,5.88,7.42l-3.86,2c-.83-2.19-3.25-5.32-5.59-7.56Z"/><path class="cls-5" d="M330,561.89H317v4.5c0,2.1-.44,3.15-2.1,3.72s-3.68.65-6.56.65a18.09,18.09,0,0,0-1.66-3.93c2.17.1,4.67.1,5.35.07s.88-.13.88-.61v-4.4h-13v-3.68h13V556h1.93a22.06,22.06,0,0,0,2.6-1.86H306v-3.48h15.19l.88-.2,2.54,2a33,33,0,0,1-7.34,5.82H330Zm-25.88-9.2h-3.79v-8.22H305a28.25,28.25,0,0,0-2.34-3.48l3.42-1.52a18.23,18.23,0,0,1,3.08,4.43l-1.22.57h5.31a23.62,23.62,0,0,0-2.13-4.23l3.55-1.28a19.57,19.57,0,0,1,2.64,4.87l-1.62.64h5.11a29.1,29.1,0,0,0,2.91-5.14l4.36,1.32c-.91,1.29-1.93,2.64-2.84,3.82h4.5v8.22h-4V548H304.15Z"/><path class="cls-5" d="M346.75,551.07c-2.71,1.18-5.59,2.37-8,3.35l-1.39-3.28c2.2-.68,5.52-1.83,8.77-2.95Zm8.42,3c-.41.88-.88,1.72-1.32,2.47h10.72v14.24h-4.19v-1.22H345.9v1.22h-4V556.55h7.95c.27-.64.5-1.35.71-2l-.1,0a13.1,13.1,0,0,1-4.6.44,10.6,10.6,0,0,0-1-2.84c1.15,0,2.47,0,2.84,0s.51-.13.51-.47v-8h-6.53a20.77,20.77,0,0,1,3.76,2.54l-2,2.57a18.09,18.09,0,0,0-4.27-3.08l1.69-2h-2.57v-3.11h13.57v11.19a4.31,4.31,0,0,1-.27,1.76Zm5.21,5.51H345.9v2h14.48Zm0,6.94v-2H345.9v2Zm6.73-14.82c0,1.62-.34,2.44-1.49,2.94s-2.74.55-4.94.51a12,12,0,0,0-1.08-3c1.29.07,2.77.07,3.18.07s.57-.14.57-.51v-7.95h-6.46a21.17,21.17,0,0,1,3.76,2.4l-1.83,2.44c1-.38,2.07-.71,3.11-1.09l.61,2.88c-2.91,1.11-6,2.26-8.52,3.18l-1.35-3c1.55-.48,3.61-1.12,5.81-1.86a20.57,20.57,0,0,0-4.26-2.95l1.62-2h-2.19v-3.11h13.46Z"/><path class="cls-5" d="M386.94,564.19h-6.87v3h-3.72v-26h10.59Zm-6.87-19.41v6h3.12v-6Zm3.12,15.83v-6.36h-3.12v6.36Zm20.16-7.92v2.91h3.25v3.49h-3.25v7.37c0,1.93-.37,2.94-1.69,3.55s-3.15.68-5.65.68a13.71,13.71,0,0,0-1.29-3.79c1.63.07,3.52.07,4,.07s.71-.14.71-.61v-7.27H387.58V555.6h11.88v-2.91H387.52v-3.52h7.64v-3h-6.49v-3.52h6.49v-3.55h4v3.55h6.77v3.52h-6.77v3h7.71v3.52Zm-11.2,6.8a23.21,23.21,0,0,1,4.09,5.55l-3.45,2a23.9,23.9,0,0,0-3.85-5.69Z"/><path class="cls-5" d="M419,552.62v18.1h-4V540.41h13v12.21Zm0-9.3v1.8h5.21v-1.8Zm5.21,6.43v-1.93H419v1.93ZM443.51,566c0,2.17-.44,3.35-1.79,4s-3.28.77-6.19.77a15.24,15.24,0,0,0-.88-3.14h-8.39v1.72H422.6V554.69h1.66v0l11.37,0v12c1.32,0,2.57,0,3,0,.61,0,.81-.2.81-.74V552.69h-9.2V540.41h13.26Zm-11.67-8.32h-5.58v2h5.58Zm0,7v-2.09h-5.58v2.09Zm2.23-21.31v1.8h5.38v-1.8Zm5.38,6.5v-2h-5.38v2Z"/></g></g></g></svg>