<svg xmlns="http://www.w3.org/2000/svg" viewBox="0 0 960 331.31"><defs><style>.cls-1{fill:#fff;}.cls-2,.cls-3{fill:#11376b;}.cls-3{opacity:0.8;}</style></defs><title>pict-schedule-1cycle</title><g id="レイヤー_2" data-name="レイヤー 2"><g id="レイヤー_1-2" data-name="レイヤー 1"><g id="pict-schedule-1cycle"><polygon class="cls-1" points="873.87 0 652.1 0 738.22 119 652.1 238 873.87 238 960 119 873.87 0"/><path class="cls-2" d="M871.83,4l83.23,115L871.83,234H659.93l81.53-112.65,1.7-2.35-1.7-2.35L659.93,4h211.9m2-4H652.1l86.12,119L652.1,238H873.87L960,119,873.87,0Z"/><polygon class="cls-3" points="628.1 0 371.51 0 457.63 119 371.51 238 628.1 238 714.22 119 628.1 0"/><polygon class="cls-2" points="344.51 0 0 0 0 238 344.51 238 430.63 119 344.51 0"/><path class="cls-1" d="M52.78,143.47a12.8,12.8,0,0,0-.22,1.7c-.12,3.57-.53,12-1.83,15.29-.68,1.7-2,2.67-4.34,2.67-1.92,0-3.78-.16-5.24-.28l-.59-5a24.28,24.28,0,0,0,4.22.47,1.52,1.52,0,0,0,1.7-1.15c.75-1.7,1.18-7.1,1.18-10.48h-6c-1.12,7.85-3.94,12.77-9.68,16.9L27.57,160a19.29,19.29,0,0,0,4.59-3.44,16.92,16.92,0,0,0,4.56-9.92H33.21c-1,0-2.94,0-4.37.16v-4.9c1.43.15,3.19.25,4.37.25h3.88c0-.81,0-1.62,0-2.45a24.26,24.26,0,0,0-.25-3h5.52c-.09.74-.19,2.17-.22,2.91s-.06,1.74-.12,2.55h5a15.72,15.72,0,0,0,2.57-.25Z"/><path class="cls-1" d="M69.14,137.76c-.06.78-.12,1.34-.12,2.45v10.54c0,.78.06,2.08.12,2.89H63.56c0-.62.16-2,.16-2.92V140.21c0-.59,0-1.67-.13-2.45Zm14.23-.28c-.06.93-.12,2-.12,3.35v6.76c0,6.23-1.46,9.33-3.81,11.81a19.41,19.41,0,0,1-7.6,4.47l-3.94-4.16a14.55,14.55,0,0,0,7.63-3.78c2.08-2.2,2.51-4.4,2.51-8.68v-6.42a23.61,23.61,0,0,0-.22-3.35Z"/><path class="cls-1" d="M119.05,153.23c-.92.07-2.35.31-3.53.5l-6.2,1c.43,2.27.81,4.19,1,5.24s.53,2.08.81,3.17l-5.4.93c-.15-1.21-.21-2.33-.4-3.26s-.53-2.91-1-5.27c-3,.49-5.61,1-6.88,1.21s-2.58.46-3.29.65l-1-5c.86,0,2.41-.22,3.47-.37,1.36-.22,4-.62,6.91-1.09l-.8-4.25c-2.58.41-4.81.78-5.65.93-1.11.22-2,.44-3,.72l-1-5.12c1.09-.06,2.08-.12,3-.25s3.23-.43,5.77-.83l-.5-2.58c-.22-.93-.43-1.7-.68-2.48l5.3-.84c.09.62.19,1.77.34,2.55.06.46.25,1.39.47,2.6,2.39-.37,4.49-.74,5.49-.93s2.41-.5,3.28-.74l.9,4.9c-.8.06-2.23.28-3.22.4l-5.62.9.81,4.25c2.57-.44,4.9-.84,6.2-1.09s2.51-.56,3.41-.81Z"/><path class="cls-1" d="M146.58,158.1c.84,0,2.48-.06,3.38-.15v4.83c-.68,0-2.42-.09-3.32-.09h-16c-1.18,0-2,0-3.32.09v-4.86c.87.09,2.17.18,3.32.18H140c.43-2.51,1-6.14,1.12-7.84h-7.57c-1,0-2.48.09-3.44.15v-4.93a30.48,30.48,0,0,0,3.41.22h7.13a9.29,9.29,0,0,0,2.73-.4l3.6,1.76a10.33,10.33,0,0,0-.34,1.49c-.25,1.71-1,6.61-1.49,9.55Z"/><path class="cls-1" d="M184.16,147.16a11.92,11.92,0,0,0-.69,1.49A22.18,22.18,0,0,1,167.78,164L164,159.71a21.24,21.24,0,0,0,10.67-5.3,12.23,12.23,0,0,0,2.88-4.49H163.47c-.77,0-2.54,0-3.93.15v-4.84c1.42.13,2.88.22,3.93.22h14.76a7.21,7.21,0,0,0,2.61-.37Zm-21.71-9.49a30.75,30.75,0,0,0,3.47.18h11.76a35.83,35.83,0,0,0,3.65-.18v4.84c-.86-.07-2.54-.13-3.72-.13H165.92c-1,0-2.54,0-3.47.13Z"/><path class="cls-1" d="M214.26,163.43c-.38-1-.84-2.2-1.37-3.44-5.11.62-14,1.52-17.76,1.93-.78.09-2.08.27-3.11.4l-.86-5.49c1.11,0,2.63,0,3.69,0l.46,0c1.8-4.65,4.22-12.43,5.15-15.75a25.85,25.85,0,0,0,.8-3.91l6,1.21c-.47,1-1,2.36-1.46,3.78-1,3.07-3.32,10.14-4.81,14.27,3.32-.31,7-.75,9.86-1.09a34.75,34.75,0,0,0-2.94-5.24l4.71-1.92a99.29,99.29,0,0,1,6.76,13Z"/><path class="cls-1" d="M239.89,157.23c.06-.77.12-1.92.16-3.07-1.93,1.12-2.76,2.11-2.76,3.35s1,1.83,3.84,1.83a45.7,45.7,0,0,0,8.93-1l-.15,4.81a85.2,85.2,0,0,1-8.87.52c-5.06,0-8.68-1.3-8.68-5.39s3.65-6.57,7.07-8.37a2.31,2.31,0,0,0-1.68-.62,7.41,7.41,0,0,0-4.53,2,39.08,39.08,0,0,0-2.85,3.48l-4-3A28.18,28.18,0,0,0,233,144c-1.27,0-3.51-.06-5.12-.21v-4.31a41.26,41.26,0,0,0,5.52.37h1.21a18.86,18.86,0,0,0,.53-3.35l4.89.4a25.25,25.25,0,0,1-.68,2.79,70.48,70.48,0,0,0,8.28-.86l0,4.31c-2.88.37-6.64.65-9.92.77a17.35,17.35,0,0,1-1.18,2.17,14.51,14.51,0,0,1,3-.31,4.46,4.46,0,0,1,4.09,2.17c1.24-.59,2.23-1,3.32-1.49,1.33-.59,2.6-1.18,3.91-1.8l1.83,4.28c-1.09.31-3,1-4.19,1.49s-2.67,1-4.28,1.74c0,1.67.09,3.75.12,5.11Z"/><path class="cls-1" d="M266.86,157.27c1,1.92,2.91,2.72,5.83,2.85a150.35,150.35,0,0,0,16-.31,20.52,20.52,0,0,0-1.4,4.37c-4.06.22-10.67.28-14.63.09-3.51-.15-5.83-1-7.66-3.32-1.18,1.15-2.39,2.24-4,3.57l-2.08-4.5c1.15-.68,2.42-1.55,3.63-2.44V151.5h-3.23v-4.16h7.54Zm-3-13.43a25.6,25.6,0,0,0-4.56-5.15l3.45-2.54A27.24,27.24,0,0,1,267.6,141Zm5.71,3.38a14.67,14.67,0,0,1-1.09,1,28.79,28.79,0,0,0-3.28-3.59,21.58,21.58,0,0,0,6.69-9.18l4.5,1.3c-.4.93-.84,1.86-1.3,2.79h2.66a30.14,30.14,0,0,0,1.12-3.81l5,.86c-.5,1-1,2-1.49,2.95h4.81v3.75h-5.74v1.27h4.9v3.6h-4.9v1.3h4.75v3.6h-4.75v1.39h6.3v3.76H269.59Zm7.59-3.91h-3.25v1.27h3.25Zm0,4.87h-3.25v1.3h3.25Zm0,4.9h-3.25v1.39h3.25Z"/><path class="cls-1" d="M314.14,141.64c4.74,1.21,7.9,5.14,7.9,10.6,0,6.73-4.8,10.48-11.1,11.47l-2.85-4.31c7-.58,9.09-4.09,9.09-7.41a6.13,6.13,0,0,0-4.19-6.23,37.26,37.26,0,0,1-3.94,9.3c.5.59,1,1.18,1.55,1.68l-3.75,3-.8-.93c-2.14,2.24-3.76,3-6,3-2.67,0-5.24-2.26-5.24-6.45a13.89,13.89,0,0,1,4.4-9.83c-.25-.74-.49-1.52-.74-2.29a24,24,0,0,0-1.37-3.41l4.87-1.52c.19,1.11.44,2.14.68,3.07.16.52.31,1,.47,1.61a17.72,17.72,0,0,1,6.45-1.67c.06-.38.12-.72.18-1.06A18,18,0,0,0,310,137l5.15.49c-.28.9-.62,2.64-.84,3.51Zm-10.82,13.52a35.32,35.32,0,0,1-2.48-5.21,8.8,8.8,0,0,0-1.68,5c0,1.21.5,2,1.43,2S302.36,156.27,303.32,155.16Zm1.11-8.22a31.7,31.7,0,0,0,1.74,4,34.69,34.69,0,0,0,2.26-5.46A11.84,11.84,0,0,0,304.43,146.94Z"/><path class="cls-1" d="M351.15,140.74c-.8.49-1.58,1-2.35,1.49-1.74,1.18-4.44,3.38-6.11,4.68a10,10,0,0,1,2.14-.19c5.27,0,9.42,3.38,9.42,8,0,4.81-3.47,9-11.41,9-4.34,0-7.94-2-7.94-5.39,0-2.7,2.48-5.21,6-5.21,3.75,0,6.17,2.17,6.69,5.08a4.06,4.06,0,0,0,1.8-3.53c0-2.64-2.69-4.28-6.07-4.28-4.5,0-7.72,2.7-10.67,6.3l-3.38-3.51c2-1.55,5.55-4.59,7.38-6.07s4.56-3.63,6.05-5c-1.55,0-4.72.16-6.36.28-.93.06-2,.16-2.76.28l-.15-4.8a26.48,26.48,0,0,0,3.13.18c1.64,0,7.78-.09,9.61-.25a15.45,15.45,0,0,0,2.73-.37Zm-7.87,18.69c-.16-1.7-1.09-2.79-2.39-2.79-1,0-1.58.59-1.58,1.21,0,1,1,1.65,2.57,1.65C342.38,159.5,342.84,159.47,343.28,159.43Z"/><path class="cls-2" d="M955,269.87v31.18a4.5,4.5,0,0,1-4.48,4.5H704.42v5H950.55a9.49,9.49,0,0,0,9.45-9.5V269.87Z"/><rect class="cls-2" y="269.87" width="4.97" height="14.26"/><path class="cls-2" d="M9.45,305.55A4.5,4.5,0,0,1,5,301.05V284.13H0v16.92a9.49,9.49,0,0,0,9.45,9.5H256v-5Z"/><path class="cls-1" d="M113.57,97.87a14.48,14.48,0,0,1-1.28,6.3,12.54,12.54,0,0,1-3.45,4.39,14.91,14.91,0,0,1-4.9,2.61,18.88,18.88,0,0,1-5.65.86,18.37,18.37,0,0,1-5.13-.7,16.12,16.12,0,0,1-4.42-2,13.42,13.42,0,0,1-3.42-3.17,12.71,12.71,0,0,1-2.1-4.23l8.57-2.63a6.68,6.68,0,0,0,2.32,3.42,6.78,6.78,0,0,0,8.24-.11,5.29,5.29,0,0,0,1.76-4.32,5.42,5.42,0,0,0-.73-2.91,5.57,5.57,0,0,0-1.87-1.87,7.64,7.64,0,0,0-2.61-1A15.1,15.1,0,0,0,96,92.27a29,29,0,0,0-4.84.47A28.44,28.44,0,0,0,86.3,94l1-22.68h24.31v8.07h-16l-.34,6.27a12.41,12.41,0,0,1,2-.31c.73-.06,1.39-.08,2-.08a19.63,19.63,0,0,1,5.6.78,12.88,12.88,0,0,1,4.56,2.38,11.25,11.25,0,0,1,3,3.95A12.6,12.6,0,0,1,113.57,97.87Z"/><path class="cls-1" d="M154.68,91a37.12,37.12,0,0,1-.84,8,20.46,20.46,0,0,1-2.69,6.69,13.87,13.87,0,0,1-4.79,4.6,14.08,14.08,0,0,1-7.14,1.7,14.25,14.25,0,0,1-7.17-1.7,14,14,0,0,1-4.84-4.6A20.06,20.06,0,0,1,124.49,99a37.12,37.12,0,0,1-.84-8,36.7,36.7,0,0,1,.84-8,19.41,19.41,0,0,1,2.72-6.6,14,14,0,0,1,4.84-4.51,14.35,14.35,0,0,1,7.17-1.68,14.18,14.18,0,0,1,7.14,1.68,13.8,13.8,0,0,1,4.79,4.51,19.78,19.78,0,0,1,2.69,6.6A36.7,36.7,0,0,1,154.68,91Zm-9.63,0c0-1.23-.08-2.59-.23-4.08a20.49,20.49,0,0,0-.84-4.18,9.09,9.09,0,0,0-1.76-3.24,3.8,3.8,0,0,0-3-1.32,3.85,3.85,0,0,0-3,1.32,9,9,0,0,0-1.82,3.24,19.22,19.22,0,0,0-.87,4.18c-.15,1.49-.22,2.85-.22,4.08s.07,2.66.22,4.18a19.28,19.28,0,0,0,.87,4.2,9,9,0,0,0,1.82,3.24,3.85,3.85,0,0,0,3,1.32,3.8,3.8,0,0,0,3-1.32A9.09,9.09,0,0,0,144,99.41a20.55,20.55,0,0,0,.84-4.2C145,93.69,145.05,92.3,145.05,91Z"/><path class="cls-1" d="M167.67,94.94V87.66h14.22v7.28Z"/><path class="cls-1" d="M225.91,97.64a14.38,14.38,0,0,1-1.23,6,13.29,13.29,0,0,1-3.36,4.54,14.72,14.72,0,0,1-5,2.82,19.16,19.16,0,0,1-12.1,0,14.82,14.82,0,0,1-4.95-2.82,13.42,13.42,0,0,1-3.35-4.48,13.75,13.75,0,0,1-1.23-5.88A16.22,16.22,0,0,1,196,91.45a36.9,36.9,0,0,1,3.19-5.85l9.56-14.28h11.36l-9.75,13.55-.17.28a6.2,6.2,0,0,1,1.35-.33,9.46,9.46,0,0,1,1.45-.11,13.5,13.5,0,0,1,4.95.92A12.25,12.25,0,0,1,222,88.26a12.81,12.81,0,0,1,3.89,9.38Zm-9.35.23a6.22,6.22,0,0,0-1.69-4.46,6,6,0,0,0-4.5-1.76,6,6,0,0,0-6.3,6.27,6.34,6.34,0,0,0,1.69,4.43,5.85,5.85,0,0,0,4.55,1.84,6.06,6.06,0,0,0,4.53-1.73A6.27,6.27,0,0,0,216.56,97.87Z"/><path class="cls-1" d="M265.44,91a37.12,37.12,0,0,1-.84,8,20.44,20.44,0,0,1-2.68,6.69A13.31,13.31,0,0,1,250,112a14.25,14.25,0,0,1-7.17-1.7,14,14,0,0,1-4.84-4.6A19.86,19.86,0,0,1,235.26,99a37.12,37.12,0,0,1-.84-8,36.7,36.7,0,0,1,.84-8,19.21,19.21,0,0,1,2.72-6.6,14,14,0,0,1,4.84-4.51A14.35,14.35,0,0,1,250,70.26a14.18,14.18,0,0,1,7.14,1.68,13.88,13.88,0,0,1,4.79,4.51,19.77,19.77,0,0,1,2.68,6.6A36.7,36.7,0,0,1,265.44,91Zm-9.63,0c0-1.23-.07-2.59-.22-4.08a20.49,20.49,0,0,0-.84-4.18A9,9,0,0,0,253,79.53a3.76,3.76,0,0,0-3-1.32,3.89,3.89,0,0,0-3,1.32,9.18,9.18,0,0,0-1.82,3.24,18.65,18.65,0,0,0-.86,4.18c-.15,1.49-.23,2.85-.23,4.08s.08,2.66.23,4.18a18.71,18.71,0,0,0,.86,4.2,9.18,9.18,0,0,0,1.82,3.24,3.89,3.89,0,0,0,3,1.32,3.76,3.76,0,0,0,3-1.32,9,9,0,0,0,1.77-3.24,20.55,20.55,0,0,0,.84-4.2C255.74,93.69,255.81,92.3,255.81,91Z"/><path class="cls-1" d="M296.3,82.14a41.48,41.48,0,0,0,10.06,12,24.87,24.87,0,0,0-4.22,4.48c-.47-.47-1-1-1.49-1.53-.31,9.56-.68,13.47-1.81,14.89a4.69,4.69,0,0,1-3.39,1.91,32.87,32.87,0,0,1-5,.17,11.51,11.51,0,0,0-1.63-5c1.7.14,3.3.17,4.15.17a1.67,1.67,0,0,0,1.36-.51c.61-.68.92-3.5,1.16-9.79h-5.58c-.82,6.42-3.06,12.1-12,15.5a16.56,16.56,0,0,0-3.23-4.59c7.44-2.45,9.21-6.42,9.85-10.91h-5.1V96.79A25.88,25.88,0,0,1,277,98.93a37.78,37.78,0,0,0-4.25-4,28,28,0,0,0,10-12.71l5.37,1.56a43.15,43.15,0,0,1-6.36,10.41H298.1a63.64,63.64,0,0,1-6.7-10.1Z"/><path class="cls-1" d="M491.44,140.86c-.37.47-1.09,1.37-1.4,1.86a32.4,32.4,0,0,1-7.31,8.5l-3.88-3.1A17,17,0,0,0,484,143H468.65a38.74,38.74,0,0,0-3.94.25v-5.18a26.49,26.49,0,0,0,3.94.34h16.09a21,21,0,0,0,3.72-.31Zm-12.78,4.22c0,7.29.16,14-8.58,18.85l-4.38-3.56a12,12,0,0,0,3.54-1.9c3.44-2.6,4.22-5.24,4.22-10.29a18.33,18.33,0,0,0-.25-3.1Z"/><path class="cls-1" d="M524.17,143.1c-.27.8-.55,2.17-.68,2.79a28.77,28.77,0,0,1-2.82,8.49c-2.54,4.87-7.44,8.22-12.87,9.61l-3.9-4.52A27.14,27.14,0,0,0,509,158a14.94,14.94,0,0,0,6.26-4.74,16.63,16.63,0,0,0,2.64-7.38H503.56v4a22.9,22.9,0,0,0,.12,2.54H498.5c.09-.9.16-2,.16-3v-5.33a21.06,21.06,0,0,0-.16-2.82,29.72,29.72,0,0,0,3.32.15h6.48v-2.07a16.38,16.38,0,0,0-.28-3.17h5.8a22.36,22.36,0,0,0-.25,3.17v2.07h4.53a8.34,8.34,0,0,0,2.82-.37Z"/><path class="cls-1" d="M551.7,155.22A97.86,97.86,0,0,0,541,150.78v8c0,.84.18,3.29.34,4.68h-5.89a35.94,35.94,0,0,0,.37-4.68v-17.7a22.37,22.37,0,0,0-.37-4h5.86a35.42,35.42,0,0,0-.31,4v4.25a102.82,102.82,0,0,1,12.8,4.68Z"/><path class="cls-1" d="M580.78,139.41a16.91,16.91,0,0,0,2.23-.16,1.8,1.8,0,0,1,0-.4,3.85,3.85,0,1,1,3.94,3.84c-.16.47-.28.93-.37,1.3-.75,2.92-2,7.63-4.69,11.23a25.44,25.44,0,0,1-12.62,8.71l-4.09-4.5c6.23-1.39,9.74-4.12,12.19-7.16a17.44,17.44,0,0,0,3.41-8H567.11c-1.52,0-3.23.1-4,.16v-5.3c1,.12,3,.28,4,.28Zm7.69-.56a1.65,1.65,0,1,0-1.65,1.64A1.66,1.66,0,0,0,588.47,138.85Z"/><path class="cls-1" d="M605.86,151.93l-4.59,1.71a56.33,56.33,0,0,0-2.86-7.23l4.53-1.61C603.81,146.54,605.24,150.13,605.86,151.93Zm15.84-6.26c-.43,1.21-.65,2-.87,2.7a25.39,25.39,0,0,1-4.15,8.8,24.67,24.67,0,0,1-10.51,7.91l-3.94-4a21,21,0,0,0,10.39-6.45A20.76,20.76,0,0,0,616.4,144Zm-9,4.31-4.5,1.55a57.44,57.44,0,0,0-2.57-6.95l4.47-1.45C610.76,144.49,612.28,148.52,612.74,150Z"/><path class="cls-1" d="M652.14,155.22a97.86,97.86,0,0,0-10.66-4.44v8c0,.84.18,3.29.34,4.68h-5.89a35.94,35.94,0,0,0,.37-4.68v-17.7a22.37,22.37,0,0,0-.37-4h5.86a35.42,35.42,0,0,0-.31,4v4.25a102.82,102.82,0,0,1,12.8,4.68Z"/><path class="cls-1" d="M518,111V81.85l-7.39,5.71-4.88-6.66,13-9.58h8.57V111Z"/><path class="cls-1" d="M573.62,91a37.12,37.12,0,0,1-.84,8,20.46,20.46,0,0,1-2.69,6.69,13.87,13.87,0,0,1-4.79,4.6,14.08,14.08,0,0,1-7.14,1.7,14.25,14.25,0,0,1-7.17-1.7,14,14,0,0,1-4.84-4.6A20.06,20.06,0,0,1,543.43,99a37.12,37.12,0,0,1-.84-8,36.7,36.7,0,0,1,.84-8,19.41,19.41,0,0,1,2.72-6.6A14,14,0,0,1,551,71.94a14.35,14.35,0,0,1,7.17-1.68,14.18,14.18,0,0,1,7.14,1.68,13.8,13.8,0,0,1,4.79,4.51,19.78,19.78,0,0,1,2.69,6.6A36.7,36.7,0,0,1,573.62,91ZM564,91c0-1.23-.07-2.59-.22-4.08a20.49,20.49,0,0,0-.84-4.18,9.09,9.09,0,0,0-1.76-3.24,3.8,3.8,0,0,0-3-1.32,3.85,3.85,0,0,0-3,1.32,8.88,8.88,0,0,0-1.82,3.24,19.22,19.22,0,0,0-.87,4.18c-.15,1.49-.23,2.85-.23,4.08s.08,2.66.23,4.18a19.28,19.28,0,0,0,.87,4.2,8.88,8.88,0,0,0,1.82,3.24,3.85,3.85,0,0,0,3,1.32,3.8,3.8,0,0,0,3-1.32,9.09,9.09,0,0,0,1.76-3.24,20.55,20.55,0,0,0,.84-4.2C563.91,93.69,564,92.3,564,91Z"/><path class="cls-1" d="M607.27,82.14a41.48,41.48,0,0,0,10.06,12,25.22,25.22,0,0,0-4.22,4.48c-.47-.47-1-1-1.49-1.53-.31,9.56-.68,13.47-1.8,14.89a4.73,4.73,0,0,1-3.4,1.91,32.87,32.87,0,0,1-5,.17,11.51,11.51,0,0,0-1.63-5c1.7.14,3.3.17,4.15.17a1.67,1.67,0,0,0,1.36-.51c.61-.68.92-3.5,1.16-9.79h-5.58c-.81,6.42-3.06,12.1-12,15.5a16.56,16.56,0,0,0-3.23-4.59c7.44-2.45,9.21-6.42,9.86-10.91h-5.1V96.79A27.35,27.35,0,0,1,588,98.93a37.78,37.78,0,0,0-4.25-4,27.9,27.9,0,0,0,10-12.71l5.37,1.56a43.12,43.12,0,0,1-6.35,10.41h16.35a63.64,63.64,0,0,1-6.7-10.1Z"/><path class="cls-2" d="M814.5,147.06a28,28,0,0,0,6.89,10.58,15.29,15.29,0,0,0-3.35,3.63,28.86,28.86,0,0,1-5.3-8.31V164.8h-4.47V153.36a30.93,30.93,0,0,1-5.8,8.06,22.22,22.22,0,0,0-2.73-3v6.36h-4.46V149.89a25.89,25.89,0,0,1-1.89,2.07,33.63,33.63,0,0,0-2.61-4.83,31.77,31.77,0,0,0,7.57-11.63l4.49,1.46a49.45,49.45,0,0,1-3.1,6.41v14a29.59,29.59,0,0,0,6.92-10.3h-5.83v-4.37h7.44V135.9h4.47v6.79h7.65v4.37Z"/><path class="cls-2" d="M826.81,161.3a11.23,11.23,0,0,0,3.9-5.86l4,1.42a13.62,13.62,0,0,1-4.18,7Zm25.26,2.48a15.64,15.64,0,0,0-2.2-3.94c-.55,3.66-1.79,4.56-5,4.56h-4.49c-4.5,0-5.52-1.24-5.52-4.9v-3.57h4l-.78-.59,1.65-1.24H828.6V146h3.85v-1.36H827.3v-3.54h5.15v-1.3c-1.3.09-2.58.15-3.78.18a14.51,14.51,0,0,0-1.09-3.19,47.85,47.85,0,0,0,10.79-1.43l3,3a31,31,0,0,1-4.81,1v1.74h4.9v3.54h-4.9V146h3.69v7.72l.87-.65,1,.71v-15.9h3.57a22.73,22.73,0,0,0,.49-2.58l5.06.47c-.31.74-.59,1.46-.87,2.11H855v16.49H842.84a14.1,14.1,0,0,1,2.72,2.67l-3.19,2.48a16.63,16.63,0,0,0-3-3.19v3.09c0,.9.22,1,1.61,1h3.54c1.08,0,1.27-.31,1.42-2.45a13.43,13.43,0,0,0,3.69,1.49,30.49,30.49,0,0,0-2-2.39l3.75-1.92a21.85,21.85,0,0,1,4.84,6.51Zm-15.71-14.45h-3.94v1.49h3.94Zm14.29-7.91h-4.5v1.15h4.5Zm0,4.06h-4.5v1.24h4.5Zm0,5.37v-1.21h-4.5v1.21Z"/><path class="cls-2" d="M786.6,111V81.85l-7.39,5.71-4.87-6.66,13-9.58H796V111Z"/><path class="cls-2" d="M840.53,91a37.12,37.12,0,0,1-.84,8,20.46,20.46,0,0,1-2.69,6.69,13.87,13.87,0,0,1-4.79,4.6,14.08,14.08,0,0,1-7.14,1.7,14.25,14.25,0,0,1-7.17-1.7,14,14,0,0,1-4.84-4.6A20.06,20.06,0,0,1,810.34,99a37.12,37.12,0,0,1-.84-8,36.7,36.7,0,0,1,.84-8,19.41,19.41,0,0,1,2.72-6.6,14,14,0,0,1,4.84-4.51,14.35,14.35,0,0,1,7.17-1.68,14.18,14.18,0,0,1,7.14,1.68A13.8,13.8,0,0,1,837,76.45a19.78,19.78,0,0,1,2.69,6.6A36.7,36.7,0,0,1,840.53,91Zm-9.63,0c0-1.23-.08-2.59-.23-4.08a20.49,20.49,0,0,0-.84-4.18,9.09,9.09,0,0,0-1.76-3.24,3.8,3.8,0,0,0-3-1.32,3.85,3.85,0,0,0-3,1.32,9,9,0,0,0-1.82,3.24,19.22,19.22,0,0,0-.87,4.18c-.15,1.49-.22,2.85-.22,4.08s.07,2.66.22,4.18a19.28,19.28,0,0,0,.87,4.2,9,9,0,0,0,1.82,3.24,3.85,3.85,0,0,0,3,1.32,3.8,3.8,0,0,0,3-1.32,9.09,9.09,0,0,0,1.76-3.24,20.55,20.55,0,0,0,.84-4.2C830.82,93.69,830.9,92.3,830.9,91Z"/><path class="cls-2" d="M870.82,82.14a41.64,41.64,0,0,0,10.06,12,25.17,25.17,0,0,0-4.21,4.48c-.48-.47-1-1-1.5-1.53-.31,9.56-.68,13.47-1.8,14.89a4.73,4.73,0,0,1-3.4,1.91,32.73,32.73,0,0,1-5,.17,11.78,11.78,0,0,0-1.63-5c1.7.14,3.29.17,4.14.17a1.67,1.67,0,0,0,1.36-.51c.62-.68.92-3.5,1.16-9.79h-5.58c-.81,6.42-3.06,12.1-12,15.5a16.35,16.35,0,0,0-3.23-4.59c7.44-2.45,9.21-6.42,9.86-10.91h-5.1V96.79a26,26,0,0,1-2.38,2.14,37.78,37.78,0,0,0-4.25-4,27.9,27.9,0,0,0,10-12.71l5.38,1.56a43.47,43.47,0,0,1-6.36,10.41h16.35a64.33,64.33,0,0,1-6.7-10.1Z"/><path class="cls-2" d="M344.27,316.42H322v5.91c0,4.2-.94,6.38-4.13,7.62s-7.09,1.3-11.94,1.3a34.93,34.93,0,0,0-3.42-8.33c3.31.18,8,.18,9.16.18s1.53-.24,1.53-1.06v-5.62H291v-7.86h22.15V305h3.72c1-.71,2-1.48,2.9-2.25H302v-7.38h25.4l1.83-.41,5.38,4.13a61.38,61.38,0,0,1-10.64,9.45h20.33Zm-44.73-17h-8V284.22H299a46.56,46.56,0,0,0-3.6-5.37l7.32-3.25a32.07,32.07,0,0,1,5.26,7.56l-2.3,1.06h7.8a44.87,44.87,0,0,0-3.37-6.67l7.62-2.84a34.18,34.18,0,0,1,4.55,8.27L319,284.22h8.15a50.07,50.07,0,0,0,4.49-8.74l9.4,2.66c-1.48,2.12-3,4.19-4.43,6.08h7.15v15.19h-8.45v-7.68H299.54Z"/><path class="cls-2" d="M390.83,302c-.71,1.42-1.48,2.83-2.25,4.13H407v25.23h-9v-2h-23.4v2h-8.51V306.08H380c.35-1,.65-2,.94-2.95-1.95.65-4.49.65-7.56.65a22.08,22.08,0,0,0-1.83-5.44c-3.6,1.6-7.27,3.13-10.46,4.43l-2.95-7c2.6-.71,6.14-1.83,9.86-3.07a38.44,38.44,0,0,0-7.14-5l3-3.72h-4v-6.56h24.58V297.1a8,8,0,0,1-.71,4Zm-18.08-4.08h3.07c.65,0,.89-.23.89-.83v-13H367.2a30.82,30.82,0,0,1,5.2,3.42l-4,5.14,4.9-1.65,1.24,6.08ZM398,312.46h-23.4v2.07H398Zm0,10.46v-2.07h-23.4v2.07Zm13.41-26.11c0,3.37-.71,5-2.95,6.08s-5.26,1.07-9.1,1a26.56,26.56,0,0,0-2.07-6.09c-3.25,1.18-6.44,2.37-9.22,3.37l-2.77-6.32c2.54-.71,5.79-1.72,9.27-2.9a54.29,54.29,0,0,0-6.68-4.31l2.9-3.6h-3.6v-6.56h24.22Zm-8.8-1L398,297.58c1.77.06,3.84.06,4.43.06s1-.24,1-.89v-12.7h-8.74a32.36,32.36,0,0,1,5.08,3.25l-3,3.95c1.53-.53,3-1,4.55-1.53Z"/><path class="cls-2" d="M471.6,289.36a38.36,38.36,0,0,0,7.15-.47v9.45c-1.66-.17-3.72-.17-7.09-.17h-3.19v1.89c0,14-3.61,23.39-18.32,29.83l-7.68-7.2c11.82-3.9,16.6-9,16.6-22.4v-2.12h-12.4v7.14c0,2.9.17,5.2.29,6.68H437a59.63,59.63,0,0,0,.35-6.68v-7.14h-4.25c-3.19,0-5,.11-6.68.23v-9.69a34.71,34.71,0,0,0,6.68.65h4.25v-4.9a46.34,46.34,0,0,0-.41-5.91h10.16a45.73,45.73,0,0,0-.41,6v4.84h12.4v-5.55a38.23,38.23,0,0,0-.35-5.85h10.16a47,47,0,0,0-.41,5.85v5.55Z"/><path class="cls-2" d="M526.2,320.09c0,2.83.11,6.91.59,8.56H515.44a78.43,78.43,0,0,0,.48-8.56V302.3a108,108,0,0,1-19.32,7.45l-5.09-8.69a86.75,86.75,0,0,0,27.12-10.63c6-3.73,12.06-9,15.42-13.47l7.68,6.91a100.25,100.25,0,0,1-15.53,12.64Z"/><path class="cls-2" d="M606.2,289a26.28,26.28,0,0,0-2.31,4.84,61.59,61.59,0,0,1-10.22,19.38c-5.73,7-12.88,12.47-24,17l-8.5-7.56c12.76-3.9,18.9-8.92,23.92-14.54,3.73-4.13,7-10.93,7.8-14.77H578.19a72.94,72.94,0,0,1-14.89,14.12l-8-6A53.4,53.4,0,0,0,573.64,283a30.34,30.34,0,0,0,3.13-7l10.46,3.43c-1.36,1.89-2.78,4.31-3.66,5.85h9.51a22.39,22.39,0,0,0,5.85-.77Z"/><path class="cls-2" d="M615.36,323a27.09,27.09,0,0,0,9.92-13.94c1.66-4.85,1.72-15.72,1.72-23.1a23.12,23.12,0,0,0-.65-6.09h10.51a46.94,46.94,0,0,0-.47,6c0,7.26-.18,19.61-1.71,25.58a35.55,35.55,0,0,1-10.58,17.37Zm27.53,1.18a22.29,22.29,0,0,0,.53-4.9V285.4a31,31,0,0,0-.53-5.49h10.64a35.36,35.36,0,0,0-.48,5.55v29.07c4.43-1.83,9.46-6.08,13.12-11.28l5.49,7.91c-4.78,6.09-13.41,12.65-20,16a19.07,19.07,0,0,0-2.83,1.95Z"/></g></g></g></svg>